G04 #@! TF.GenerationSoftware,KiCad,Pcbnew,(5.1.4-0-10_14)*
G04 #@! TF.CreationDate,2020-04-01T19:03:20+03:00*
G04 #@! TF.ProjectId,esp32-programmer,65737033-322d-4707-926f-6772616d6d65,rev?*
G04 #@! TF.SameCoordinates,Original*
G04 #@! TF.FileFunction,Legend,Top*
G04 #@! TF.FilePolarity,Positive*
%FSLAX46Y46*%
G04 Gerber Fmt 4.6, Leading zero omitted, Abs format (unit mm)*
G04 Created by KiCad (PCBNEW (5.1.4-0-10_14)) date 2020-04-01 19:03:20*
%MOMM*%
%LPD*%
G04 APERTURE LIST*
%ADD10C,0.150000*%
%ADD11C,0.120000*%
G04 APERTURE END LIST*
D10*
X54507142Y-93232142D02*
X55021428Y-93232142D01*
X54764285Y-94132142D02*
X54764285Y-93232142D01*
X55321428Y-94132142D02*
X55321428Y-93232142D01*
X55707142Y-94132142D02*
X55707142Y-93660714D01*
X55664285Y-93575000D01*
X55578571Y-93532142D01*
X55450000Y-93532142D01*
X55364285Y-93575000D01*
X55321428Y-93617857D01*
X56135714Y-94132142D02*
X56135714Y-93532142D01*
X56135714Y-93232142D02*
X56092857Y-93275000D01*
X56135714Y-93317857D01*
X56178571Y-93275000D01*
X56135714Y-93232142D01*
X56135714Y-93317857D01*
X56564285Y-93532142D02*
X56564285Y-94132142D01*
X56564285Y-93617857D02*
X56607142Y-93575000D01*
X56692857Y-93532142D01*
X56821428Y-93532142D01*
X56907142Y-93575000D01*
X56950000Y-93660714D01*
X56950000Y-94132142D01*
X57764285Y-93532142D02*
X57764285Y-94260714D01*
X57721428Y-94346428D01*
X57678571Y-94389285D01*
X57592857Y-94432142D01*
X57464285Y-94432142D01*
X57378571Y-94389285D01*
X57764285Y-94089285D02*
X57678571Y-94132142D01*
X57507142Y-94132142D01*
X57421428Y-94089285D01*
X57378571Y-94046428D01*
X57335714Y-93960714D01*
X57335714Y-93703571D01*
X57378571Y-93617857D01*
X57421428Y-93575000D01*
X57507142Y-93532142D01*
X57678571Y-93532142D01*
X57764285Y-93575000D01*
X58321428Y-94132142D02*
X58235714Y-94089285D01*
X58192857Y-94003571D01*
X58192857Y-93232142D01*
X59007142Y-94089285D02*
X58921428Y-94132142D01*
X58750000Y-94132142D01*
X58664285Y-94089285D01*
X58621428Y-94003571D01*
X58621428Y-93660714D01*
X58664285Y-93575000D01*
X58750000Y-93532142D01*
X58921428Y-93532142D01*
X59007142Y-93575000D01*
X59050000Y-93660714D01*
X59050000Y-93746428D01*
X58621428Y-93832142D01*
X59435714Y-94132142D02*
X59435714Y-93532142D01*
X59435714Y-93703571D02*
X59478571Y-93617857D01*
X59521428Y-93575000D01*
X59607142Y-93532142D01*
X59692857Y-93532142D01*
D11*
X77770238Y-101503571D02*
X77986904Y-101503571D01*
X78079761Y-101844047D02*
X77770238Y-101844047D01*
X77770238Y-101194047D01*
X78079761Y-101194047D01*
X78358333Y-101844047D02*
X78358333Y-101194047D01*
X78729761Y-101844047D01*
X78729761Y-101194047D01*
X76667857Y-109553571D02*
X76760714Y-109584523D01*
X76791666Y-109615476D01*
X76822619Y-109677380D01*
X76822619Y-109770238D01*
X76791666Y-109832142D01*
X76760714Y-109863095D01*
X76698809Y-109894047D01*
X76451190Y-109894047D01*
X76451190Y-109244047D01*
X76667857Y-109244047D01*
X76729761Y-109275000D01*
X76760714Y-109305952D01*
X76791666Y-109367857D01*
X76791666Y-109429761D01*
X76760714Y-109491666D01*
X76729761Y-109522619D01*
X76667857Y-109553571D01*
X76451190Y-109553571D01*
X77225000Y-109244047D02*
X77348809Y-109244047D01*
X77410714Y-109275000D01*
X77472619Y-109336904D01*
X77503571Y-109460714D01*
X77503571Y-109677380D01*
X77472619Y-109801190D01*
X77410714Y-109863095D01*
X77348809Y-109894047D01*
X77225000Y-109894047D01*
X77163095Y-109863095D01*
X77101190Y-109801190D01*
X77070238Y-109677380D01*
X77070238Y-109460714D01*
X77101190Y-109336904D01*
X77163095Y-109275000D01*
X77225000Y-109244047D01*
X77905952Y-109244047D02*
X78029761Y-109244047D01*
X78091666Y-109275000D01*
X78153571Y-109336904D01*
X78184523Y-109460714D01*
X78184523Y-109677380D01*
X78153571Y-109801190D01*
X78091666Y-109863095D01*
X78029761Y-109894047D01*
X77905952Y-109894047D01*
X77844047Y-109863095D01*
X77782142Y-109801190D01*
X77751190Y-109677380D01*
X77751190Y-109460714D01*
X77782142Y-109336904D01*
X77844047Y-109275000D01*
X77905952Y-109244047D01*
X78370238Y-109244047D02*
X78741666Y-109244047D01*
X78555952Y-109894047D02*
X78555952Y-109244047D01*
X59858578Y-109510000D02*
X59341422Y-109510000D01*
X59858578Y-108090000D02*
X59341422Y-108090000D01*
X69610000Y-108335000D02*
X69610000Y-108810000D01*
X69610000Y-108810000D02*
X69135000Y-108810000D01*
X65390000Y-105065000D02*
X65390000Y-104590000D01*
X65390000Y-104590000D02*
X65865000Y-104590000D01*
X65390000Y-108335000D02*
X65390000Y-108810000D01*
X65390000Y-108810000D02*
X65865000Y-108810000D01*
X69610000Y-105065000D02*
X69610000Y-104590000D01*
X55791422Y-108090000D02*
X56308578Y-108090000D01*
X55791422Y-109510000D02*
X56308578Y-109510000D01*
X66100000Y-99650000D02*
X66100000Y-97650000D01*
X66100000Y-97650000D02*
X62200000Y-97650000D01*
X66100000Y-99650000D02*
X62200000Y-99650000D01*
X62891422Y-108090000D02*
X63408578Y-108090000D01*
X62891422Y-109510000D02*
X63408578Y-109510000D01*
X72391422Y-105590000D02*
X72908578Y-105590000D01*
X72391422Y-107010000D02*
X72908578Y-107010000D01*
X67800000Y-102610000D02*
X69600000Y-102610000D01*
X69600000Y-99390000D02*
X67150000Y-99390000D01*
X65420000Y-94070000D02*
X65420000Y-96730000D01*
X78180000Y-94070000D02*
X65420000Y-94070000D01*
X78180000Y-96730000D02*
X65420000Y-96730000D01*
X78180000Y-94070000D02*
X78180000Y-96730000D01*
X79450000Y-94070000D02*
X80780000Y-94070000D01*
X80780000Y-94070000D02*
X80780000Y-95400000D01*
X65160000Y-102650000D02*
X65160000Y-100850000D01*
X61940000Y-100850000D02*
X61940000Y-103300000D01*
X63960000Y-96930000D02*
X63960000Y-96000000D01*
X63960000Y-93770000D02*
X63960000Y-94700000D01*
X63960000Y-93770000D02*
X61800000Y-93770000D01*
X63960000Y-96930000D02*
X62500000Y-96930000D01*
X77610000Y-104880000D02*
X76150000Y-104880000D01*
X77610000Y-101720000D02*
X75450000Y-101720000D01*
X77610000Y-101720000D02*
X77610000Y-102650000D01*
X77610000Y-104880000D02*
X77610000Y-103950000D01*
X79800000Y-97675000D02*
X79800000Y-97525000D01*
X79800000Y-97525000D02*
X75300000Y-97525000D01*
X75300000Y-97525000D02*
X75300000Y-97675000D01*
X79800000Y-101075000D02*
X75300000Y-101075000D01*
X75300000Y-100925000D02*
X75300000Y-101075000D01*
X79800000Y-101075000D02*
X79800000Y-100925000D01*
X75300000Y-105525000D02*
X75300000Y-105675000D01*
X79800000Y-105675000D02*
X79800000Y-105525000D01*
X75300000Y-105525000D02*
X79800000Y-105525000D01*
X79800000Y-109075000D02*
X79800000Y-108925000D01*
X75300000Y-109075000D02*
X79800000Y-109075000D01*
X75300000Y-108925000D02*
X75300000Y-109075000D01*
X80310000Y-103558578D02*
X80310000Y-103041422D01*
X78890000Y-103558578D02*
X78890000Y-103041422D01*
X68491422Y-97490000D02*
X69008578Y-97490000D01*
X68491422Y-98910000D02*
X69008578Y-98910000D01*
X72908578Y-101010000D02*
X72391422Y-101010000D01*
X72908578Y-99590000D02*
X72391422Y-99590000D01*
X63408578Y-107410000D02*
X62891422Y-107410000D01*
X63408578Y-105990000D02*
X62891422Y-105990000D01*
X72908578Y-109060000D02*
X72391422Y-109060000D01*
X72908578Y-107640000D02*
X72391422Y-107640000D01*
X72908578Y-101590000D02*
X72391422Y-101590000D01*
X72908578Y-103010000D02*
X72391422Y-103010000D01*
X72908578Y-103590000D02*
X72391422Y-103590000D01*
X72908578Y-105010000D02*
X72391422Y-105010000D01*
X72391422Y-97640000D02*
X72908578Y-97640000D01*
X72391422Y-99060000D02*
X72908578Y-99060000D01*
X62891422Y-104040000D02*
X63408578Y-104040000D01*
X62891422Y-105460000D02*
X63408578Y-105460000D01*
D10*
X61677380Y-101433333D02*
X62391666Y-101433333D01*
X62534523Y-101480952D01*
X62629761Y-101576190D01*
X62677380Y-101719047D01*
X62677380Y-101814285D01*
X62677380Y-100433333D02*
X62677380Y-101004761D01*
X62677380Y-100719047D02*
X61677380Y-100719047D01*
X61820238Y-100814285D01*
X61915476Y-100909523D01*
X61963095Y-101004761D01*
M02*
