G04 #@! TF.GenerationSoftware,KiCad,Pcbnew,(5.1.4-0-10_14)*
G04 #@! TF.CreationDate,2020-03-29T23:28:37+03:00*
G04 #@! TF.ProjectId,esp32-programmer,65737033-322d-4707-926f-6772616d6d65,rev?*
G04 #@! TF.SameCoordinates,Original*
G04 #@! TF.FileFunction,Copper,L1,Top*
G04 #@! TF.FilePolarity,Positive*
%FSLAX46Y46*%
G04 Gerber Fmt 4.6, Leading zero omitted, Abs format (unit mm)*
G04 Created by KiCad (PCBNEW (5.1.4-0-10_14)) date 2020-03-29 23:28:37*
%MOMM*%
%LPD*%
G04 APERTURE LIST*
%ADD10C,0.100000*%
%ADD11C,0.975000*%
%ADD12C,2.600000*%
%ADD13C,0.250000*%
%ADD14R,0.900000X1.200000*%
%ADD15R,1.060000X0.650000*%
%ADD16R,1.700000X1.700000*%
%ADD17O,1.700000X1.700000*%
%ADD18R,0.650000X1.060000*%
%ADD19R,0.900000X0.800000*%
%ADD20R,1.000000X0.700000*%
%ADD21R,1.150000X0.600000*%
%ADD22R,1.150000X0.300000*%
%ADD23R,2.000000X2.180000*%
%ADD24C,0.800000*%
%ADD25C,0.250000*%
%ADD26C,0.254000*%
G04 APERTURE END LIST*
D10*
G36*
X60805142Y-108101174D02*
G01*
X60828803Y-108104684D01*
X60852007Y-108110496D01*
X60874529Y-108118554D01*
X60896153Y-108128782D01*
X60916670Y-108141079D01*
X60935883Y-108155329D01*
X60953607Y-108171393D01*
X60969671Y-108189117D01*
X60983921Y-108208330D01*
X60996218Y-108228847D01*
X61006446Y-108250471D01*
X61014504Y-108272993D01*
X61020316Y-108296197D01*
X61023826Y-108319858D01*
X61025000Y-108343750D01*
X61025000Y-109256250D01*
X61023826Y-109280142D01*
X61020316Y-109303803D01*
X61014504Y-109327007D01*
X61006446Y-109349529D01*
X60996218Y-109371153D01*
X60983921Y-109391670D01*
X60969671Y-109410883D01*
X60953607Y-109428607D01*
X60935883Y-109444671D01*
X60916670Y-109458921D01*
X60896153Y-109471218D01*
X60874529Y-109481446D01*
X60852007Y-109489504D01*
X60828803Y-109495316D01*
X60805142Y-109498826D01*
X60781250Y-109500000D01*
X60293750Y-109500000D01*
X60269858Y-109498826D01*
X60246197Y-109495316D01*
X60222993Y-109489504D01*
X60200471Y-109481446D01*
X60178847Y-109471218D01*
X60158330Y-109458921D01*
X60139117Y-109444671D01*
X60121393Y-109428607D01*
X60105329Y-109410883D01*
X60091079Y-109391670D01*
X60078782Y-109371153D01*
X60068554Y-109349529D01*
X60060496Y-109327007D01*
X60054684Y-109303803D01*
X60051174Y-109280142D01*
X60050000Y-109256250D01*
X60050000Y-108343750D01*
X60051174Y-108319858D01*
X60054684Y-108296197D01*
X60060496Y-108272993D01*
X60068554Y-108250471D01*
X60078782Y-108228847D01*
X60091079Y-108208330D01*
X60105329Y-108189117D01*
X60121393Y-108171393D01*
X60139117Y-108155329D01*
X60158330Y-108141079D01*
X60178847Y-108128782D01*
X60200471Y-108118554D01*
X60222993Y-108110496D01*
X60246197Y-108104684D01*
X60269858Y-108101174D01*
X60293750Y-108100000D01*
X60781250Y-108100000D01*
X60805142Y-108101174D01*
X60805142Y-108101174D01*
G37*
D11*
X60537500Y-108800000D03*
D10*
G36*
X58930142Y-108101174D02*
G01*
X58953803Y-108104684D01*
X58977007Y-108110496D01*
X58999529Y-108118554D01*
X59021153Y-108128782D01*
X59041670Y-108141079D01*
X59060883Y-108155329D01*
X59078607Y-108171393D01*
X59094671Y-108189117D01*
X59108921Y-108208330D01*
X59121218Y-108228847D01*
X59131446Y-108250471D01*
X59139504Y-108272993D01*
X59145316Y-108296197D01*
X59148826Y-108319858D01*
X59150000Y-108343750D01*
X59150000Y-109256250D01*
X59148826Y-109280142D01*
X59145316Y-109303803D01*
X59139504Y-109327007D01*
X59131446Y-109349529D01*
X59121218Y-109371153D01*
X59108921Y-109391670D01*
X59094671Y-109410883D01*
X59078607Y-109428607D01*
X59060883Y-109444671D01*
X59041670Y-109458921D01*
X59021153Y-109471218D01*
X58999529Y-109481446D01*
X58977007Y-109489504D01*
X58953803Y-109495316D01*
X58930142Y-109498826D01*
X58906250Y-109500000D01*
X58418750Y-109500000D01*
X58394858Y-109498826D01*
X58371197Y-109495316D01*
X58347993Y-109489504D01*
X58325471Y-109481446D01*
X58303847Y-109471218D01*
X58283330Y-109458921D01*
X58264117Y-109444671D01*
X58246393Y-109428607D01*
X58230329Y-109410883D01*
X58216079Y-109391670D01*
X58203782Y-109371153D01*
X58193554Y-109349529D01*
X58185496Y-109327007D01*
X58179684Y-109303803D01*
X58176174Y-109280142D01*
X58175000Y-109256250D01*
X58175000Y-108343750D01*
X58176174Y-108319858D01*
X58179684Y-108296197D01*
X58185496Y-108272993D01*
X58193554Y-108250471D01*
X58203782Y-108228847D01*
X58216079Y-108208330D01*
X58230329Y-108189117D01*
X58246393Y-108171393D01*
X58264117Y-108155329D01*
X58283330Y-108141079D01*
X58303847Y-108128782D01*
X58325471Y-108118554D01*
X58347993Y-108110496D01*
X58371197Y-108104684D01*
X58394858Y-108101174D01*
X58418750Y-108100000D01*
X58906250Y-108100000D01*
X58930142Y-108101174D01*
X58930142Y-108101174D01*
G37*
D11*
X58662500Y-108800000D03*
D10*
G36*
X68574504Y-105401204D02*
G01*
X68598773Y-105404804D01*
X68622571Y-105410765D01*
X68645671Y-105419030D01*
X68667849Y-105429520D01*
X68688893Y-105442133D01*
X68708598Y-105456747D01*
X68726777Y-105473223D01*
X68743253Y-105491402D01*
X68757867Y-105511107D01*
X68770480Y-105532151D01*
X68780970Y-105554329D01*
X68789235Y-105577429D01*
X68795196Y-105601227D01*
X68798796Y-105625496D01*
X68800000Y-105650000D01*
X68800000Y-107750000D01*
X68798796Y-107774504D01*
X68795196Y-107798773D01*
X68789235Y-107822571D01*
X68780970Y-107845671D01*
X68770480Y-107867849D01*
X68757867Y-107888893D01*
X68743253Y-107908598D01*
X68726777Y-107926777D01*
X68708598Y-107943253D01*
X68688893Y-107957867D01*
X68667849Y-107970480D01*
X68645671Y-107980970D01*
X68622571Y-107989235D01*
X68598773Y-107995196D01*
X68574504Y-107998796D01*
X68550000Y-108000000D01*
X66450000Y-108000000D01*
X66425496Y-107998796D01*
X66401227Y-107995196D01*
X66377429Y-107989235D01*
X66354329Y-107980970D01*
X66332151Y-107970480D01*
X66311107Y-107957867D01*
X66291402Y-107943253D01*
X66273223Y-107926777D01*
X66256747Y-107908598D01*
X66242133Y-107888893D01*
X66229520Y-107867849D01*
X66219030Y-107845671D01*
X66210765Y-107822571D01*
X66204804Y-107798773D01*
X66201204Y-107774504D01*
X66200000Y-107750000D01*
X66200000Y-105650000D01*
X66201204Y-105625496D01*
X66204804Y-105601227D01*
X66210765Y-105577429D01*
X66219030Y-105554329D01*
X66229520Y-105532151D01*
X66242133Y-105511107D01*
X66256747Y-105491402D01*
X66273223Y-105473223D01*
X66291402Y-105456747D01*
X66311107Y-105442133D01*
X66332151Y-105429520D01*
X66354329Y-105419030D01*
X66377429Y-105410765D01*
X66401227Y-105404804D01*
X66425496Y-105401204D01*
X66450000Y-105400000D01*
X68550000Y-105400000D01*
X68574504Y-105401204D01*
X68574504Y-105401204D01*
G37*
D12*
X67500000Y-106700000D03*
D10*
G36*
X68818626Y-104350301D02*
G01*
X68824693Y-104351201D01*
X68830643Y-104352691D01*
X68836418Y-104354758D01*
X68841962Y-104357380D01*
X68847223Y-104360533D01*
X68852150Y-104364187D01*
X68856694Y-104368306D01*
X68860813Y-104372850D01*
X68864467Y-104377777D01*
X68867620Y-104383038D01*
X68870242Y-104388582D01*
X68872309Y-104394357D01*
X68873799Y-104400307D01*
X68874699Y-104406374D01*
X68875000Y-104412500D01*
X68875000Y-105112500D01*
X68874699Y-105118626D01*
X68873799Y-105124693D01*
X68872309Y-105130643D01*
X68870242Y-105136418D01*
X68867620Y-105141962D01*
X68864467Y-105147223D01*
X68860813Y-105152150D01*
X68856694Y-105156694D01*
X68852150Y-105160813D01*
X68847223Y-105164467D01*
X68841962Y-105167620D01*
X68836418Y-105170242D01*
X68830643Y-105172309D01*
X68824693Y-105173799D01*
X68818626Y-105174699D01*
X68812500Y-105175000D01*
X68687500Y-105175000D01*
X68681374Y-105174699D01*
X68675307Y-105173799D01*
X68669357Y-105172309D01*
X68663582Y-105170242D01*
X68658038Y-105167620D01*
X68652777Y-105164467D01*
X68647850Y-105160813D01*
X68643306Y-105156694D01*
X68639187Y-105152150D01*
X68635533Y-105147223D01*
X68632380Y-105141962D01*
X68629758Y-105136418D01*
X68627691Y-105130643D01*
X68626201Y-105124693D01*
X68625301Y-105118626D01*
X68625000Y-105112500D01*
X68625000Y-104412500D01*
X68625301Y-104406374D01*
X68626201Y-104400307D01*
X68627691Y-104394357D01*
X68629758Y-104388582D01*
X68632380Y-104383038D01*
X68635533Y-104377777D01*
X68639187Y-104372850D01*
X68643306Y-104368306D01*
X68647850Y-104364187D01*
X68652777Y-104360533D01*
X68658038Y-104357380D01*
X68663582Y-104354758D01*
X68669357Y-104352691D01*
X68675307Y-104351201D01*
X68681374Y-104350301D01*
X68687500Y-104350000D01*
X68812500Y-104350000D01*
X68818626Y-104350301D01*
X68818626Y-104350301D01*
G37*
D13*
X68750000Y-104762500D03*
D10*
G36*
X68318626Y-104350301D02*
G01*
X68324693Y-104351201D01*
X68330643Y-104352691D01*
X68336418Y-104354758D01*
X68341962Y-104357380D01*
X68347223Y-104360533D01*
X68352150Y-104364187D01*
X68356694Y-104368306D01*
X68360813Y-104372850D01*
X68364467Y-104377777D01*
X68367620Y-104383038D01*
X68370242Y-104388582D01*
X68372309Y-104394357D01*
X68373799Y-104400307D01*
X68374699Y-104406374D01*
X68375000Y-104412500D01*
X68375000Y-105112500D01*
X68374699Y-105118626D01*
X68373799Y-105124693D01*
X68372309Y-105130643D01*
X68370242Y-105136418D01*
X68367620Y-105141962D01*
X68364467Y-105147223D01*
X68360813Y-105152150D01*
X68356694Y-105156694D01*
X68352150Y-105160813D01*
X68347223Y-105164467D01*
X68341962Y-105167620D01*
X68336418Y-105170242D01*
X68330643Y-105172309D01*
X68324693Y-105173799D01*
X68318626Y-105174699D01*
X68312500Y-105175000D01*
X68187500Y-105175000D01*
X68181374Y-105174699D01*
X68175307Y-105173799D01*
X68169357Y-105172309D01*
X68163582Y-105170242D01*
X68158038Y-105167620D01*
X68152777Y-105164467D01*
X68147850Y-105160813D01*
X68143306Y-105156694D01*
X68139187Y-105152150D01*
X68135533Y-105147223D01*
X68132380Y-105141962D01*
X68129758Y-105136418D01*
X68127691Y-105130643D01*
X68126201Y-105124693D01*
X68125301Y-105118626D01*
X68125000Y-105112500D01*
X68125000Y-104412500D01*
X68125301Y-104406374D01*
X68126201Y-104400307D01*
X68127691Y-104394357D01*
X68129758Y-104388582D01*
X68132380Y-104383038D01*
X68135533Y-104377777D01*
X68139187Y-104372850D01*
X68143306Y-104368306D01*
X68147850Y-104364187D01*
X68152777Y-104360533D01*
X68158038Y-104357380D01*
X68163582Y-104354758D01*
X68169357Y-104352691D01*
X68175307Y-104351201D01*
X68181374Y-104350301D01*
X68187500Y-104350000D01*
X68312500Y-104350000D01*
X68318626Y-104350301D01*
X68318626Y-104350301D01*
G37*
D13*
X68250000Y-104762500D03*
D10*
G36*
X67818626Y-104350301D02*
G01*
X67824693Y-104351201D01*
X67830643Y-104352691D01*
X67836418Y-104354758D01*
X67841962Y-104357380D01*
X67847223Y-104360533D01*
X67852150Y-104364187D01*
X67856694Y-104368306D01*
X67860813Y-104372850D01*
X67864467Y-104377777D01*
X67867620Y-104383038D01*
X67870242Y-104388582D01*
X67872309Y-104394357D01*
X67873799Y-104400307D01*
X67874699Y-104406374D01*
X67875000Y-104412500D01*
X67875000Y-105112500D01*
X67874699Y-105118626D01*
X67873799Y-105124693D01*
X67872309Y-105130643D01*
X67870242Y-105136418D01*
X67867620Y-105141962D01*
X67864467Y-105147223D01*
X67860813Y-105152150D01*
X67856694Y-105156694D01*
X67852150Y-105160813D01*
X67847223Y-105164467D01*
X67841962Y-105167620D01*
X67836418Y-105170242D01*
X67830643Y-105172309D01*
X67824693Y-105173799D01*
X67818626Y-105174699D01*
X67812500Y-105175000D01*
X67687500Y-105175000D01*
X67681374Y-105174699D01*
X67675307Y-105173799D01*
X67669357Y-105172309D01*
X67663582Y-105170242D01*
X67658038Y-105167620D01*
X67652777Y-105164467D01*
X67647850Y-105160813D01*
X67643306Y-105156694D01*
X67639187Y-105152150D01*
X67635533Y-105147223D01*
X67632380Y-105141962D01*
X67629758Y-105136418D01*
X67627691Y-105130643D01*
X67626201Y-105124693D01*
X67625301Y-105118626D01*
X67625000Y-105112500D01*
X67625000Y-104412500D01*
X67625301Y-104406374D01*
X67626201Y-104400307D01*
X67627691Y-104394357D01*
X67629758Y-104388582D01*
X67632380Y-104383038D01*
X67635533Y-104377777D01*
X67639187Y-104372850D01*
X67643306Y-104368306D01*
X67647850Y-104364187D01*
X67652777Y-104360533D01*
X67658038Y-104357380D01*
X67663582Y-104354758D01*
X67669357Y-104352691D01*
X67675307Y-104351201D01*
X67681374Y-104350301D01*
X67687500Y-104350000D01*
X67812500Y-104350000D01*
X67818626Y-104350301D01*
X67818626Y-104350301D01*
G37*
D13*
X67750000Y-104762500D03*
D10*
G36*
X67318626Y-104350301D02*
G01*
X67324693Y-104351201D01*
X67330643Y-104352691D01*
X67336418Y-104354758D01*
X67341962Y-104357380D01*
X67347223Y-104360533D01*
X67352150Y-104364187D01*
X67356694Y-104368306D01*
X67360813Y-104372850D01*
X67364467Y-104377777D01*
X67367620Y-104383038D01*
X67370242Y-104388582D01*
X67372309Y-104394357D01*
X67373799Y-104400307D01*
X67374699Y-104406374D01*
X67375000Y-104412500D01*
X67375000Y-105112500D01*
X67374699Y-105118626D01*
X67373799Y-105124693D01*
X67372309Y-105130643D01*
X67370242Y-105136418D01*
X67367620Y-105141962D01*
X67364467Y-105147223D01*
X67360813Y-105152150D01*
X67356694Y-105156694D01*
X67352150Y-105160813D01*
X67347223Y-105164467D01*
X67341962Y-105167620D01*
X67336418Y-105170242D01*
X67330643Y-105172309D01*
X67324693Y-105173799D01*
X67318626Y-105174699D01*
X67312500Y-105175000D01*
X67187500Y-105175000D01*
X67181374Y-105174699D01*
X67175307Y-105173799D01*
X67169357Y-105172309D01*
X67163582Y-105170242D01*
X67158038Y-105167620D01*
X67152777Y-105164467D01*
X67147850Y-105160813D01*
X67143306Y-105156694D01*
X67139187Y-105152150D01*
X67135533Y-105147223D01*
X67132380Y-105141962D01*
X67129758Y-105136418D01*
X67127691Y-105130643D01*
X67126201Y-105124693D01*
X67125301Y-105118626D01*
X67125000Y-105112500D01*
X67125000Y-104412500D01*
X67125301Y-104406374D01*
X67126201Y-104400307D01*
X67127691Y-104394357D01*
X67129758Y-104388582D01*
X67132380Y-104383038D01*
X67135533Y-104377777D01*
X67139187Y-104372850D01*
X67143306Y-104368306D01*
X67147850Y-104364187D01*
X67152777Y-104360533D01*
X67158038Y-104357380D01*
X67163582Y-104354758D01*
X67169357Y-104352691D01*
X67175307Y-104351201D01*
X67181374Y-104350301D01*
X67187500Y-104350000D01*
X67312500Y-104350000D01*
X67318626Y-104350301D01*
X67318626Y-104350301D01*
G37*
D13*
X67250000Y-104762500D03*
D10*
G36*
X66818626Y-104350301D02*
G01*
X66824693Y-104351201D01*
X66830643Y-104352691D01*
X66836418Y-104354758D01*
X66841962Y-104357380D01*
X66847223Y-104360533D01*
X66852150Y-104364187D01*
X66856694Y-104368306D01*
X66860813Y-104372850D01*
X66864467Y-104377777D01*
X66867620Y-104383038D01*
X66870242Y-104388582D01*
X66872309Y-104394357D01*
X66873799Y-104400307D01*
X66874699Y-104406374D01*
X66875000Y-104412500D01*
X66875000Y-105112500D01*
X66874699Y-105118626D01*
X66873799Y-105124693D01*
X66872309Y-105130643D01*
X66870242Y-105136418D01*
X66867620Y-105141962D01*
X66864467Y-105147223D01*
X66860813Y-105152150D01*
X66856694Y-105156694D01*
X66852150Y-105160813D01*
X66847223Y-105164467D01*
X66841962Y-105167620D01*
X66836418Y-105170242D01*
X66830643Y-105172309D01*
X66824693Y-105173799D01*
X66818626Y-105174699D01*
X66812500Y-105175000D01*
X66687500Y-105175000D01*
X66681374Y-105174699D01*
X66675307Y-105173799D01*
X66669357Y-105172309D01*
X66663582Y-105170242D01*
X66658038Y-105167620D01*
X66652777Y-105164467D01*
X66647850Y-105160813D01*
X66643306Y-105156694D01*
X66639187Y-105152150D01*
X66635533Y-105147223D01*
X66632380Y-105141962D01*
X66629758Y-105136418D01*
X66627691Y-105130643D01*
X66626201Y-105124693D01*
X66625301Y-105118626D01*
X66625000Y-105112500D01*
X66625000Y-104412500D01*
X66625301Y-104406374D01*
X66626201Y-104400307D01*
X66627691Y-104394357D01*
X66629758Y-104388582D01*
X66632380Y-104383038D01*
X66635533Y-104377777D01*
X66639187Y-104372850D01*
X66643306Y-104368306D01*
X66647850Y-104364187D01*
X66652777Y-104360533D01*
X66658038Y-104357380D01*
X66663582Y-104354758D01*
X66669357Y-104352691D01*
X66675307Y-104351201D01*
X66681374Y-104350301D01*
X66687500Y-104350000D01*
X66812500Y-104350000D01*
X66818626Y-104350301D01*
X66818626Y-104350301D01*
G37*
D13*
X66750000Y-104762500D03*
D10*
G36*
X66318626Y-104350301D02*
G01*
X66324693Y-104351201D01*
X66330643Y-104352691D01*
X66336418Y-104354758D01*
X66341962Y-104357380D01*
X66347223Y-104360533D01*
X66352150Y-104364187D01*
X66356694Y-104368306D01*
X66360813Y-104372850D01*
X66364467Y-104377777D01*
X66367620Y-104383038D01*
X66370242Y-104388582D01*
X66372309Y-104394357D01*
X66373799Y-104400307D01*
X66374699Y-104406374D01*
X66375000Y-104412500D01*
X66375000Y-105112500D01*
X66374699Y-105118626D01*
X66373799Y-105124693D01*
X66372309Y-105130643D01*
X66370242Y-105136418D01*
X66367620Y-105141962D01*
X66364467Y-105147223D01*
X66360813Y-105152150D01*
X66356694Y-105156694D01*
X66352150Y-105160813D01*
X66347223Y-105164467D01*
X66341962Y-105167620D01*
X66336418Y-105170242D01*
X66330643Y-105172309D01*
X66324693Y-105173799D01*
X66318626Y-105174699D01*
X66312500Y-105175000D01*
X66187500Y-105175000D01*
X66181374Y-105174699D01*
X66175307Y-105173799D01*
X66169357Y-105172309D01*
X66163582Y-105170242D01*
X66158038Y-105167620D01*
X66152777Y-105164467D01*
X66147850Y-105160813D01*
X66143306Y-105156694D01*
X66139187Y-105152150D01*
X66135533Y-105147223D01*
X66132380Y-105141962D01*
X66129758Y-105136418D01*
X66127691Y-105130643D01*
X66126201Y-105124693D01*
X66125301Y-105118626D01*
X66125000Y-105112500D01*
X66125000Y-104412500D01*
X66125301Y-104406374D01*
X66126201Y-104400307D01*
X66127691Y-104394357D01*
X66129758Y-104388582D01*
X66132380Y-104383038D01*
X66135533Y-104377777D01*
X66139187Y-104372850D01*
X66143306Y-104368306D01*
X66147850Y-104364187D01*
X66152777Y-104360533D01*
X66158038Y-104357380D01*
X66163582Y-104354758D01*
X66169357Y-104352691D01*
X66175307Y-104351201D01*
X66181374Y-104350301D01*
X66187500Y-104350000D01*
X66312500Y-104350000D01*
X66318626Y-104350301D01*
X66318626Y-104350301D01*
G37*
D13*
X66250000Y-104762500D03*
D10*
G36*
X65918626Y-105325301D02*
G01*
X65924693Y-105326201D01*
X65930643Y-105327691D01*
X65936418Y-105329758D01*
X65941962Y-105332380D01*
X65947223Y-105335533D01*
X65952150Y-105339187D01*
X65956694Y-105343306D01*
X65960813Y-105347850D01*
X65964467Y-105352777D01*
X65967620Y-105358038D01*
X65970242Y-105363582D01*
X65972309Y-105369357D01*
X65973799Y-105375307D01*
X65974699Y-105381374D01*
X65975000Y-105387500D01*
X65975000Y-105512500D01*
X65974699Y-105518626D01*
X65973799Y-105524693D01*
X65972309Y-105530643D01*
X65970242Y-105536418D01*
X65967620Y-105541962D01*
X65964467Y-105547223D01*
X65960813Y-105552150D01*
X65956694Y-105556694D01*
X65952150Y-105560813D01*
X65947223Y-105564467D01*
X65941962Y-105567620D01*
X65936418Y-105570242D01*
X65930643Y-105572309D01*
X65924693Y-105573799D01*
X65918626Y-105574699D01*
X65912500Y-105575000D01*
X65212500Y-105575000D01*
X65206374Y-105574699D01*
X65200307Y-105573799D01*
X65194357Y-105572309D01*
X65188582Y-105570242D01*
X65183038Y-105567620D01*
X65177777Y-105564467D01*
X65172850Y-105560813D01*
X65168306Y-105556694D01*
X65164187Y-105552150D01*
X65160533Y-105547223D01*
X65157380Y-105541962D01*
X65154758Y-105536418D01*
X65152691Y-105530643D01*
X65151201Y-105524693D01*
X65150301Y-105518626D01*
X65150000Y-105512500D01*
X65150000Y-105387500D01*
X65150301Y-105381374D01*
X65151201Y-105375307D01*
X65152691Y-105369357D01*
X65154758Y-105363582D01*
X65157380Y-105358038D01*
X65160533Y-105352777D01*
X65164187Y-105347850D01*
X65168306Y-105343306D01*
X65172850Y-105339187D01*
X65177777Y-105335533D01*
X65183038Y-105332380D01*
X65188582Y-105329758D01*
X65194357Y-105327691D01*
X65200307Y-105326201D01*
X65206374Y-105325301D01*
X65212500Y-105325000D01*
X65912500Y-105325000D01*
X65918626Y-105325301D01*
X65918626Y-105325301D01*
G37*
D13*
X65562500Y-105450000D03*
D10*
G36*
X65918626Y-105825301D02*
G01*
X65924693Y-105826201D01*
X65930643Y-105827691D01*
X65936418Y-105829758D01*
X65941962Y-105832380D01*
X65947223Y-105835533D01*
X65952150Y-105839187D01*
X65956694Y-105843306D01*
X65960813Y-105847850D01*
X65964467Y-105852777D01*
X65967620Y-105858038D01*
X65970242Y-105863582D01*
X65972309Y-105869357D01*
X65973799Y-105875307D01*
X65974699Y-105881374D01*
X65975000Y-105887500D01*
X65975000Y-106012500D01*
X65974699Y-106018626D01*
X65973799Y-106024693D01*
X65972309Y-106030643D01*
X65970242Y-106036418D01*
X65967620Y-106041962D01*
X65964467Y-106047223D01*
X65960813Y-106052150D01*
X65956694Y-106056694D01*
X65952150Y-106060813D01*
X65947223Y-106064467D01*
X65941962Y-106067620D01*
X65936418Y-106070242D01*
X65930643Y-106072309D01*
X65924693Y-106073799D01*
X65918626Y-106074699D01*
X65912500Y-106075000D01*
X65212500Y-106075000D01*
X65206374Y-106074699D01*
X65200307Y-106073799D01*
X65194357Y-106072309D01*
X65188582Y-106070242D01*
X65183038Y-106067620D01*
X65177777Y-106064467D01*
X65172850Y-106060813D01*
X65168306Y-106056694D01*
X65164187Y-106052150D01*
X65160533Y-106047223D01*
X65157380Y-106041962D01*
X65154758Y-106036418D01*
X65152691Y-106030643D01*
X65151201Y-106024693D01*
X65150301Y-106018626D01*
X65150000Y-106012500D01*
X65150000Y-105887500D01*
X65150301Y-105881374D01*
X65151201Y-105875307D01*
X65152691Y-105869357D01*
X65154758Y-105863582D01*
X65157380Y-105858038D01*
X65160533Y-105852777D01*
X65164187Y-105847850D01*
X65168306Y-105843306D01*
X65172850Y-105839187D01*
X65177777Y-105835533D01*
X65183038Y-105832380D01*
X65188582Y-105829758D01*
X65194357Y-105827691D01*
X65200307Y-105826201D01*
X65206374Y-105825301D01*
X65212500Y-105825000D01*
X65912500Y-105825000D01*
X65918626Y-105825301D01*
X65918626Y-105825301D01*
G37*
D13*
X65562500Y-105950000D03*
D10*
G36*
X65918626Y-106325301D02*
G01*
X65924693Y-106326201D01*
X65930643Y-106327691D01*
X65936418Y-106329758D01*
X65941962Y-106332380D01*
X65947223Y-106335533D01*
X65952150Y-106339187D01*
X65956694Y-106343306D01*
X65960813Y-106347850D01*
X65964467Y-106352777D01*
X65967620Y-106358038D01*
X65970242Y-106363582D01*
X65972309Y-106369357D01*
X65973799Y-106375307D01*
X65974699Y-106381374D01*
X65975000Y-106387500D01*
X65975000Y-106512500D01*
X65974699Y-106518626D01*
X65973799Y-106524693D01*
X65972309Y-106530643D01*
X65970242Y-106536418D01*
X65967620Y-106541962D01*
X65964467Y-106547223D01*
X65960813Y-106552150D01*
X65956694Y-106556694D01*
X65952150Y-106560813D01*
X65947223Y-106564467D01*
X65941962Y-106567620D01*
X65936418Y-106570242D01*
X65930643Y-106572309D01*
X65924693Y-106573799D01*
X65918626Y-106574699D01*
X65912500Y-106575000D01*
X65212500Y-106575000D01*
X65206374Y-106574699D01*
X65200307Y-106573799D01*
X65194357Y-106572309D01*
X65188582Y-106570242D01*
X65183038Y-106567620D01*
X65177777Y-106564467D01*
X65172850Y-106560813D01*
X65168306Y-106556694D01*
X65164187Y-106552150D01*
X65160533Y-106547223D01*
X65157380Y-106541962D01*
X65154758Y-106536418D01*
X65152691Y-106530643D01*
X65151201Y-106524693D01*
X65150301Y-106518626D01*
X65150000Y-106512500D01*
X65150000Y-106387500D01*
X65150301Y-106381374D01*
X65151201Y-106375307D01*
X65152691Y-106369357D01*
X65154758Y-106363582D01*
X65157380Y-106358038D01*
X65160533Y-106352777D01*
X65164187Y-106347850D01*
X65168306Y-106343306D01*
X65172850Y-106339187D01*
X65177777Y-106335533D01*
X65183038Y-106332380D01*
X65188582Y-106329758D01*
X65194357Y-106327691D01*
X65200307Y-106326201D01*
X65206374Y-106325301D01*
X65212500Y-106325000D01*
X65912500Y-106325000D01*
X65918626Y-106325301D01*
X65918626Y-106325301D01*
G37*
D13*
X65562500Y-106450000D03*
D10*
G36*
X65918626Y-106825301D02*
G01*
X65924693Y-106826201D01*
X65930643Y-106827691D01*
X65936418Y-106829758D01*
X65941962Y-106832380D01*
X65947223Y-106835533D01*
X65952150Y-106839187D01*
X65956694Y-106843306D01*
X65960813Y-106847850D01*
X65964467Y-106852777D01*
X65967620Y-106858038D01*
X65970242Y-106863582D01*
X65972309Y-106869357D01*
X65973799Y-106875307D01*
X65974699Y-106881374D01*
X65975000Y-106887500D01*
X65975000Y-107012500D01*
X65974699Y-107018626D01*
X65973799Y-107024693D01*
X65972309Y-107030643D01*
X65970242Y-107036418D01*
X65967620Y-107041962D01*
X65964467Y-107047223D01*
X65960813Y-107052150D01*
X65956694Y-107056694D01*
X65952150Y-107060813D01*
X65947223Y-107064467D01*
X65941962Y-107067620D01*
X65936418Y-107070242D01*
X65930643Y-107072309D01*
X65924693Y-107073799D01*
X65918626Y-107074699D01*
X65912500Y-107075000D01*
X65212500Y-107075000D01*
X65206374Y-107074699D01*
X65200307Y-107073799D01*
X65194357Y-107072309D01*
X65188582Y-107070242D01*
X65183038Y-107067620D01*
X65177777Y-107064467D01*
X65172850Y-107060813D01*
X65168306Y-107056694D01*
X65164187Y-107052150D01*
X65160533Y-107047223D01*
X65157380Y-107041962D01*
X65154758Y-107036418D01*
X65152691Y-107030643D01*
X65151201Y-107024693D01*
X65150301Y-107018626D01*
X65150000Y-107012500D01*
X65150000Y-106887500D01*
X65150301Y-106881374D01*
X65151201Y-106875307D01*
X65152691Y-106869357D01*
X65154758Y-106863582D01*
X65157380Y-106858038D01*
X65160533Y-106852777D01*
X65164187Y-106847850D01*
X65168306Y-106843306D01*
X65172850Y-106839187D01*
X65177777Y-106835533D01*
X65183038Y-106832380D01*
X65188582Y-106829758D01*
X65194357Y-106827691D01*
X65200307Y-106826201D01*
X65206374Y-106825301D01*
X65212500Y-106825000D01*
X65912500Y-106825000D01*
X65918626Y-106825301D01*
X65918626Y-106825301D01*
G37*
D13*
X65562500Y-106950000D03*
D10*
G36*
X65918626Y-107325301D02*
G01*
X65924693Y-107326201D01*
X65930643Y-107327691D01*
X65936418Y-107329758D01*
X65941962Y-107332380D01*
X65947223Y-107335533D01*
X65952150Y-107339187D01*
X65956694Y-107343306D01*
X65960813Y-107347850D01*
X65964467Y-107352777D01*
X65967620Y-107358038D01*
X65970242Y-107363582D01*
X65972309Y-107369357D01*
X65973799Y-107375307D01*
X65974699Y-107381374D01*
X65975000Y-107387500D01*
X65975000Y-107512500D01*
X65974699Y-107518626D01*
X65973799Y-107524693D01*
X65972309Y-107530643D01*
X65970242Y-107536418D01*
X65967620Y-107541962D01*
X65964467Y-107547223D01*
X65960813Y-107552150D01*
X65956694Y-107556694D01*
X65952150Y-107560813D01*
X65947223Y-107564467D01*
X65941962Y-107567620D01*
X65936418Y-107570242D01*
X65930643Y-107572309D01*
X65924693Y-107573799D01*
X65918626Y-107574699D01*
X65912500Y-107575000D01*
X65212500Y-107575000D01*
X65206374Y-107574699D01*
X65200307Y-107573799D01*
X65194357Y-107572309D01*
X65188582Y-107570242D01*
X65183038Y-107567620D01*
X65177777Y-107564467D01*
X65172850Y-107560813D01*
X65168306Y-107556694D01*
X65164187Y-107552150D01*
X65160533Y-107547223D01*
X65157380Y-107541962D01*
X65154758Y-107536418D01*
X65152691Y-107530643D01*
X65151201Y-107524693D01*
X65150301Y-107518626D01*
X65150000Y-107512500D01*
X65150000Y-107387500D01*
X65150301Y-107381374D01*
X65151201Y-107375307D01*
X65152691Y-107369357D01*
X65154758Y-107363582D01*
X65157380Y-107358038D01*
X65160533Y-107352777D01*
X65164187Y-107347850D01*
X65168306Y-107343306D01*
X65172850Y-107339187D01*
X65177777Y-107335533D01*
X65183038Y-107332380D01*
X65188582Y-107329758D01*
X65194357Y-107327691D01*
X65200307Y-107326201D01*
X65206374Y-107325301D01*
X65212500Y-107325000D01*
X65912500Y-107325000D01*
X65918626Y-107325301D01*
X65918626Y-107325301D01*
G37*
D13*
X65562500Y-107450000D03*
D10*
G36*
X65918626Y-107825301D02*
G01*
X65924693Y-107826201D01*
X65930643Y-107827691D01*
X65936418Y-107829758D01*
X65941962Y-107832380D01*
X65947223Y-107835533D01*
X65952150Y-107839187D01*
X65956694Y-107843306D01*
X65960813Y-107847850D01*
X65964467Y-107852777D01*
X65967620Y-107858038D01*
X65970242Y-107863582D01*
X65972309Y-107869357D01*
X65973799Y-107875307D01*
X65974699Y-107881374D01*
X65975000Y-107887500D01*
X65975000Y-108012500D01*
X65974699Y-108018626D01*
X65973799Y-108024693D01*
X65972309Y-108030643D01*
X65970242Y-108036418D01*
X65967620Y-108041962D01*
X65964467Y-108047223D01*
X65960813Y-108052150D01*
X65956694Y-108056694D01*
X65952150Y-108060813D01*
X65947223Y-108064467D01*
X65941962Y-108067620D01*
X65936418Y-108070242D01*
X65930643Y-108072309D01*
X65924693Y-108073799D01*
X65918626Y-108074699D01*
X65912500Y-108075000D01*
X65212500Y-108075000D01*
X65206374Y-108074699D01*
X65200307Y-108073799D01*
X65194357Y-108072309D01*
X65188582Y-108070242D01*
X65183038Y-108067620D01*
X65177777Y-108064467D01*
X65172850Y-108060813D01*
X65168306Y-108056694D01*
X65164187Y-108052150D01*
X65160533Y-108047223D01*
X65157380Y-108041962D01*
X65154758Y-108036418D01*
X65152691Y-108030643D01*
X65151201Y-108024693D01*
X65150301Y-108018626D01*
X65150000Y-108012500D01*
X65150000Y-107887500D01*
X65150301Y-107881374D01*
X65151201Y-107875307D01*
X65152691Y-107869357D01*
X65154758Y-107863582D01*
X65157380Y-107858038D01*
X65160533Y-107852777D01*
X65164187Y-107847850D01*
X65168306Y-107843306D01*
X65172850Y-107839187D01*
X65177777Y-107835533D01*
X65183038Y-107832380D01*
X65188582Y-107829758D01*
X65194357Y-107827691D01*
X65200307Y-107826201D01*
X65206374Y-107825301D01*
X65212500Y-107825000D01*
X65912500Y-107825000D01*
X65918626Y-107825301D01*
X65918626Y-107825301D01*
G37*
D13*
X65562500Y-107950000D03*
D10*
G36*
X66318626Y-108225301D02*
G01*
X66324693Y-108226201D01*
X66330643Y-108227691D01*
X66336418Y-108229758D01*
X66341962Y-108232380D01*
X66347223Y-108235533D01*
X66352150Y-108239187D01*
X66356694Y-108243306D01*
X66360813Y-108247850D01*
X66364467Y-108252777D01*
X66367620Y-108258038D01*
X66370242Y-108263582D01*
X66372309Y-108269357D01*
X66373799Y-108275307D01*
X66374699Y-108281374D01*
X66375000Y-108287500D01*
X66375000Y-108987500D01*
X66374699Y-108993626D01*
X66373799Y-108999693D01*
X66372309Y-109005643D01*
X66370242Y-109011418D01*
X66367620Y-109016962D01*
X66364467Y-109022223D01*
X66360813Y-109027150D01*
X66356694Y-109031694D01*
X66352150Y-109035813D01*
X66347223Y-109039467D01*
X66341962Y-109042620D01*
X66336418Y-109045242D01*
X66330643Y-109047309D01*
X66324693Y-109048799D01*
X66318626Y-109049699D01*
X66312500Y-109050000D01*
X66187500Y-109050000D01*
X66181374Y-109049699D01*
X66175307Y-109048799D01*
X66169357Y-109047309D01*
X66163582Y-109045242D01*
X66158038Y-109042620D01*
X66152777Y-109039467D01*
X66147850Y-109035813D01*
X66143306Y-109031694D01*
X66139187Y-109027150D01*
X66135533Y-109022223D01*
X66132380Y-109016962D01*
X66129758Y-109011418D01*
X66127691Y-109005643D01*
X66126201Y-108999693D01*
X66125301Y-108993626D01*
X66125000Y-108987500D01*
X66125000Y-108287500D01*
X66125301Y-108281374D01*
X66126201Y-108275307D01*
X66127691Y-108269357D01*
X66129758Y-108263582D01*
X66132380Y-108258038D01*
X66135533Y-108252777D01*
X66139187Y-108247850D01*
X66143306Y-108243306D01*
X66147850Y-108239187D01*
X66152777Y-108235533D01*
X66158038Y-108232380D01*
X66163582Y-108229758D01*
X66169357Y-108227691D01*
X66175307Y-108226201D01*
X66181374Y-108225301D01*
X66187500Y-108225000D01*
X66312500Y-108225000D01*
X66318626Y-108225301D01*
X66318626Y-108225301D01*
G37*
D13*
X66250000Y-108637500D03*
D10*
G36*
X66818626Y-108225301D02*
G01*
X66824693Y-108226201D01*
X66830643Y-108227691D01*
X66836418Y-108229758D01*
X66841962Y-108232380D01*
X66847223Y-108235533D01*
X66852150Y-108239187D01*
X66856694Y-108243306D01*
X66860813Y-108247850D01*
X66864467Y-108252777D01*
X66867620Y-108258038D01*
X66870242Y-108263582D01*
X66872309Y-108269357D01*
X66873799Y-108275307D01*
X66874699Y-108281374D01*
X66875000Y-108287500D01*
X66875000Y-108987500D01*
X66874699Y-108993626D01*
X66873799Y-108999693D01*
X66872309Y-109005643D01*
X66870242Y-109011418D01*
X66867620Y-109016962D01*
X66864467Y-109022223D01*
X66860813Y-109027150D01*
X66856694Y-109031694D01*
X66852150Y-109035813D01*
X66847223Y-109039467D01*
X66841962Y-109042620D01*
X66836418Y-109045242D01*
X66830643Y-109047309D01*
X66824693Y-109048799D01*
X66818626Y-109049699D01*
X66812500Y-109050000D01*
X66687500Y-109050000D01*
X66681374Y-109049699D01*
X66675307Y-109048799D01*
X66669357Y-109047309D01*
X66663582Y-109045242D01*
X66658038Y-109042620D01*
X66652777Y-109039467D01*
X66647850Y-109035813D01*
X66643306Y-109031694D01*
X66639187Y-109027150D01*
X66635533Y-109022223D01*
X66632380Y-109016962D01*
X66629758Y-109011418D01*
X66627691Y-109005643D01*
X66626201Y-108999693D01*
X66625301Y-108993626D01*
X66625000Y-108987500D01*
X66625000Y-108287500D01*
X66625301Y-108281374D01*
X66626201Y-108275307D01*
X66627691Y-108269357D01*
X66629758Y-108263582D01*
X66632380Y-108258038D01*
X66635533Y-108252777D01*
X66639187Y-108247850D01*
X66643306Y-108243306D01*
X66647850Y-108239187D01*
X66652777Y-108235533D01*
X66658038Y-108232380D01*
X66663582Y-108229758D01*
X66669357Y-108227691D01*
X66675307Y-108226201D01*
X66681374Y-108225301D01*
X66687500Y-108225000D01*
X66812500Y-108225000D01*
X66818626Y-108225301D01*
X66818626Y-108225301D01*
G37*
D13*
X66750000Y-108637500D03*
D10*
G36*
X67318626Y-108225301D02*
G01*
X67324693Y-108226201D01*
X67330643Y-108227691D01*
X67336418Y-108229758D01*
X67341962Y-108232380D01*
X67347223Y-108235533D01*
X67352150Y-108239187D01*
X67356694Y-108243306D01*
X67360813Y-108247850D01*
X67364467Y-108252777D01*
X67367620Y-108258038D01*
X67370242Y-108263582D01*
X67372309Y-108269357D01*
X67373799Y-108275307D01*
X67374699Y-108281374D01*
X67375000Y-108287500D01*
X67375000Y-108987500D01*
X67374699Y-108993626D01*
X67373799Y-108999693D01*
X67372309Y-109005643D01*
X67370242Y-109011418D01*
X67367620Y-109016962D01*
X67364467Y-109022223D01*
X67360813Y-109027150D01*
X67356694Y-109031694D01*
X67352150Y-109035813D01*
X67347223Y-109039467D01*
X67341962Y-109042620D01*
X67336418Y-109045242D01*
X67330643Y-109047309D01*
X67324693Y-109048799D01*
X67318626Y-109049699D01*
X67312500Y-109050000D01*
X67187500Y-109050000D01*
X67181374Y-109049699D01*
X67175307Y-109048799D01*
X67169357Y-109047309D01*
X67163582Y-109045242D01*
X67158038Y-109042620D01*
X67152777Y-109039467D01*
X67147850Y-109035813D01*
X67143306Y-109031694D01*
X67139187Y-109027150D01*
X67135533Y-109022223D01*
X67132380Y-109016962D01*
X67129758Y-109011418D01*
X67127691Y-109005643D01*
X67126201Y-108999693D01*
X67125301Y-108993626D01*
X67125000Y-108987500D01*
X67125000Y-108287500D01*
X67125301Y-108281374D01*
X67126201Y-108275307D01*
X67127691Y-108269357D01*
X67129758Y-108263582D01*
X67132380Y-108258038D01*
X67135533Y-108252777D01*
X67139187Y-108247850D01*
X67143306Y-108243306D01*
X67147850Y-108239187D01*
X67152777Y-108235533D01*
X67158038Y-108232380D01*
X67163582Y-108229758D01*
X67169357Y-108227691D01*
X67175307Y-108226201D01*
X67181374Y-108225301D01*
X67187500Y-108225000D01*
X67312500Y-108225000D01*
X67318626Y-108225301D01*
X67318626Y-108225301D01*
G37*
D13*
X67250000Y-108637500D03*
D10*
G36*
X67818626Y-108225301D02*
G01*
X67824693Y-108226201D01*
X67830643Y-108227691D01*
X67836418Y-108229758D01*
X67841962Y-108232380D01*
X67847223Y-108235533D01*
X67852150Y-108239187D01*
X67856694Y-108243306D01*
X67860813Y-108247850D01*
X67864467Y-108252777D01*
X67867620Y-108258038D01*
X67870242Y-108263582D01*
X67872309Y-108269357D01*
X67873799Y-108275307D01*
X67874699Y-108281374D01*
X67875000Y-108287500D01*
X67875000Y-108987500D01*
X67874699Y-108993626D01*
X67873799Y-108999693D01*
X67872309Y-109005643D01*
X67870242Y-109011418D01*
X67867620Y-109016962D01*
X67864467Y-109022223D01*
X67860813Y-109027150D01*
X67856694Y-109031694D01*
X67852150Y-109035813D01*
X67847223Y-109039467D01*
X67841962Y-109042620D01*
X67836418Y-109045242D01*
X67830643Y-109047309D01*
X67824693Y-109048799D01*
X67818626Y-109049699D01*
X67812500Y-109050000D01*
X67687500Y-109050000D01*
X67681374Y-109049699D01*
X67675307Y-109048799D01*
X67669357Y-109047309D01*
X67663582Y-109045242D01*
X67658038Y-109042620D01*
X67652777Y-109039467D01*
X67647850Y-109035813D01*
X67643306Y-109031694D01*
X67639187Y-109027150D01*
X67635533Y-109022223D01*
X67632380Y-109016962D01*
X67629758Y-109011418D01*
X67627691Y-109005643D01*
X67626201Y-108999693D01*
X67625301Y-108993626D01*
X67625000Y-108987500D01*
X67625000Y-108287500D01*
X67625301Y-108281374D01*
X67626201Y-108275307D01*
X67627691Y-108269357D01*
X67629758Y-108263582D01*
X67632380Y-108258038D01*
X67635533Y-108252777D01*
X67639187Y-108247850D01*
X67643306Y-108243306D01*
X67647850Y-108239187D01*
X67652777Y-108235533D01*
X67658038Y-108232380D01*
X67663582Y-108229758D01*
X67669357Y-108227691D01*
X67675307Y-108226201D01*
X67681374Y-108225301D01*
X67687500Y-108225000D01*
X67812500Y-108225000D01*
X67818626Y-108225301D01*
X67818626Y-108225301D01*
G37*
D13*
X67750000Y-108637500D03*
D10*
G36*
X68318626Y-108225301D02*
G01*
X68324693Y-108226201D01*
X68330643Y-108227691D01*
X68336418Y-108229758D01*
X68341962Y-108232380D01*
X68347223Y-108235533D01*
X68352150Y-108239187D01*
X68356694Y-108243306D01*
X68360813Y-108247850D01*
X68364467Y-108252777D01*
X68367620Y-108258038D01*
X68370242Y-108263582D01*
X68372309Y-108269357D01*
X68373799Y-108275307D01*
X68374699Y-108281374D01*
X68375000Y-108287500D01*
X68375000Y-108987500D01*
X68374699Y-108993626D01*
X68373799Y-108999693D01*
X68372309Y-109005643D01*
X68370242Y-109011418D01*
X68367620Y-109016962D01*
X68364467Y-109022223D01*
X68360813Y-109027150D01*
X68356694Y-109031694D01*
X68352150Y-109035813D01*
X68347223Y-109039467D01*
X68341962Y-109042620D01*
X68336418Y-109045242D01*
X68330643Y-109047309D01*
X68324693Y-109048799D01*
X68318626Y-109049699D01*
X68312500Y-109050000D01*
X68187500Y-109050000D01*
X68181374Y-109049699D01*
X68175307Y-109048799D01*
X68169357Y-109047309D01*
X68163582Y-109045242D01*
X68158038Y-109042620D01*
X68152777Y-109039467D01*
X68147850Y-109035813D01*
X68143306Y-109031694D01*
X68139187Y-109027150D01*
X68135533Y-109022223D01*
X68132380Y-109016962D01*
X68129758Y-109011418D01*
X68127691Y-109005643D01*
X68126201Y-108999693D01*
X68125301Y-108993626D01*
X68125000Y-108987500D01*
X68125000Y-108287500D01*
X68125301Y-108281374D01*
X68126201Y-108275307D01*
X68127691Y-108269357D01*
X68129758Y-108263582D01*
X68132380Y-108258038D01*
X68135533Y-108252777D01*
X68139187Y-108247850D01*
X68143306Y-108243306D01*
X68147850Y-108239187D01*
X68152777Y-108235533D01*
X68158038Y-108232380D01*
X68163582Y-108229758D01*
X68169357Y-108227691D01*
X68175307Y-108226201D01*
X68181374Y-108225301D01*
X68187500Y-108225000D01*
X68312500Y-108225000D01*
X68318626Y-108225301D01*
X68318626Y-108225301D01*
G37*
D13*
X68250000Y-108637500D03*
D10*
G36*
X68818626Y-108225301D02*
G01*
X68824693Y-108226201D01*
X68830643Y-108227691D01*
X68836418Y-108229758D01*
X68841962Y-108232380D01*
X68847223Y-108235533D01*
X68852150Y-108239187D01*
X68856694Y-108243306D01*
X68860813Y-108247850D01*
X68864467Y-108252777D01*
X68867620Y-108258038D01*
X68870242Y-108263582D01*
X68872309Y-108269357D01*
X68873799Y-108275307D01*
X68874699Y-108281374D01*
X68875000Y-108287500D01*
X68875000Y-108987500D01*
X68874699Y-108993626D01*
X68873799Y-108999693D01*
X68872309Y-109005643D01*
X68870242Y-109011418D01*
X68867620Y-109016962D01*
X68864467Y-109022223D01*
X68860813Y-109027150D01*
X68856694Y-109031694D01*
X68852150Y-109035813D01*
X68847223Y-109039467D01*
X68841962Y-109042620D01*
X68836418Y-109045242D01*
X68830643Y-109047309D01*
X68824693Y-109048799D01*
X68818626Y-109049699D01*
X68812500Y-109050000D01*
X68687500Y-109050000D01*
X68681374Y-109049699D01*
X68675307Y-109048799D01*
X68669357Y-109047309D01*
X68663582Y-109045242D01*
X68658038Y-109042620D01*
X68652777Y-109039467D01*
X68647850Y-109035813D01*
X68643306Y-109031694D01*
X68639187Y-109027150D01*
X68635533Y-109022223D01*
X68632380Y-109016962D01*
X68629758Y-109011418D01*
X68627691Y-109005643D01*
X68626201Y-108999693D01*
X68625301Y-108993626D01*
X68625000Y-108987500D01*
X68625000Y-108287500D01*
X68625301Y-108281374D01*
X68626201Y-108275307D01*
X68627691Y-108269357D01*
X68629758Y-108263582D01*
X68632380Y-108258038D01*
X68635533Y-108252777D01*
X68639187Y-108247850D01*
X68643306Y-108243306D01*
X68647850Y-108239187D01*
X68652777Y-108235533D01*
X68658038Y-108232380D01*
X68663582Y-108229758D01*
X68669357Y-108227691D01*
X68675307Y-108226201D01*
X68681374Y-108225301D01*
X68687500Y-108225000D01*
X68812500Y-108225000D01*
X68818626Y-108225301D01*
X68818626Y-108225301D01*
G37*
D13*
X68750000Y-108637500D03*
D10*
G36*
X69793626Y-107825301D02*
G01*
X69799693Y-107826201D01*
X69805643Y-107827691D01*
X69811418Y-107829758D01*
X69816962Y-107832380D01*
X69822223Y-107835533D01*
X69827150Y-107839187D01*
X69831694Y-107843306D01*
X69835813Y-107847850D01*
X69839467Y-107852777D01*
X69842620Y-107858038D01*
X69845242Y-107863582D01*
X69847309Y-107869357D01*
X69848799Y-107875307D01*
X69849699Y-107881374D01*
X69850000Y-107887500D01*
X69850000Y-108012500D01*
X69849699Y-108018626D01*
X69848799Y-108024693D01*
X69847309Y-108030643D01*
X69845242Y-108036418D01*
X69842620Y-108041962D01*
X69839467Y-108047223D01*
X69835813Y-108052150D01*
X69831694Y-108056694D01*
X69827150Y-108060813D01*
X69822223Y-108064467D01*
X69816962Y-108067620D01*
X69811418Y-108070242D01*
X69805643Y-108072309D01*
X69799693Y-108073799D01*
X69793626Y-108074699D01*
X69787500Y-108075000D01*
X69087500Y-108075000D01*
X69081374Y-108074699D01*
X69075307Y-108073799D01*
X69069357Y-108072309D01*
X69063582Y-108070242D01*
X69058038Y-108067620D01*
X69052777Y-108064467D01*
X69047850Y-108060813D01*
X69043306Y-108056694D01*
X69039187Y-108052150D01*
X69035533Y-108047223D01*
X69032380Y-108041962D01*
X69029758Y-108036418D01*
X69027691Y-108030643D01*
X69026201Y-108024693D01*
X69025301Y-108018626D01*
X69025000Y-108012500D01*
X69025000Y-107887500D01*
X69025301Y-107881374D01*
X69026201Y-107875307D01*
X69027691Y-107869357D01*
X69029758Y-107863582D01*
X69032380Y-107858038D01*
X69035533Y-107852777D01*
X69039187Y-107847850D01*
X69043306Y-107843306D01*
X69047850Y-107839187D01*
X69052777Y-107835533D01*
X69058038Y-107832380D01*
X69063582Y-107829758D01*
X69069357Y-107827691D01*
X69075307Y-107826201D01*
X69081374Y-107825301D01*
X69087500Y-107825000D01*
X69787500Y-107825000D01*
X69793626Y-107825301D01*
X69793626Y-107825301D01*
G37*
D13*
X69437500Y-107950000D03*
D10*
G36*
X69793626Y-107325301D02*
G01*
X69799693Y-107326201D01*
X69805643Y-107327691D01*
X69811418Y-107329758D01*
X69816962Y-107332380D01*
X69822223Y-107335533D01*
X69827150Y-107339187D01*
X69831694Y-107343306D01*
X69835813Y-107347850D01*
X69839467Y-107352777D01*
X69842620Y-107358038D01*
X69845242Y-107363582D01*
X69847309Y-107369357D01*
X69848799Y-107375307D01*
X69849699Y-107381374D01*
X69850000Y-107387500D01*
X69850000Y-107512500D01*
X69849699Y-107518626D01*
X69848799Y-107524693D01*
X69847309Y-107530643D01*
X69845242Y-107536418D01*
X69842620Y-107541962D01*
X69839467Y-107547223D01*
X69835813Y-107552150D01*
X69831694Y-107556694D01*
X69827150Y-107560813D01*
X69822223Y-107564467D01*
X69816962Y-107567620D01*
X69811418Y-107570242D01*
X69805643Y-107572309D01*
X69799693Y-107573799D01*
X69793626Y-107574699D01*
X69787500Y-107575000D01*
X69087500Y-107575000D01*
X69081374Y-107574699D01*
X69075307Y-107573799D01*
X69069357Y-107572309D01*
X69063582Y-107570242D01*
X69058038Y-107567620D01*
X69052777Y-107564467D01*
X69047850Y-107560813D01*
X69043306Y-107556694D01*
X69039187Y-107552150D01*
X69035533Y-107547223D01*
X69032380Y-107541962D01*
X69029758Y-107536418D01*
X69027691Y-107530643D01*
X69026201Y-107524693D01*
X69025301Y-107518626D01*
X69025000Y-107512500D01*
X69025000Y-107387500D01*
X69025301Y-107381374D01*
X69026201Y-107375307D01*
X69027691Y-107369357D01*
X69029758Y-107363582D01*
X69032380Y-107358038D01*
X69035533Y-107352777D01*
X69039187Y-107347850D01*
X69043306Y-107343306D01*
X69047850Y-107339187D01*
X69052777Y-107335533D01*
X69058038Y-107332380D01*
X69063582Y-107329758D01*
X69069357Y-107327691D01*
X69075307Y-107326201D01*
X69081374Y-107325301D01*
X69087500Y-107325000D01*
X69787500Y-107325000D01*
X69793626Y-107325301D01*
X69793626Y-107325301D01*
G37*
D13*
X69437500Y-107450000D03*
D10*
G36*
X69793626Y-106825301D02*
G01*
X69799693Y-106826201D01*
X69805643Y-106827691D01*
X69811418Y-106829758D01*
X69816962Y-106832380D01*
X69822223Y-106835533D01*
X69827150Y-106839187D01*
X69831694Y-106843306D01*
X69835813Y-106847850D01*
X69839467Y-106852777D01*
X69842620Y-106858038D01*
X69845242Y-106863582D01*
X69847309Y-106869357D01*
X69848799Y-106875307D01*
X69849699Y-106881374D01*
X69850000Y-106887500D01*
X69850000Y-107012500D01*
X69849699Y-107018626D01*
X69848799Y-107024693D01*
X69847309Y-107030643D01*
X69845242Y-107036418D01*
X69842620Y-107041962D01*
X69839467Y-107047223D01*
X69835813Y-107052150D01*
X69831694Y-107056694D01*
X69827150Y-107060813D01*
X69822223Y-107064467D01*
X69816962Y-107067620D01*
X69811418Y-107070242D01*
X69805643Y-107072309D01*
X69799693Y-107073799D01*
X69793626Y-107074699D01*
X69787500Y-107075000D01*
X69087500Y-107075000D01*
X69081374Y-107074699D01*
X69075307Y-107073799D01*
X69069357Y-107072309D01*
X69063582Y-107070242D01*
X69058038Y-107067620D01*
X69052777Y-107064467D01*
X69047850Y-107060813D01*
X69043306Y-107056694D01*
X69039187Y-107052150D01*
X69035533Y-107047223D01*
X69032380Y-107041962D01*
X69029758Y-107036418D01*
X69027691Y-107030643D01*
X69026201Y-107024693D01*
X69025301Y-107018626D01*
X69025000Y-107012500D01*
X69025000Y-106887500D01*
X69025301Y-106881374D01*
X69026201Y-106875307D01*
X69027691Y-106869357D01*
X69029758Y-106863582D01*
X69032380Y-106858038D01*
X69035533Y-106852777D01*
X69039187Y-106847850D01*
X69043306Y-106843306D01*
X69047850Y-106839187D01*
X69052777Y-106835533D01*
X69058038Y-106832380D01*
X69063582Y-106829758D01*
X69069357Y-106827691D01*
X69075307Y-106826201D01*
X69081374Y-106825301D01*
X69087500Y-106825000D01*
X69787500Y-106825000D01*
X69793626Y-106825301D01*
X69793626Y-106825301D01*
G37*
D13*
X69437500Y-106950000D03*
D10*
G36*
X69793626Y-106325301D02*
G01*
X69799693Y-106326201D01*
X69805643Y-106327691D01*
X69811418Y-106329758D01*
X69816962Y-106332380D01*
X69822223Y-106335533D01*
X69827150Y-106339187D01*
X69831694Y-106343306D01*
X69835813Y-106347850D01*
X69839467Y-106352777D01*
X69842620Y-106358038D01*
X69845242Y-106363582D01*
X69847309Y-106369357D01*
X69848799Y-106375307D01*
X69849699Y-106381374D01*
X69850000Y-106387500D01*
X69850000Y-106512500D01*
X69849699Y-106518626D01*
X69848799Y-106524693D01*
X69847309Y-106530643D01*
X69845242Y-106536418D01*
X69842620Y-106541962D01*
X69839467Y-106547223D01*
X69835813Y-106552150D01*
X69831694Y-106556694D01*
X69827150Y-106560813D01*
X69822223Y-106564467D01*
X69816962Y-106567620D01*
X69811418Y-106570242D01*
X69805643Y-106572309D01*
X69799693Y-106573799D01*
X69793626Y-106574699D01*
X69787500Y-106575000D01*
X69087500Y-106575000D01*
X69081374Y-106574699D01*
X69075307Y-106573799D01*
X69069357Y-106572309D01*
X69063582Y-106570242D01*
X69058038Y-106567620D01*
X69052777Y-106564467D01*
X69047850Y-106560813D01*
X69043306Y-106556694D01*
X69039187Y-106552150D01*
X69035533Y-106547223D01*
X69032380Y-106541962D01*
X69029758Y-106536418D01*
X69027691Y-106530643D01*
X69026201Y-106524693D01*
X69025301Y-106518626D01*
X69025000Y-106512500D01*
X69025000Y-106387500D01*
X69025301Y-106381374D01*
X69026201Y-106375307D01*
X69027691Y-106369357D01*
X69029758Y-106363582D01*
X69032380Y-106358038D01*
X69035533Y-106352777D01*
X69039187Y-106347850D01*
X69043306Y-106343306D01*
X69047850Y-106339187D01*
X69052777Y-106335533D01*
X69058038Y-106332380D01*
X69063582Y-106329758D01*
X69069357Y-106327691D01*
X69075307Y-106326201D01*
X69081374Y-106325301D01*
X69087500Y-106325000D01*
X69787500Y-106325000D01*
X69793626Y-106325301D01*
X69793626Y-106325301D01*
G37*
D13*
X69437500Y-106450000D03*
D10*
G36*
X69793626Y-105825301D02*
G01*
X69799693Y-105826201D01*
X69805643Y-105827691D01*
X69811418Y-105829758D01*
X69816962Y-105832380D01*
X69822223Y-105835533D01*
X69827150Y-105839187D01*
X69831694Y-105843306D01*
X69835813Y-105847850D01*
X69839467Y-105852777D01*
X69842620Y-105858038D01*
X69845242Y-105863582D01*
X69847309Y-105869357D01*
X69848799Y-105875307D01*
X69849699Y-105881374D01*
X69850000Y-105887500D01*
X69850000Y-106012500D01*
X69849699Y-106018626D01*
X69848799Y-106024693D01*
X69847309Y-106030643D01*
X69845242Y-106036418D01*
X69842620Y-106041962D01*
X69839467Y-106047223D01*
X69835813Y-106052150D01*
X69831694Y-106056694D01*
X69827150Y-106060813D01*
X69822223Y-106064467D01*
X69816962Y-106067620D01*
X69811418Y-106070242D01*
X69805643Y-106072309D01*
X69799693Y-106073799D01*
X69793626Y-106074699D01*
X69787500Y-106075000D01*
X69087500Y-106075000D01*
X69081374Y-106074699D01*
X69075307Y-106073799D01*
X69069357Y-106072309D01*
X69063582Y-106070242D01*
X69058038Y-106067620D01*
X69052777Y-106064467D01*
X69047850Y-106060813D01*
X69043306Y-106056694D01*
X69039187Y-106052150D01*
X69035533Y-106047223D01*
X69032380Y-106041962D01*
X69029758Y-106036418D01*
X69027691Y-106030643D01*
X69026201Y-106024693D01*
X69025301Y-106018626D01*
X69025000Y-106012500D01*
X69025000Y-105887500D01*
X69025301Y-105881374D01*
X69026201Y-105875307D01*
X69027691Y-105869357D01*
X69029758Y-105863582D01*
X69032380Y-105858038D01*
X69035533Y-105852777D01*
X69039187Y-105847850D01*
X69043306Y-105843306D01*
X69047850Y-105839187D01*
X69052777Y-105835533D01*
X69058038Y-105832380D01*
X69063582Y-105829758D01*
X69069357Y-105827691D01*
X69075307Y-105826201D01*
X69081374Y-105825301D01*
X69087500Y-105825000D01*
X69787500Y-105825000D01*
X69793626Y-105825301D01*
X69793626Y-105825301D01*
G37*
D13*
X69437500Y-105950000D03*
D10*
G36*
X69793626Y-105325301D02*
G01*
X69799693Y-105326201D01*
X69805643Y-105327691D01*
X69811418Y-105329758D01*
X69816962Y-105332380D01*
X69822223Y-105335533D01*
X69827150Y-105339187D01*
X69831694Y-105343306D01*
X69835813Y-105347850D01*
X69839467Y-105352777D01*
X69842620Y-105358038D01*
X69845242Y-105363582D01*
X69847309Y-105369357D01*
X69848799Y-105375307D01*
X69849699Y-105381374D01*
X69850000Y-105387500D01*
X69850000Y-105512500D01*
X69849699Y-105518626D01*
X69848799Y-105524693D01*
X69847309Y-105530643D01*
X69845242Y-105536418D01*
X69842620Y-105541962D01*
X69839467Y-105547223D01*
X69835813Y-105552150D01*
X69831694Y-105556694D01*
X69827150Y-105560813D01*
X69822223Y-105564467D01*
X69816962Y-105567620D01*
X69811418Y-105570242D01*
X69805643Y-105572309D01*
X69799693Y-105573799D01*
X69793626Y-105574699D01*
X69787500Y-105575000D01*
X69087500Y-105575000D01*
X69081374Y-105574699D01*
X69075307Y-105573799D01*
X69069357Y-105572309D01*
X69063582Y-105570242D01*
X69058038Y-105567620D01*
X69052777Y-105564467D01*
X69047850Y-105560813D01*
X69043306Y-105556694D01*
X69039187Y-105552150D01*
X69035533Y-105547223D01*
X69032380Y-105541962D01*
X69029758Y-105536418D01*
X69027691Y-105530643D01*
X69026201Y-105524693D01*
X69025301Y-105518626D01*
X69025000Y-105512500D01*
X69025000Y-105387500D01*
X69025301Y-105381374D01*
X69026201Y-105375307D01*
X69027691Y-105369357D01*
X69029758Y-105363582D01*
X69032380Y-105358038D01*
X69035533Y-105352777D01*
X69039187Y-105347850D01*
X69043306Y-105343306D01*
X69047850Y-105339187D01*
X69052777Y-105335533D01*
X69058038Y-105332380D01*
X69063582Y-105329758D01*
X69069357Y-105327691D01*
X69075307Y-105326201D01*
X69081374Y-105325301D01*
X69087500Y-105325000D01*
X69787500Y-105325000D01*
X69793626Y-105325301D01*
X69793626Y-105325301D01*
G37*
D13*
X69437500Y-105450000D03*
D10*
G36*
X55380142Y-108101174D02*
G01*
X55403803Y-108104684D01*
X55427007Y-108110496D01*
X55449529Y-108118554D01*
X55471153Y-108128782D01*
X55491670Y-108141079D01*
X55510883Y-108155329D01*
X55528607Y-108171393D01*
X55544671Y-108189117D01*
X55558921Y-108208330D01*
X55571218Y-108228847D01*
X55581446Y-108250471D01*
X55589504Y-108272993D01*
X55595316Y-108296197D01*
X55598826Y-108319858D01*
X55600000Y-108343750D01*
X55600000Y-109256250D01*
X55598826Y-109280142D01*
X55595316Y-109303803D01*
X55589504Y-109327007D01*
X55581446Y-109349529D01*
X55571218Y-109371153D01*
X55558921Y-109391670D01*
X55544671Y-109410883D01*
X55528607Y-109428607D01*
X55510883Y-109444671D01*
X55491670Y-109458921D01*
X55471153Y-109471218D01*
X55449529Y-109481446D01*
X55427007Y-109489504D01*
X55403803Y-109495316D01*
X55380142Y-109498826D01*
X55356250Y-109500000D01*
X54868750Y-109500000D01*
X54844858Y-109498826D01*
X54821197Y-109495316D01*
X54797993Y-109489504D01*
X54775471Y-109481446D01*
X54753847Y-109471218D01*
X54733330Y-109458921D01*
X54714117Y-109444671D01*
X54696393Y-109428607D01*
X54680329Y-109410883D01*
X54666079Y-109391670D01*
X54653782Y-109371153D01*
X54643554Y-109349529D01*
X54635496Y-109327007D01*
X54629684Y-109303803D01*
X54626174Y-109280142D01*
X54625000Y-109256250D01*
X54625000Y-108343750D01*
X54626174Y-108319858D01*
X54629684Y-108296197D01*
X54635496Y-108272993D01*
X54643554Y-108250471D01*
X54653782Y-108228847D01*
X54666079Y-108208330D01*
X54680329Y-108189117D01*
X54696393Y-108171393D01*
X54714117Y-108155329D01*
X54733330Y-108141079D01*
X54753847Y-108128782D01*
X54775471Y-108118554D01*
X54797993Y-108110496D01*
X54821197Y-108104684D01*
X54844858Y-108101174D01*
X54868750Y-108100000D01*
X55356250Y-108100000D01*
X55380142Y-108101174D01*
X55380142Y-108101174D01*
G37*
D11*
X55112500Y-108800000D03*
D10*
G36*
X57255142Y-108101174D02*
G01*
X57278803Y-108104684D01*
X57302007Y-108110496D01*
X57324529Y-108118554D01*
X57346153Y-108128782D01*
X57366670Y-108141079D01*
X57385883Y-108155329D01*
X57403607Y-108171393D01*
X57419671Y-108189117D01*
X57433921Y-108208330D01*
X57446218Y-108228847D01*
X57456446Y-108250471D01*
X57464504Y-108272993D01*
X57470316Y-108296197D01*
X57473826Y-108319858D01*
X57475000Y-108343750D01*
X57475000Y-109256250D01*
X57473826Y-109280142D01*
X57470316Y-109303803D01*
X57464504Y-109327007D01*
X57456446Y-109349529D01*
X57446218Y-109371153D01*
X57433921Y-109391670D01*
X57419671Y-109410883D01*
X57403607Y-109428607D01*
X57385883Y-109444671D01*
X57366670Y-109458921D01*
X57346153Y-109471218D01*
X57324529Y-109481446D01*
X57302007Y-109489504D01*
X57278803Y-109495316D01*
X57255142Y-109498826D01*
X57231250Y-109500000D01*
X56743750Y-109500000D01*
X56719858Y-109498826D01*
X56696197Y-109495316D01*
X56672993Y-109489504D01*
X56650471Y-109481446D01*
X56628847Y-109471218D01*
X56608330Y-109458921D01*
X56589117Y-109444671D01*
X56571393Y-109428607D01*
X56555329Y-109410883D01*
X56541079Y-109391670D01*
X56528782Y-109371153D01*
X56518554Y-109349529D01*
X56510496Y-109327007D01*
X56504684Y-109303803D01*
X56501174Y-109280142D01*
X56500000Y-109256250D01*
X56500000Y-108343750D01*
X56501174Y-108319858D01*
X56504684Y-108296197D01*
X56510496Y-108272993D01*
X56518554Y-108250471D01*
X56528782Y-108228847D01*
X56541079Y-108208330D01*
X56555329Y-108189117D01*
X56571393Y-108171393D01*
X56589117Y-108155329D01*
X56608330Y-108141079D01*
X56628847Y-108128782D01*
X56650471Y-108118554D01*
X56672993Y-108110496D01*
X56696197Y-108104684D01*
X56719858Y-108101174D01*
X56743750Y-108100000D01*
X57231250Y-108100000D01*
X57255142Y-108101174D01*
X57255142Y-108101174D01*
G37*
D11*
X56987500Y-108800000D03*
D14*
X65500000Y-98650000D03*
X62200000Y-98650000D03*
D10*
G36*
X62480142Y-108101174D02*
G01*
X62503803Y-108104684D01*
X62527007Y-108110496D01*
X62549529Y-108118554D01*
X62571153Y-108128782D01*
X62591670Y-108141079D01*
X62610883Y-108155329D01*
X62628607Y-108171393D01*
X62644671Y-108189117D01*
X62658921Y-108208330D01*
X62671218Y-108228847D01*
X62681446Y-108250471D01*
X62689504Y-108272993D01*
X62695316Y-108296197D01*
X62698826Y-108319858D01*
X62700000Y-108343750D01*
X62700000Y-109256250D01*
X62698826Y-109280142D01*
X62695316Y-109303803D01*
X62689504Y-109327007D01*
X62681446Y-109349529D01*
X62671218Y-109371153D01*
X62658921Y-109391670D01*
X62644671Y-109410883D01*
X62628607Y-109428607D01*
X62610883Y-109444671D01*
X62591670Y-109458921D01*
X62571153Y-109471218D01*
X62549529Y-109481446D01*
X62527007Y-109489504D01*
X62503803Y-109495316D01*
X62480142Y-109498826D01*
X62456250Y-109500000D01*
X61968750Y-109500000D01*
X61944858Y-109498826D01*
X61921197Y-109495316D01*
X61897993Y-109489504D01*
X61875471Y-109481446D01*
X61853847Y-109471218D01*
X61833330Y-109458921D01*
X61814117Y-109444671D01*
X61796393Y-109428607D01*
X61780329Y-109410883D01*
X61766079Y-109391670D01*
X61753782Y-109371153D01*
X61743554Y-109349529D01*
X61735496Y-109327007D01*
X61729684Y-109303803D01*
X61726174Y-109280142D01*
X61725000Y-109256250D01*
X61725000Y-108343750D01*
X61726174Y-108319858D01*
X61729684Y-108296197D01*
X61735496Y-108272993D01*
X61743554Y-108250471D01*
X61753782Y-108228847D01*
X61766079Y-108208330D01*
X61780329Y-108189117D01*
X61796393Y-108171393D01*
X61814117Y-108155329D01*
X61833330Y-108141079D01*
X61853847Y-108128782D01*
X61875471Y-108118554D01*
X61897993Y-108110496D01*
X61921197Y-108104684D01*
X61944858Y-108101174D01*
X61968750Y-108100000D01*
X62456250Y-108100000D01*
X62480142Y-108101174D01*
X62480142Y-108101174D01*
G37*
D11*
X62212500Y-108800000D03*
D10*
G36*
X64355142Y-108101174D02*
G01*
X64378803Y-108104684D01*
X64402007Y-108110496D01*
X64424529Y-108118554D01*
X64446153Y-108128782D01*
X64466670Y-108141079D01*
X64485883Y-108155329D01*
X64503607Y-108171393D01*
X64519671Y-108189117D01*
X64533921Y-108208330D01*
X64546218Y-108228847D01*
X64556446Y-108250471D01*
X64564504Y-108272993D01*
X64570316Y-108296197D01*
X64573826Y-108319858D01*
X64575000Y-108343750D01*
X64575000Y-109256250D01*
X64573826Y-109280142D01*
X64570316Y-109303803D01*
X64564504Y-109327007D01*
X64556446Y-109349529D01*
X64546218Y-109371153D01*
X64533921Y-109391670D01*
X64519671Y-109410883D01*
X64503607Y-109428607D01*
X64485883Y-109444671D01*
X64466670Y-109458921D01*
X64446153Y-109471218D01*
X64424529Y-109481446D01*
X64402007Y-109489504D01*
X64378803Y-109495316D01*
X64355142Y-109498826D01*
X64331250Y-109500000D01*
X63843750Y-109500000D01*
X63819858Y-109498826D01*
X63796197Y-109495316D01*
X63772993Y-109489504D01*
X63750471Y-109481446D01*
X63728847Y-109471218D01*
X63708330Y-109458921D01*
X63689117Y-109444671D01*
X63671393Y-109428607D01*
X63655329Y-109410883D01*
X63641079Y-109391670D01*
X63628782Y-109371153D01*
X63618554Y-109349529D01*
X63610496Y-109327007D01*
X63604684Y-109303803D01*
X63601174Y-109280142D01*
X63600000Y-109256250D01*
X63600000Y-108343750D01*
X63601174Y-108319858D01*
X63604684Y-108296197D01*
X63610496Y-108272993D01*
X63618554Y-108250471D01*
X63628782Y-108228847D01*
X63641079Y-108208330D01*
X63655329Y-108189117D01*
X63671393Y-108171393D01*
X63689117Y-108155329D01*
X63708330Y-108141079D01*
X63728847Y-108128782D01*
X63750471Y-108118554D01*
X63772993Y-108110496D01*
X63796197Y-108104684D01*
X63819858Y-108101174D01*
X63843750Y-108100000D01*
X64331250Y-108100000D01*
X64355142Y-108101174D01*
X64355142Y-108101174D01*
G37*
D11*
X64087500Y-108800000D03*
D10*
G36*
X71980142Y-105601174D02*
G01*
X72003803Y-105604684D01*
X72027007Y-105610496D01*
X72049529Y-105618554D01*
X72071153Y-105628782D01*
X72091670Y-105641079D01*
X72110883Y-105655329D01*
X72128607Y-105671393D01*
X72144671Y-105689117D01*
X72158921Y-105708330D01*
X72171218Y-105728847D01*
X72181446Y-105750471D01*
X72189504Y-105772993D01*
X72195316Y-105796197D01*
X72198826Y-105819858D01*
X72200000Y-105843750D01*
X72200000Y-106756250D01*
X72198826Y-106780142D01*
X72195316Y-106803803D01*
X72189504Y-106827007D01*
X72181446Y-106849529D01*
X72171218Y-106871153D01*
X72158921Y-106891670D01*
X72144671Y-106910883D01*
X72128607Y-106928607D01*
X72110883Y-106944671D01*
X72091670Y-106958921D01*
X72071153Y-106971218D01*
X72049529Y-106981446D01*
X72027007Y-106989504D01*
X72003803Y-106995316D01*
X71980142Y-106998826D01*
X71956250Y-107000000D01*
X71468750Y-107000000D01*
X71444858Y-106998826D01*
X71421197Y-106995316D01*
X71397993Y-106989504D01*
X71375471Y-106981446D01*
X71353847Y-106971218D01*
X71333330Y-106958921D01*
X71314117Y-106944671D01*
X71296393Y-106928607D01*
X71280329Y-106910883D01*
X71266079Y-106891670D01*
X71253782Y-106871153D01*
X71243554Y-106849529D01*
X71235496Y-106827007D01*
X71229684Y-106803803D01*
X71226174Y-106780142D01*
X71225000Y-106756250D01*
X71225000Y-105843750D01*
X71226174Y-105819858D01*
X71229684Y-105796197D01*
X71235496Y-105772993D01*
X71243554Y-105750471D01*
X71253782Y-105728847D01*
X71266079Y-105708330D01*
X71280329Y-105689117D01*
X71296393Y-105671393D01*
X71314117Y-105655329D01*
X71333330Y-105641079D01*
X71353847Y-105628782D01*
X71375471Y-105618554D01*
X71397993Y-105610496D01*
X71421197Y-105604684D01*
X71444858Y-105601174D01*
X71468750Y-105600000D01*
X71956250Y-105600000D01*
X71980142Y-105601174D01*
X71980142Y-105601174D01*
G37*
D11*
X71712500Y-106300000D03*
D10*
G36*
X73855142Y-105601174D02*
G01*
X73878803Y-105604684D01*
X73902007Y-105610496D01*
X73924529Y-105618554D01*
X73946153Y-105628782D01*
X73966670Y-105641079D01*
X73985883Y-105655329D01*
X74003607Y-105671393D01*
X74019671Y-105689117D01*
X74033921Y-105708330D01*
X74046218Y-105728847D01*
X74056446Y-105750471D01*
X74064504Y-105772993D01*
X74070316Y-105796197D01*
X74073826Y-105819858D01*
X74075000Y-105843750D01*
X74075000Y-106756250D01*
X74073826Y-106780142D01*
X74070316Y-106803803D01*
X74064504Y-106827007D01*
X74056446Y-106849529D01*
X74046218Y-106871153D01*
X74033921Y-106891670D01*
X74019671Y-106910883D01*
X74003607Y-106928607D01*
X73985883Y-106944671D01*
X73966670Y-106958921D01*
X73946153Y-106971218D01*
X73924529Y-106981446D01*
X73902007Y-106989504D01*
X73878803Y-106995316D01*
X73855142Y-106998826D01*
X73831250Y-107000000D01*
X73343750Y-107000000D01*
X73319858Y-106998826D01*
X73296197Y-106995316D01*
X73272993Y-106989504D01*
X73250471Y-106981446D01*
X73228847Y-106971218D01*
X73208330Y-106958921D01*
X73189117Y-106944671D01*
X73171393Y-106928607D01*
X73155329Y-106910883D01*
X73141079Y-106891670D01*
X73128782Y-106871153D01*
X73118554Y-106849529D01*
X73110496Y-106827007D01*
X73104684Y-106803803D01*
X73101174Y-106780142D01*
X73100000Y-106756250D01*
X73100000Y-105843750D01*
X73101174Y-105819858D01*
X73104684Y-105796197D01*
X73110496Y-105772993D01*
X73118554Y-105750471D01*
X73128782Y-105728847D01*
X73141079Y-105708330D01*
X73155329Y-105689117D01*
X73171393Y-105671393D01*
X73189117Y-105655329D01*
X73208330Y-105641079D01*
X73228847Y-105628782D01*
X73250471Y-105618554D01*
X73272993Y-105610496D01*
X73296197Y-105604684D01*
X73319858Y-105601174D01*
X73343750Y-105600000D01*
X73831250Y-105600000D01*
X73855142Y-105601174D01*
X73855142Y-105601174D01*
G37*
D11*
X73587500Y-106300000D03*
D15*
X67600000Y-100050000D03*
X67600000Y-101000000D03*
X67600000Y-101950000D03*
X69800000Y-101950000D03*
X69800000Y-100050000D03*
D16*
X79450000Y-95400000D03*
D17*
X76910000Y-95400000D03*
X74370000Y-95400000D03*
X71830000Y-95400000D03*
X69290000Y-95400000D03*
X66750000Y-95400000D03*
D18*
X62600000Y-102850000D03*
X63550000Y-102850000D03*
X64500000Y-102850000D03*
X64500000Y-100650000D03*
X62600000Y-100650000D03*
X63550000Y-100650000D03*
D19*
X62200000Y-94400000D03*
X62200000Y-96300000D03*
X64200000Y-95350000D03*
X77850000Y-103300000D03*
X75850000Y-104250000D03*
X75850000Y-102350000D03*
D20*
X79800000Y-100375000D03*
X79800000Y-98225000D03*
X75300000Y-98225000D03*
X75300000Y-100375000D03*
X79800000Y-106225000D03*
X79800000Y-108375000D03*
X75300000Y-108375000D03*
X75300000Y-106225000D03*
D10*
G36*
X80080142Y-101876174D02*
G01*
X80103803Y-101879684D01*
X80127007Y-101885496D01*
X80149529Y-101893554D01*
X80171153Y-101903782D01*
X80191670Y-101916079D01*
X80210883Y-101930329D01*
X80228607Y-101946393D01*
X80244671Y-101964117D01*
X80258921Y-101983330D01*
X80271218Y-102003847D01*
X80281446Y-102025471D01*
X80289504Y-102047993D01*
X80295316Y-102071197D01*
X80298826Y-102094858D01*
X80300000Y-102118750D01*
X80300000Y-102606250D01*
X80298826Y-102630142D01*
X80295316Y-102653803D01*
X80289504Y-102677007D01*
X80281446Y-102699529D01*
X80271218Y-102721153D01*
X80258921Y-102741670D01*
X80244671Y-102760883D01*
X80228607Y-102778607D01*
X80210883Y-102794671D01*
X80191670Y-102808921D01*
X80171153Y-102821218D01*
X80149529Y-102831446D01*
X80127007Y-102839504D01*
X80103803Y-102845316D01*
X80080142Y-102848826D01*
X80056250Y-102850000D01*
X79143750Y-102850000D01*
X79119858Y-102848826D01*
X79096197Y-102845316D01*
X79072993Y-102839504D01*
X79050471Y-102831446D01*
X79028847Y-102821218D01*
X79008330Y-102808921D01*
X78989117Y-102794671D01*
X78971393Y-102778607D01*
X78955329Y-102760883D01*
X78941079Y-102741670D01*
X78928782Y-102721153D01*
X78918554Y-102699529D01*
X78910496Y-102677007D01*
X78904684Y-102653803D01*
X78901174Y-102630142D01*
X78900000Y-102606250D01*
X78900000Y-102118750D01*
X78901174Y-102094858D01*
X78904684Y-102071197D01*
X78910496Y-102047993D01*
X78918554Y-102025471D01*
X78928782Y-102003847D01*
X78941079Y-101983330D01*
X78955329Y-101964117D01*
X78971393Y-101946393D01*
X78989117Y-101930329D01*
X79008330Y-101916079D01*
X79028847Y-101903782D01*
X79050471Y-101893554D01*
X79072993Y-101885496D01*
X79096197Y-101879684D01*
X79119858Y-101876174D01*
X79143750Y-101875000D01*
X80056250Y-101875000D01*
X80080142Y-101876174D01*
X80080142Y-101876174D01*
G37*
D11*
X79600000Y-102362500D03*
D10*
G36*
X80080142Y-103751174D02*
G01*
X80103803Y-103754684D01*
X80127007Y-103760496D01*
X80149529Y-103768554D01*
X80171153Y-103778782D01*
X80191670Y-103791079D01*
X80210883Y-103805329D01*
X80228607Y-103821393D01*
X80244671Y-103839117D01*
X80258921Y-103858330D01*
X80271218Y-103878847D01*
X80281446Y-103900471D01*
X80289504Y-103922993D01*
X80295316Y-103946197D01*
X80298826Y-103969858D01*
X80300000Y-103993750D01*
X80300000Y-104481250D01*
X80298826Y-104505142D01*
X80295316Y-104528803D01*
X80289504Y-104552007D01*
X80281446Y-104574529D01*
X80271218Y-104596153D01*
X80258921Y-104616670D01*
X80244671Y-104635883D01*
X80228607Y-104653607D01*
X80210883Y-104669671D01*
X80191670Y-104683921D01*
X80171153Y-104696218D01*
X80149529Y-104706446D01*
X80127007Y-104714504D01*
X80103803Y-104720316D01*
X80080142Y-104723826D01*
X80056250Y-104725000D01*
X79143750Y-104725000D01*
X79119858Y-104723826D01*
X79096197Y-104720316D01*
X79072993Y-104714504D01*
X79050471Y-104706446D01*
X79028847Y-104696218D01*
X79008330Y-104683921D01*
X78989117Y-104669671D01*
X78971393Y-104653607D01*
X78955329Y-104635883D01*
X78941079Y-104616670D01*
X78928782Y-104596153D01*
X78918554Y-104574529D01*
X78910496Y-104552007D01*
X78904684Y-104528803D01*
X78901174Y-104505142D01*
X78900000Y-104481250D01*
X78900000Y-103993750D01*
X78901174Y-103969858D01*
X78904684Y-103946197D01*
X78910496Y-103922993D01*
X78918554Y-103900471D01*
X78928782Y-103878847D01*
X78941079Y-103858330D01*
X78955329Y-103839117D01*
X78971393Y-103821393D01*
X78989117Y-103805329D01*
X79008330Y-103791079D01*
X79028847Y-103778782D01*
X79050471Y-103768554D01*
X79072993Y-103760496D01*
X79096197Y-103754684D01*
X79119858Y-103751174D01*
X79143750Y-103750000D01*
X80056250Y-103750000D01*
X80080142Y-103751174D01*
X80080142Y-103751174D01*
G37*
D11*
X79600000Y-104237500D03*
D10*
G36*
X68080142Y-97501174D02*
G01*
X68103803Y-97504684D01*
X68127007Y-97510496D01*
X68149529Y-97518554D01*
X68171153Y-97528782D01*
X68191670Y-97541079D01*
X68210883Y-97555329D01*
X68228607Y-97571393D01*
X68244671Y-97589117D01*
X68258921Y-97608330D01*
X68271218Y-97628847D01*
X68281446Y-97650471D01*
X68289504Y-97672993D01*
X68295316Y-97696197D01*
X68298826Y-97719858D01*
X68300000Y-97743750D01*
X68300000Y-98656250D01*
X68298826Y-98680142D01*
X68295316Y-98703803D01*
X68289504Y-98727007D01*
X68281446Y-98749529D01*
X68271218Y-98771153D01*
X68258921Y-98791670D01*
X68244671Y-98810883D01*
X68228607Y-98828607D01*
X68210883Y-98844671D01*
X68191670Y-98858921D01*
X68171153Y-98871218D01*
X68149529Y-98881446D01*
X68127007Y-98889504D01*
X68103803Y-98895316D01*
X68080142Y-98898826D01*
X68056250Y-98900000D01*
X67568750Y-98900000D01*
X67544858Y-98898826D01*
X67521197Y-98895316D01*
X67497993Y-98889504D01*
X67475471Y-98881446D01*
X67453847Y-98871218D01*
X67433330Y-98858921D01*
X67414117Y-98844671D01*
X67396393Y-98828607D01*
X67380329Y-98810883D01*
X67366079Y-98791670D01*
X67353782Y-98771153D01*
X67343554Y-98749529D01*
X67335496Y-98727007D01*
X67329684Y-98703803D01*
X67326174Y-98680142D01*
X67325000Y-98656250D01*
X67325000Y-97743750D01*
X67326174Y-97719858D01*
X67329684Y-97696197D01*
X67335496Y-97672993D01*
X67343554Y-97650471D01*
X67353782Y-97628847D01*
X67366079Y-97608330D01*
X67380329Y-97589117D01*
X67396393Y-97571393D01*
X67414117Y-97555329D01*
X67433330Y-97541079D01*
X67453847Y-97528782D01*
X67475471Y-97518554D01*
X67497993Y-97510496D01*
X67521197Y-97504684D01*
X67544858Y-97501174D01*
X67568750Y-97500000D01*
X68056250Y-97500000D01*
X68080142Y-97501174D01*
X68080142Y-97501174D01*
G37*
D11*
X67812500Y-98200000D03*
D10*
G36*
X69955142Y-97501174D02*
G01*
X69978803Y-97504684D01*
X70002007Y-97510496D01*
X70024529Y-97518554D01*
X70046153Y-97528782D01*
X70066670Y-97541079D01*
X70085883Y-97555329D01*
X70103607Y-97571393D01*
X70119671Y-97589117D01*
X70133921Y-97608330D01*
X70146218Y-97628847D01*
X70156446Y-97650471D01*
X70164504Y-97672993D01*
X70170316Y-97696197D01*
X70173826Y-97719858D01*
X70175000Y-97743750D01*
X70175000Y-98656250D01*
X70173826Y-98680142D01*
X70170316Y-98703803D01*
X70164504Y-98727007D01*
X70156446Y-98749529D01*
X70146218Y-98771153D01*
X70133921Y-98791670D01*
X70119671Y-98810883D01*
X70103607Y-98828607D01*
X70085883Y-98844671D01*
X70066670Y-98858921D01*
X70046153Y-98871218D01*
X70024529Y-98881446D01*
X70002007Y-98889504D01*
X69978803Y-98895316D01*
X69955142Y-98898826D01*
X69931250Y-98900000D01*
X69443750Y-98900000D01*
X69419858Y-98898826D01*
X69396197Y-98895316D01*
X69372993Y-98889504D01*
X69350471Y-98881446D01*
X69328847Y-98871218D01*
X69308330Y-98858921D01*
X69289117Y-98844671D01*
X69271393Y-98828607D01*
X69255329Y-98810883D01*
X69241079Y-98791670D01*
X69228782Y-98771153D01*
X69218554Y-98749529D01*
X69210496Y-98727007D01*
X69204684Y-98703803D01*
X69201174Y-98680142D01*
X69200000Y-98656250D01*
X69200000Y-97743750D01*
X69201174Y-97719858D01*
X69204684Y-97696197D01*
X69210496Y-97672993D01*
X69218554Y-97650471D01*
X69228782Y-97628847D01*
X69241079Y-97608330D01*
X69255329Y-97589117D01*
X69271393Y-97571393D01*
X69289117Y-97555329D01*
X69308330Y-97541079D01*
X69328847Y-97528782D01*
X69350471Y-97518554D01*
X69372993Y-97510496D01*
X69396197Y-97504684D01*
X69419858Y-97501174D01*
X69443750Y-97500000D01*
X69931250Y-97500000D01*
X69955142Y-97501174D01*
X69955142Y-97501174D01*
G37*
D11*
X69687500Y-98200000D03*
D10*
G36*
X73855142Y-99601174D02*
G01*
X73878803Y-99604684D01*
X73902007Y-99610496D01*
X73924529Y-99618554D01*
X73946153Y-99628782D01*
X73966670Y-99641079D01*
X73985883Y-99655329D01*
X74003607Y-99671393D01*
X74019671Y-99689117D01*
X74033921Y-99708330D01*
X74046218Y-99728847D01*
X74056446Y-99750471D01*
X74064504Y-99772993D01*
X74070316Y-99796197D01*
X74073826Y-99819858D01*
X74075000Y-99843750D01*
X74075000Y-100756250D01*
X74073826Y-100780142D01*
X74070316Y-100803803D01*
X74064504Y-100827007D01*
X74056446Y-100849529D01*
X74046218Y-100871153D01*
X74033921Y-100891670D01*
X74019671Y-100910883D01*
X74003607Y-100928607D01*
X73985883Y-100944671D01*
X73966670Y-100958921D01*
X73946153Y-100971218D01*
X73924529Y-100981446D01*
X73902007Y-100989504D01*
X73878803Y-100995316D01*
X73855142Y-100998826D01*
X73831250Y-101000000D01*
X73343750Y-101000000D01*
X73319858Y-100998826D01*
X73296197Y-100995316D01*
X73272993Y-100989504D01*
X73250471Y-100981446D01*
X73228847Y-100971218D01*
X73208330Y-100958921D01*
X73189117Y-100944671D01*
X73171393Y-100928607D01*
X73155329Y-100910883D01*
X73141079Y-100891670D01*
X73128782Y-100871153D01*
X73118554Y-100849529D01*
X73110496Y-100827007D01*
X73104684Y-100803803D01*
X73101174Y-100780142D01*
X73100000Y-100756250D01*
X73100000Y-99843750D01*
X73101174Y-99819858D01*
X73104684Y-99796197D01*
X73110496Y-99772993D01*
X73118554Y-99750471D01*
X73128782Y-99728847D01*
X73141079Y-99708330D01*
X73155329Y-99689117D01*
X73171393Y-99671393D01*
X73189117Y-99655329D01*
X73208330Y-99641079D01*
X73228847Y-99628782D01*
X73250471Y-99618554D01*
X73272993Y-99610496D01*
X73296197Y-99604684D01*
X73319858Y-99601174D01*
X73343750Y-99600000D01*
X73831250Y-99600000D01*
X73855142Y-99601174D01*
X73855142Y-99601174D01*
G37*
D11*
X73587500Y-100300000D03*
D10*
G36*
X71980142Y-99601174D02*
G01*
X72003803Y-99604684D01*
X72027007Y-99610496D01*
X72049529Y-99618554D01*
X72071153Y-99628782D01*
X72091670Y-99641079D01*
X72110883Y-99655329D01*
X72128607Y-99671393D01*
X72144671Y-99689117D01*
X72158921Y-99708330D01*
X72171218Y-99728847D01*
X72181446Y-99750471D01*
X72189504Y-99772993D01*
X72195316Y-99796197D01*
X72198826Y-99819858D01*
X72200000Y-99843750D01*
X72200000Y-100756250D01*
X72198826Y-100780142D01*
X72195316Y-100803803D01*
X72189504Y-100827007D01*
X72181446Y-100849529D01*
X72171218Y-100871153D01*
X72158921Y-100891670D01*
X72144671Y-100910883D01*
X72128607Y-100928607D01*
X72110883Y-100944671D01*
X72091670Y-100958921D01*
X72071153Y-100971218D01*
X72049529Y-100981446D01*
X72027007Y-100989504D01*
X72003803Y-100995316D01*
X71980142Y-100998826D01*
X71956250Y-101000000D01*
X71468750Y-101000000D01*
X71444858Y-100998826D01*
X71421197Y-100995316D01*
X71397993Y-100989504D01*
X71375471Y-100981446D01*
X71353847Y-100971218D01*
X71333330Y-100958921D01*
X71314117Y-100944671D01*
X71296393Y-100928607D01*
X71280329Y-100910883D01*
X71266079Y-100891670D01*
X71253782Y-100871153D01*
X71243554Y-100849529D01*
X71235496Y-100827007D01*
X71229684Y-100803803D01*
X71226174Y-100780142D01*
X71225000Y-100756250D01*
X71225000Y-99843750D01*
X71226174Y-99819858D01*
X71229684Y-99796197D01*
X71235496Y-99772993D01*
X71243554Y-99750471D01*
X71253782Y-99728847D01*
X71266079Y-99708330D01*
X71280329Y-99689117D01*
X71296393Y-99671393D01*
X71314117Y-99655329D01*
X71333330Y-99641079D01*
X71353847Y-99628782D01*
X71375471Y-99618554D01*
X71397993Y-99610496D01*
X71421197Y-99604684D01*
X71444858Y-99601174D01*
X71468750Y-99600000D01*
X71956250Y-99600000D01*
X71980142Y-99601174D01*
X71980142Y-99601174D01*
G37*
D11*
X71712500Y-100300000D03*
D10*
G36*
X64355142Y-106001174D02*
G01*
X64378803Y-106004684D01*
X64402007Y-106010496D01*
X64424529Y-106018554D01*
X64446153Y-106028782D01*
X64466670Y-106041079D01*
X64485883Y-106055329D01*
X64503607Y-106071393D01*
X64519671Y-106089117D01*
X64533921Y-106108330D01*
X64546218Y-106128847D01*
X64556446Y-106150471D01*
X64564504Y-106172993D01*
X64570316Y-106196197D01*
X64573826Y-106219858D01*
X64575000Y-106243750D01*
X64575000Y-107156250D01*
X64573826Y-107180142D01*
X64570316Y-107203803D01*
X64564504Y-107227007D01*
X64556446Y-107249529D01*
X64546218Y-107271153D01*
X64533921Y-107291670D01*
X64519671Y-107310883D01*
X64503607Y-107328607D01*
X64485883Y-107344671D01*
X64466670Y-107358921D01*
X64446153Y-107371218D01*
X64424529Y-107381446D01*
X64402007Y-107389504D01*
X64378803Y-107395316D01*
X64355142Y-107398826D01*
X64331250Y-107400000D01*
X63843750Y-107400000D01*
X63819858Y-107398826D01*
X63796197Y-107395316D01*
X63772993Y-107389504D01*
X63750471Y-107381446D01*
X63728847Y-107371218D01*
X63708330Y-107358921D01*
X63689117Y-107344671D01*
X63671393Y-107328607D01*
X63655329Y-107310883D01*
X63641079Y-107291670D01*
X63628782Y-107271153D01*
X63618554Y-107249529D01*
X63610496Y-107227007D01*
X63604684Y-107203803D01*
X63601174Y-107180142D01*
X63600000Y-107156250D01*
X63600000Y-106243750D01*
X63601174Y-106219858D01*
X63604684Y-106196197D01*
X63610496Y-106172993D01*
X63618554Y-106150471D01*
X63628782Y-106128847D01*
X63641079Y-106108330D01*
X63655329Y-106089117D01*
X63671393Y-106071393D01*
X63689117Y-106055329D01*
X63708330Y-106041079D01*
X63728847Y-106028782D01*
X63750471Y-106018554D01*
X63772993Y-106010496D01*
X63796197Y-106004684D01*
X63819858Y-106001174D01*
X63843750Y-106000000D01*
X64331250Y-106000000D01*
X64355142Y-106001174D01*
X64355142Y-106001174D01*
G37*
D11*
X64087500Y-106700000D03*
D10*
G36*
X62480142Y-106001174D02*
G01*
X62503803Y-106004684D01*
X62527007Y-106010496D01*
X62549529Y-106018554D01*
X62571153Y-106028782D01*
X62591670Y-106041079D01*
X62610883Y-106055329D01*
X62628607Y-106071393D01*
X62644671Y-106089117D01*
X62658921Y-106108330D01*
X62671218Y-106128847D01*
X62681446Y-106150471D01*
X62689504Y-106172993D01*
X62695316Y-106196197D01*
X62698826Y-106219858D01*
X62700000Y-106243750D01*
X62700000Y-107156250D01*
X62698826Y-107180142D01*
X62695316Y-107203803D01*
X62689504Y-107227007D01*
X62681446Y-107249529D01*
X62671218Y-107271153D01*
X62658921Y-107291670D01*
X62644671Y-107310883D01*
X62628607Y-107328607D01*
X62610883Y-107344671D01*
X62591670Y-107358921D01*
X62571153Y-107371218D01*
X62549529Y-107381446D01*
X62527007Y-107389504D01*
X62503803Y-107395316D01*
X62480142Y-107398826D01*
X62456250Y-107400000D01*
X61968750Y-107400000D01*
X61944858Y-107398826D01*
X61921197Y-107395316D01*
X61897993Y-107389504D01*
X61875471Y-107381446D01*
X61853847Y-107371218D01*
X61833330Y-107358921D01*
X61814117Y-107344671D01*
X61796393Y-107328607D01*
X61780329Y-107310883D01*
X61766079Y-107291670D01*
X61753782Y-107271153D01*
X61743554Y-107249529D01*
X61735496Y-107227007D01*
X61729684Y-107203803D01*
X61726174Y-107180142D01*
X61725000Y-107156250D01*
X61725000Y-106243750D01*
X61726174Y-106219858D01*
X61729684Y-106196197D01*
X61735496Y-106172993D01*
X61743554Y-106150471D01*
X61753782Y-106128847D01*
X61766079Y-106108330D01*
X61780329Y-106089117D01*
X61796393Y-106071393D01*
X61814117Y-106055329D01*
X61833330Y-106041079D01*
X61853847Y-106028782D01*
X61875471Y-106018554D01*
X61897993Y-106010496D01*
X61921197Y-106004684D01*
X61944858Y-106001174D01*
X61968750Y-106000000D01*
X62456250Y-106000000D01*
X62480142Y-106001174D01*
X62480142Y-106001174D01*
G37*
D11*
X62212500Y-106700000D03*
D10*
G36*
X73855142Y-107651174D02*
G01*
X73878803Y-107654684D01*
X73902007Y-107660496D01*
X73924529Y-107668554D01*
X73946153Y-107678782D01*
X73966670Y-107691079D01*
X73985883Y-107705329D01*
X74003607Y-107721393D01*
X74019671Y-107739117D01*
X74033921Y-107758330D01*
X74046218Y-107778847D01*
X74056446Y-107800471D01*
X74064504Y-107822993D01*
X74070316Y-107846197D01*
X74073826Y-107869858D01*
X74075000Y-107893750D01*
X74075000Y-108806250D01*
X74073826Y-108830142D01*
X74070316Y-108853803D01*
X74064504Y-108877007D01*
X74056446Y-108899529D01*
X74046218Y-108921153D01*
X74033921Y-108941670D01*
X74019671Y-108960883D01*
X74003607Y-108978607D01*
X73985883Y-108994671D01*
X73966670Y-109008921D01*
X73946153Y-109021218D01*
X73924529Y-109031446D01*
X73902007Y-109039504D01*
X73878803Y-109045316D01*
X73855142Y-109048826D01*
X73831250Y-109050000D01*
X73343750Y-109050000D01*
X73319858Y-109048826D01*
X73296197Y-109045316D01*
X73272993Y-109039504D01*
X73250471Y-109031446D01*
X73228847Y-109021218D01*
X73208330Y-109008921D01*
X73189117Y-108994671D01*
X73171393Y-108978607D01*
X73155329Y-108960883D01*
X73141079Y-108941670D01*
X73128782Y-108921153D01*
X73118554Y-108899529D01*
X73110496Y-108877007D01*
X73104684Y-108853803D01*
X73101174Y-108830142D01*
X73100000Y-108806250D01*
X73100000Y-107893750D01*
X73101174Y-107869858D01*
X73104684Y-107846197D01*
X73110496Y-107822993D01*
X73118554Y-107800471D01*
X73128782Y-107778847D01*
X73141079Y-107758330D01*
X73155329Y-107739117D01*
X73171393Y-107721393D01*
X73189117Y-107705329D01*
X73208330Y-107691079D01*
X73228847Y-107678782D01*
X73250471Y-107668554D01*
X73272993Y-107660496D01*
X73296197Y-107654684D01*
X73319858Y-107651174D01*
X73343750Y-107650000D01*
X73831250Y-107650000D01*
X73855142Y-107651174D01*
X73855142Y-107651174D01*
G37*
D11*
X73587500Y-108350000D03*
D10*
G36*
X71980142Y-107651174D02*
G01*
X72003803Y-107654684D01*
X72027007Y-107660496D01*
X72049529Y-107668554D01*
X72071153Y-107678782D01*
X72091670Y-107691079D01*
X72110883Y-107705329D01*
X72128607Y-107721393D01*
X72144671Y-107739117D01*
X72158921Y-107758330D01*
X72171218Y-107778847D01*
X72181446Y-107800471D01*
X72189504Y-107822993D01*
X72195316Y-107846197D01*
X72198826Y-107869858D01*
X72200000Y-107893750D01*
X72200000Y-108806250D01*
X72198826Y-108830142D01*
X72195316Y-108853803D01*
X72189504Y-108877007D01*
X72181446Y-108899529D01*
X72171218Y-108921153D01*
X72158921Y-108941670D01*
X72144671Y-108960883D01*
X72128607Y-108978607D01*
X72110883Y-108994671D01*
X72091670Y-109008921D01*
X72071153Y-109021218D01*
X72049529Y-109031446D01*
X72027007Y-109039504D01*
X72003803Y-109045316D01*
X71980142Y-109048826D01*
X71956250Y-109050000D01*
X71468750Y-109050000D01*
X71444858Y-109048826D01*
X71421197Y-109045316D01*
X71397993Y-109039504D01*
X71375471Y-109031446D01*
X71353847Y-109021218D01*
X71333330Y-109008921D01*
X71314117Y-108994671D01*
X71296393Y-108978607D01*
X71280329Y-108960883D01*
X71266079Y-108941670D01*
X71253782Y-108921153D01*
X71243554Y-108899529D01*
X71235496Y-108877007D01*
X71229684Y-108853803D01*
X71226174Y-108830142D01*
X71225000Y-108806250D01*
X71225000Y-107893750D01*
X71226174Y-107869858D01*
X71229684Y-107846197D01*
X71235496Y-107822993D01*
X71243554Y-107800471D01*
X71253782Y-107778847D01*
X71266079Y-107758330D01*
X71280329Y-107739117D01*
X71296393Y-107721393D01*
X71314117Y-107705329D01*
X71333330Y-107691079D01*
X71353847Y-107678782D01*
X71375471Y-107668554D01*
X71397993Y-107660496D01*
X71421197Y-107654684D01*
X71444858Y-107651174D01*
X71468750Y-107650000D01*
X71956250Y-107650000D01*
X71980142Y-107651174D01*
X71980142Y-107651174D01*
G37*
D11*
X71712500Y-108350000D03*
D10*
G36*
X71980142Y-101601174D02*
G01*
X72003803Y-101604684D01*
X72027007Y-101610496D01*
X72049529Y-101618554D01*
X72071153Y-101628782D01*
X72091670Y-101641079D01*
X72110883Y-101655329D01*
X72128607Y-101671393D01*
X72144671Y-101689117D01*
X72158921Y-101708330D01*
X72171218Y-101728847D01*
X72181446Y-101750471D01*
X72189504Y-101772993D01*
X72195316Y-101796197D01*
X72198826Y-101819858D01*
X72200000Y-101843750D01*
X72200000Y-102756250D01*
X72198826Y-102780142D01*
X72195316Y-102803803D01*
X72189504Y-102827007D01*
X72181446Y-102849529D01*
X72171218Y-102871153D01*
X72158921Y-102891670D01*
X72144671Y-102910883D01*
X72128607Y-102928607D01*
X72110883Y-102944671D01*
X72091670Y-102958921D01*
X72071153Y-102971218D01*
X72049529Y-102981446D01*
X72027007Y-102989504D01*
X72003803Y-102995316D01*
X71980142Y-102998826D01*
X71956250Y-103000000D01*
X71468750Y-103000000D01*
X71444858Y-102998826D01*
X71421197Y-102995316D01*
X71397993Y-102989504D01*
X71375471Y-102981446D01*
X71353847Y-102971218D01*
X71333330Y-102958921D01*
X71314117Y-102944671D01*
X71296393Y-102928607D01*
X71280329Y-102910883D01*
X71266079Y-102891670D01*
X71253782Y-102871153D01*
X71243554Y-102849529D01*
X71235496Y-102827007D01*
X71229684Y-102803803D01*
X71226174Y-102780142D01*
X71225000Y-102756250D01*
X71225000Y-101843750D01*
X71226174Y-101819858D01*
X71229684Y-101796197D01*
X71235496Y-101772993D01*
X71243554Y-101750471D01*
X71253782Y-101728847D01*
X71266079Y-101708330D01*
X71280329Y-101689117D01*
X71296393Y-101671393D01*
X71314117Y-101655329D01*
X71333330Y-101641079D01*
X71353847Y-101628782D01*
X71375471Y-101618554D01*
X71397993Y-101610496D01*
X71421197Y-101604684D01*
X71444858Y-101601174D01*
X71468750Y-101600000D01*
X71956250Y-101600000D01*
X71980142Y-101601174D01*
X71980142Y-101601174D01*
G37*
D11*
X71712500Y-102300000D03*
D10*
G36*
X73855142Y-101601174D02*
G01*
X73878803Y-101604684D01*
X73902007Y-101610496D01*
X73924529Y-101618554D01*
X73946153Y-101628782D01*
X73966670Y-101641079D01*
X73985883Y-101655329D01*
X74003607Y-101671393D01*
X74019671Y-101689117D01*
X74033921Y-101708330D01*
X74046218Y-101728847D01*
X74056446Y-101750471D01*
X74064504Y-101772993D01*
X74070316Y-101796197D01*
X74073826Y-101819858D01*
X74075000Y-101843750D01*
X74075000Y-102756250D01*
X74073826Y-102780142D01*
X74070316Y-102803803D01*
X74064504Y-102827007D01*
X74056446Y-102849529D01*
X74046218Y-102871153D01*
X74033921Y-102891670D01*
X74019671Y-102910883D01*
X74003607Y-102928607D01*
X73985883Y-102944671D01*
X73966670Y-102958921D01*
X73946153Y-102971218D01*
X73924529Y-102981446D01*
X73902007Y-102989504D01*
X73878803Y-102995316D01*
X73855142Y-102998826D01*
X73831250Y-103000000D01*
X73343750Y-103000000D01*
X73319858Y-102998826D01*
X73296197Y-102995316D01*
X73272993Y-102989504D01*
X73250471Y-102981446D01*
X73228847Y-102971218D01*
X73208330Y-102958921D01*
X73189117Y-102944671D01*
X73171393Y-102928607D01*
X73155329Y-102910883D01*
X73141079Y-102891670D01*
X73128782Y-102871153D01*
X73118554Y-102849529D01*
X73110496Y-102827007D01*
X73104684Y-102803803D01*
X73101174Y-102780142D01*
X73100000Y-102756250D01*
X73100000Y-101843750D01*
X73101174Y-101819858D01*
X73104684Y-101796197D01*
X73110496Y-101772993D01*
X73118554Y-101750471D01*
X73128782Y-101728847D01*
X73141079Y-101708330D01*
X73155329Y-101689117D01*
X73171393Y-101671393D01*
X73189117Y-101655329D01*
X73208330Y-101641079D01*
X73228847Y-101628782D01*
X73250471Y-101618554D01*
X73272993Y-101610496D01*
X73296197Y-101604684D01*
X73319858Y-101601174D01*
X73343750Y-101600000D01*
X73831250Y-101600000D01*
X73855142Y-101601174D01*
X73855142Y-101601174D01*
G37*
D11*
X73587500Y-102300000D03*
D10*
G36*
X71980142Y-103601174D02*
G01*
X72003803Y-103604684D01*
X72027007Y-103610496D01*
X72049529Y-103618554D01*
X72071153Y-103628782D01*
X72091670Y-103641079D01*
X72110883Y-103655329D01*
X72128607Y-103671393D01*
X72144671Y-103689117D01*
X72158921Y-103708330D01*
X72171218Y-103728847D01*
X72181446Y-103750471D01*
X72189504Y-103772993D01*
X72195316Y-103796197D01*
X72198826Y-103819858D01*
X72200000Y-103843750D01*
X72200000Y-104756250D01*
X72198826Y-104780142D01*
X72195316Y-104803803D01*
X72189504Y-104827007D01*
X72181446Y-104849529D01*
X72171218Y-104871153D01*
X72158921Y-104891670D01*
X72144671Y-104910883D01*
X72128607Y-104928607D01*
X72110883Y-104944671D01*
X72091670Y-104958921D01*
X72071153Y-104971218D01*
X72049529Y-104981446D01*
X72027007Y-104989504D01*
X72003803Y-104995316D01*
X71980142Y-104998826D01*
X71956250Y-105000000D01*
X71468750Y-105000000D01*
X71444858Y-104998826D01*
X71421197Y-104995316D01*
X71397993Y-104989504D01*
X71375471Y-104981446D01*
X71353847Y-104971218D01*
X71333330Y-104958921D01*
X71314117Y-104944671D01*
X71296393Y-104928607D01*
X71280329Y-104910883D01*
X71266079Y-104891670D01*
X71253782Y-104871153D01*
X71243554Y-104849529D01*
X71235496Y-104827007D01*
X71229684Y-104803803D01*
X71226174Y-104780142D01*
X71225000Y-104756250D01*
X71225000Y-103843750D01*
X71226174Y-103819858D01*
X71229684Y-103796197D01*
X71235496Y-103772993D01*
X71243554Y-103750471D01*
X71253782Y-103728847D01*
X71266079Y-103708330D01*
X71280329Y-103689117D01*
X71296393Y-103671393D01*
X71314117Y-103655329D01*
X71333330Y-103641079D01*
X71353847Y-103628782D01*
X71375471Y-103618554D01*
X71397993Y-103610496D01*
X71421197Y-103604684D01*
X71444858Y-103601174D01*
X71468750Y-103600000D01*
X71956250Y-103600000D01*
X71980142Y-103601174D01*
X71980142Y-103601174D01*
G37*
D11*
X71712500Y-104300000D03*
D10*
G36*
X73855142Y-103601174D02*
G01*
X73878803Y-103604684D01*
X73902007Y-103610496D01*
X73924529Y-103618554D01*
X73946153Y-103628782D01*
X73966670Y-103641079D01*
X73985883Y-103655329D01*
X74003607Y-103671393D01*
X74019671Y-103689117D01*
X74033921Y-103708330D01*
X74046218Y-103728847D01*
X74056446Y-103750471D01*
X74064504Y-103772993D01*
X74070316Y-103796197D01*
X74073826Y-103819858D01*
X74075000Y-103843750D01*
X74075000Y-104756250D01*
X74073826Y-104780142D01*
X74070316Y-104803803D01*
X74064504Y-104827007D01*
X74056446Y-104849529D01*
X74046218Y-104871153D01*
X74033921Y-104891670D01*
X74019671Y-104910883D01*
X74003607Y-104928607D01*
X73985883Y-104944671D01*
X73966670Y-104958921D01*
X73946153Y-104971218D01*
X73924529Y-104981446D01*
X73902007Y-104989504D01*
X73878803Y-104995316D01*
X73855142Y-104998826D01*
X73831250Y-105000000D01*
X73343750Y-105000000D01*
X73319858Y-104998826D01*
X73296197Y-104995316D01*
X73272993Y-104989504D01*
X73250471Y-104981446D01*
X73228847Y-104971218D01*
X73208330Y-104958921D01*
X73189117Y-104944671D01*
X73171393Y-104928607D01*
X73155329Y-104910883D01*
X73141079Y-104891670D01*
X73128782Y-104871153D01*
X73118554Y-104849529D01*
X73110496Y-104827007D01*
X73104684Y-104803803D01*
X73101174Y-104780142D01*
X73100000Y-104756250D01*
X73100000Y-103843750D01*
X73101174Y-103819858D01*
X73104684Y-103796197D01*
X73110496Y-103772993D01*
X73118554Y-103750471D01*
X73128782Y-103728847D01*
X73141079Y-103708330D01*
X73155329Y-103689117D01*
X73171393Y-103671393D01*
X73189117Y-103655329D01*
X73208330Y-103641079D01*
X73228847Y-103628782D01*
X73250471Y-103618554D01*
X73272993Y-103610496D01*
X73296197Y-103604684D01*
X73319858Y-103601174D01*
X73343750Y-103600000D01*
X73831250Y-103600000D01*
X73855142Y-103601174D01*
X73855142Y-103601174D01*
G37*
D11*
X73587500Y-104300000D03*
D10*
G36*
X71980142Y-97651174D02*
G01*
X72003803Y-97654684D01*
X72027007Y-97660496D01*
X72049529Y-97668554D01*
X72071153Y-97678782D01*
X72091670Y-97691079D01*
X72110883Y-97705329D01*
X72128607Y-97721393D01*
X72144671Y-97739117D01*
X72158921Y-97758330D01*
X72171218Y-97778847D01*
X72181446Y-97800471D01*
X72189504Y-97822993D01*
X72195316Y-97846197D01*
X72198826Y-97869858D01*
X72200000Y-97893750D01*
X72200000Y-98806250D01*
X72198826Y-98830142D01*
X72195316Y-98853803D01*
X72189504Y-98877007D01*
X72181446Y-98899529D01*
X72171218Y-98921153D01*
X72158921Y-98941670D01*
X72144671Y-98960883D01*
X72128607Y-98978607D01*
X72110883Y-98994671D01*
X72091670Y-99008921D01*
X72071153Y-99021218D01*
X72049529Y-99031446D01*
X72027007Y-99039504D01*
X72003803Y-99045316D01*
X71980142Y-99048826D01*
X71956250Y-99050000D01*
X71468750Y-99050000D01*
X71444858Y-99048826D01*
X71421197Y-99045316D01*
X71397993Y-99039504D01*
X71375471Y-99031446D01*
X71353847Y-99021218D01*
X71333330Y-99008921D01*
X71314117Y-98994671D01*
X71296393Y-98978607D01*
X71280329Y-98960883D01*
X71266079Y-98941670D01*
X71253782Y-98921153D01*
X71243554Y-98899529D01*
X71235496Y-98877007D01*
X71229684Y-98853803D01*
X71226174Y-98830142D01*
X71225000Y-98806250D01*
X71225000Y-97893750D01*
X71226174Y-97869858D01*
X71229684Y-97846197D01*
X71235496Y-97822993D01*
X71243554Y-97800471D01*
X71253782Y-97778847D01*
X71266079Y-97758330D01*
X71280329Y-97739117D01*
X71296393Y-97721393D01*
X71314117Y-97705329D01*
X71333330Y-97691079D01*
X71353847Y-97678782D01*
X71375471Y-97668554D01*
X71397993Y-97660496D01*
X71421197Y-97654684D01*
X71444858Y-97651174D01*
X71468750Y-97650000D01*
X71956250Y-97650000D01*
X71980142Y-97651174D01*
X71980142Y-97651174D01*
G37*
D11*
X71712500Y-98350000D03*
D10*
G36*
X73855142Y-97651174D02*
G01*
X73878803Y-97654684D01*
X73902007Y-97660496D01*
X73924529Y-97668554D01*
X73946153Y-97678782D01*
X73966670Y-97691079D01*
X73985883Y-97705329D01*
X74003607Y-97721393D01*
X74019671Y-97739117D01*
X74033921Y-97758330D01*
X74046218Y-97778847D01*
X74056446Y-97800471D01*
X74064504Y-97822993D01*
X74070316Y-97846197D01*
X74073826Y-97869858D01*
X74075000Y-97893750D01*
X74075000Y-98806250D01*
X74073826Y-98830142D01*
X74070316Y-98853803D01*
X74064504Y-98877007D01*
X74056446Y-98899529D01*
X74046218Y-98921153D01*
X74033921Y-98941670D01*
X74019671Y-98960883D01*
X74003607Y-98978607D01*
X73985883Y-98994671D01*
X73966670Y-99008921D01*
X73946153Y-99021218D01*
X73924529Y-99031446D01*
X73902007Y-99039504D01*
X73878803Y-99045316D01*
X73855142Y-99048826D01*
X73831250Y-99050000D01*
X73343750Y-99050000D01*
X73319858Y-99048826D01*
X73296197Y-99045316D01*
X73272993Y-99039504D01*
X73250471Y-99031446D01*
X73228847Y-99021218D01*
X73208330Y-99008921D01*
X73189117Y-98994671D01*
X73171393Y-98978607D01*
X73155329Y-98960883D01*
X73141079Y-98941670D01*
X73128782Y-98921153D01*
X73118554Y-98899529D01*
X73110496Y-98877007D01*
X73104684Y-98853803D01*
X73101174Y-98830142D01*
X73100000Y-98806250D01*
X73100000Y-97893750D01*
X73101174Y-97869858D01*
X73104684Y-97846197D01*
X73110496Y-97822993D01*
X73118554Y-97800471D01*
X73128782Y-97778847D01*
X73141079Y-97758330D01*
X73155329Y-97739117D01*
X73171393Y-97721393D01*
X73189117Y-97705329D01*
X73208330Y-97691079D01*
X73228847Y-97678782D01*
X73250471Y-97668554D01*
X73272993Y-97660496D01*
X73296197Y-97654684D01*
X73319858Y-97651174D01*
X73343750Y-97650000D01*
X73831250Y-97650000D01*
X73855142Y-97651174D01*
X73855142Y-97651174D01*
G37*
D11*
X73587500Y-98350000D03*
D10*
G36*
X62480142Y-104051174D02*
G01*
X62503803Y-104054684D01*
X62527007Y-104060496D01*
X62549529Y-104068554D01*
X62571153Y-104078782D01*
X62591670Y-104091079D01*
X62610883Y-104105329D01*
X62628607Y-104121393D01*
X62644671Y-104139117D01*
X62658921Y-104158330D01*
X62671218Y-104178847D01*
X62681446Y-104200471D01*
X62689504Y-104222993D01*
X62695316Y-104246197D01*
X62698826Y-104269858D01*
X62700000Y-104293750D01*
X62700000Y-105206250D01*
X62698826Y-105230142D01*
X62695316Y-105253803D01*
X62689504Y-105277007D01*
X62681446Y-105299529D01*
X62671218Y-105321153D01*
X62658921Y-105341670D01*
X62644671Y-105360883D01*
X62628607Y-105378607D01*
X62610883Y-105394671D01*
X62591670Y-105408921D01*
X62571153Y-105421218D01*
X62549529Y-105431446D01*
X62527007Y-105439504D01*
X62503803Y-105445316D01*
X62480142Y-105448826D01*
X62456250Y-105450000D01*
X61968750Y-105450000D01*
X61944858Y-105448826D01*
X61921197Y-105445316D01*
X61897993Y-105439504D01*
X61875471Y-105431446D01*
X61853847Y-105421218D01*
X61833330Y-105408921D01*
X61814117Y-105394671D01*
X61796393Y-105378607D01*
X61780329Y-105360883D01*
X61766079Y-105341670D01*
X61753782Y-105321153D01*
X61743554Y-105299529D01*
X61735496Y-105277007D01*
X61729684Y-105253803D01*
X61726174Y-105230142D01*
X61725000Y-105206250D01*
X61725000Y-104293750D01*
X61726174Y-104269858D01*
X61729684Y-104246197D01*
X61735496Y-104222993D01*
X61743554Y-104200471D01*
X61753782Y-104178847D01*
X61766079Y-104158330D01*
X61780329Y-104139117D01*
X61796393Y-104121393D01*
X61814117Y-104105329D01*
X61833330Y-104091079D01*
X61853847Y-104078782D01*
X61875471Y-104068554D01*
X61897993Y-104060496D01*
X61921197Y-104054684D01*
X61944858Y-104051174D01*
X61968750Y-104050000D01*
X62456250Y-104050000D01*
X62480142Y-104051174D01*
X62480142Y-104051174D01*
G37*
D11*
X62212500Y-104750000D03*
D10*
G36*
X64355142Y-104051174D02*
G01*
X64378803Y-104054684D01*
X64402007Y-104060496D01*
X64424529Y-104068554D01*
X64446153Y-104078782D01*
X64466670Y-104091079D01*
X64485883Y-104105329D01*
X64503607Y-104121393D01*
X64519671Y-104139117D01*
X64533921Y-104158330D01*
X64546218Y-104178847D01*
X64556446Y-104200471D01*
X64564504Y-104222993D01*
X64570316Y-104246197D01*
X64573826Y-104269858D01*
X64575000Y-104293750D01*
X64575000Y-105206250D01*
X64573826Y-105230142D01*
X64570316Y-105253803D01*
X64564504Y-105277007D01*
X64556446Y-105299529D01*
X64546218Y-105321153D01*
X64533921Y-105341670D01*
X64519671Y-105360883D01*
X64503607Y-105378607D01*
X64485883Y-105394671D01*
X64466670Y-105408921D01*
X64446153Y-105421218D01*
X64424529Y-105431446D01*
X64402007Y-105439504D01*
X64378803Y-105445316D01*
X64355142Y-105448826D01*
X64331250Y-105450000D01*
X63843750Y-105450000D01*
X63819858Y-105448826D01*
X63796197Y-105445316D01*
X63772993Y-105439504D01*
X63750471Y-105431446D01*
X63728847Y-105421218D01*
X63708330Y-105408921D01*
X63689117Y-105394671D01*
X63671393Y-105378607D01*
X63655329Y-105360883D01*
X63641079Y-105341670D01*
X63628782Y-105321153D01*
X63618554Y-105299529D01*
X63610496Y-105277007D01*
X63604684Y-105253803D01*
X63601174Y-105230142D01*
X63600000Y-105206250D01*
X63600000Y-104293750D01*
X63601174Y-104269858D01*
X63604684Y-104246197D01*
X63610496Y-104222993D01*
X63618554Y-104200471D01*
X63628782Y-104178847D01*
X63641079Y-104158330D01*
X63655329Y-104139117D01*
X63671393Y-104121393D01*
X63689117Y-104105329D01*
X63708330Y-104091079D01*
X63728847Y-104078782D01*
X63750471Y-104068554D01*
X63772993Y-104060496D01*
X63796197Y-104054684D01*
X63819858Y-104051174D01*
X63843750Y-104050000D01*
X64331250Y-104050000D01*
X64355142Y-104051174D01*
X64355142Y-104051174D01*
G37*
D11*
X64087500Y-104750000D03*
D21*
X60425000Y-97900000D03*
X60425000Y-104300000D03*
X60425000Y-98700000D03*
X60425000Y-103500000D03*
D22*
X60425000Y-99350000D03*
X60425000Y-102850000D03*
X60425000Y-99850000D03*
X60425000Y-102350000D03*
X60425000Y-100350000D03*
X60425000Y-101850000D03*
X60425000Y-100850000D03*
X60425000Y-101350000D03*
D23*
X59850000Y-106210000D03*
X59850000Y-95990000D03*
X55920000Y-106210000D03*
X55920000Y-95990000D03*
D24*
X69200000Y-103300000D03*
X76750000Y-106225000D03*
X65550000Y-104300000D03*
X63025000Y-107625000D03*
X58500000Y-103350000D03*
X55900000Y-103350000D03*
X74700000Y-103450000D03*
X74700000Y-105150000D03*
X64050000Y-96950000D03*
X70300000Y-103750000D03*
X76375000Y-107350000D03*
X60550000Y-94050000D03*
X70500000Y-108300000D03*
X77150000Y-104550000D03*
X66750000Y-103600000D03*
X65850000Y-100650000D03*
X63300000Y-99450000D03*
X67950000Y-103500000D03*
D25*
X77850000Y-103300000D02*
X78662500Y-103300000D01*
X78662500Y-103300000D02*
X79600000Y-102362500D01*
X79600000Y-100575000D02*
X79800000Y-100375000D01*
X79600000Y-102362500D02*
X79600000Y-100575000D01*
X79650000Y-100375000D02*
X76375000Y-97100000D01*
X76375000Y-97100000D02*
X73530000Y-97100000D01*
X79800000Y-100375000D02*
X79650000Y-100375000D01*
X77850000Y-102575000D02*
X75650000Y-100375000D01*
X75650000Y-100375000D02*
X75300000Y-100375000D01*
X77850000Y-103300000D02*
X77850000Y-102575000D01*
X73530000Y-97100000D02*
X71830000Y-95400000D01*
X68250000Y-105950000D02*
X67500000Y-106700000D01*
X68250000Y-104762500D02*
X68250000Y-105950000D01*
X68250000Y-104250000D02*
X69200000Y-103300000D01*
X68250000Y-104762500D02*
X68250000Y-104250000D01*
X73712500Y-98225000D02*
X73587500Y-98350000D01*
X75300000Y-98225000D02*
X73712500Y-98225000D01*
X68650000Y-100440002D02*
X68650000Y-99237500D01*
X67600000Y-101000000D02*
X68090002Y-101000000D01*
X68090002Y-101000000D02*
X68650000Y-100440002D01*
X73031263Y-97793763D02*
X73031263Y-97781263D01*
X73587500Y-98350000D02*
X73031263Y-97793763D01*
X73031263Y-97781263D02*
X72450000Y-97200000D01*
X68650000Y-99237500D02*
X69687500Y-98200000D01*
X62062500Y-105200000D02*
X62212500Y-105050000D01*
X61912500Y-104750000D02*
X62212500Y-105050000D01*
X60437500Y-106822500D02*
X59825000Y-106210000D01*
X63550000Y-103412500D02*
X63550000Y-102850000D01*
X62212500Y-104750000D02*
X63550000Y-103412500D01*
X61762500Y-104300000D02*
X62212500Y-104750000D01*
X60400000Y-104300000D02*
X61762500Y-104300000D01*
X60400000Y-105635000D02*
X59825000Y-106210000D01*
X60400000Y-104300000D02*
X60400000Y-105635000D01*
X60400000Y-96565000D02*
X59825000Y-95990000D01*
X60400000Y-97900000D02*
X60400000Y-96565000D01*
X60400000Y-97900000D02*
X61225000Y-97900000D01*
X61225000Y-97900000D02*
X61650000Y-97475000D01*
X60537500Y-106922500D02*
X59825000Y-106210000D01*
X60537500Y-108800000D02*
X60537500Y-106922500D01*
X60465000Y-95375000D02*
X61715000Y-95375000D01*
X59850000Y-95990000D02*
X60465000Y-95375000D01*
X60215000Y-95990000D02*
X61375000Y-97150000D01*
X59850000Y-95990000D02*
X60215000Y-95990000D01*
X61375000Y-97200000D02*
X61650000Y-97475000D01*
X61375000Y-97150000D02*
X61375000Y-97200000D01*
X67600000Y-101950000D02*
X67395000Y-101950000D01*
X67600000Y-98412500D02*
X67812500Y-98200000D01*
X67600000Y-100050000D02*
X67600000Y-98412500D01*
X66650000Y-101800000D02*
X66800000Y-101950000D01*
X66800000Y-101950000D02*
X67600000Y-101950000D01*
X67512500Y-98500000D02*
X67812500Y-98200000D01*
X67362500Y-98650000D02*
X67812500Y-98200000D01*
X65500000Y-98650000D02*
X67362500Y-98650000D01*
X65375000Y-103075000D02*
X66500000Y-101950000D01*
X65375000Y-103415002D02*
X65375000Y-103075000D01*
X64824999Y-103965003D02*
X65375000Y-103415002D01*
X64824999Y-104312501D02*
X64824999Y-103965003D01*
X64087500Y-105050000D02*
X64824999Y-104312501D01*
X66500000Y-101950000D02*
X66820000Y-101950000D01*
X64987500Y-105950000D02*
X64087500Y-105050000D01*
X66820000Y-101950000D02*
X67600000Y-101950000D01*
X65562500Y-105950000D02*
X64987500Y-105950000D01*
X66650000Y-100220000D02*
X66650000Y-101800000D01*
X66820000Y-100050000D02*
X66650000Y-100220000D01*
X67600000Y-100050000D02*
X66820000Y-100050000D01*
X75300000Y-106225000D02*
X76750000Y-106225000D01*
X73020000Y-94050000D02*
X65500000Y-94050000D01*
X65500000Y-94050000D02*
X64200000Y-95350000D01*
X76750000Y-106225000D02*
X79800000Y-106225000D01*
X75225000Y-106225000D02*
X75300000Y-106225000D01*
X74125000Y-107325000D02*
X75225000Y-106225000D01*
X72625000Y-107808150D02*
X73108150Y-107325000D01*
X72625000Y-109100000D02*
X72625000Y-107808150D01*
X72300000Y-109425000D02*
X72625000Y-109100000D01*
X65525000Y-109425000D02*
X72300000Y-109425000D01*
X73108150Y-107325000D02*
X74125000Y-107325000D01*
X64925000Y-108825000D02*
X65525000Y-109425000D01*
X64087500Y-108825000D02*
X64925000Y-108825000D01*
X73020000Y-94050000D02*
X74370000Y-95400000D01*
X66750000Y-104762500D02*
X66250000Y-104762500D01*
X71712500Y-98350000D02*
X71712500Y-100300000D01*
X65562500Y-104762500D02*
X65562500Y-104187500D01*
X68700000Y-102300000D02*
X68450000Y-102550000D01*
X68450000Y-102550000D02*
X68440002Y-102550000D01*
X68700000Y-101450000D02*
X68700000Y-102300000D01*
X69800000Y-100350000D02*
X68700000Y-101450000D01*
X69800000Y-100050000D02*
X69800000Y-100350000D01*
X65562500Y-105012500D02*
X65812500Y-104762500D01*
X65812500Y-104762500D02*
X65562500Y-104762500D01*
X66250000Y-104762500D02*
X65812500Y-104762500D01*
X71462500Y-100050000D02*
X71712500Y-100300000D01*
X69800000Y-100050000D02*
X71462500Y-100050000D01*
X65562500Y-105450000D02*
X65562500Y-105087500D01*
X65562500Y-105087500D02*
X65562500Y-105012500D01*
X65562500Y-105087500D02*
X65562500Y-104762500D01*
X62212500Y-106700000D02*
X62212500Y-106887500D01*
X62212500Y-106812500D02*
X63025000Y-107625000D01*
X62212500Y-106700000D02*
X62212500Y-106812500D01*
X65962499Y-103887501D02*
X65550000Y-104300000D01*
X65962499Y-103314499D02*
X65962499Y-103887501D01*
X68250000Y-102750000D02*
X66526998Y-102750000D01*
X66526998Y-102750000D02*
X65962499Y-103314499D01*
X68450000Y-102550000D02*
X68250000Y-102750000D01*
X62900000Y-98650000D02*
X62200000Y-98650000D01*
X64200000Y-98950000D02*
X63900000Y-98650000D01*
X63900000Y-98650000D02*
X62900000Y-98650000D01*
X63550000Y-100650000D02*
X63550000Y-100273002D01*
X64200000Y-99623002D02*
X64200000Y-98950000D01*
X63550000Y-100273002D02*
X64200000Y-99623002D01*
X62150000Y-98700000D02*
X62200000Y-98650000D01*
X60400000Y-98700000D02*
X62150000Y-98700000D01*
X59075686Y-103339999D02*
X59701001Y-103339999D01*
X59065685Y-103350000D02*
X59075686Y-103339999D01*
X58500000Y-103350000D02*
X59065685Y-103350000D01*
X59861002Y-103500000D02*
X60400000Y-103500000D01*
X59701001Y-103339999D02*
X59861002Y-103500000D01*
X59239999Y-98860001D02*
X55900000Y-102200000D01*
X55900000Y-102200000D02*
X55900000Y-103350000D01*
X59861002Y-98700000D02*
X59701001Y-98860001D01*
X59701001Y-98860001D02*
X59239999Y-98860001D01*
X60400000Y-98700000D02*
X59861002Y-98700000D01*
X74175000Y-104300000D02*
X74700000Y-103775000D01*
X74700000Y-103775000D02*
X74700000Y-103450000D01*
X74175000Y-104300000D02*
X73587500Y-104300000D01*
X74700000Y-105150000D02*
X74750000Y-105100000D01*
X74700000Y-105187500D02*
X73587500Y-106300000D01*
X74700000Y-105150000D02*
X74700000Y-105187500D01*
X70300000Y-105600000D02*
X70300000Y-103750000D01*
X69950000Y-105950000D02*
X70300000Y-105600000D01*
X69437500Y-105950000D02*
X69950000Y-105950000D01*
X62500000Y-96300000D02*
X63150000Y-96950000D01*
X62200000Y-96300000D02*
X62500000Y-96300000D01*
X70300000Y-103712500D02*
X71712500Y-102300000D01*
X70300000Y-103750000D02*
X70300000Y-103712500D01*
X63150000Y-96950000D02*
X64050000Y-96950000D01*
X61950000Y-94150000D02*
X62200000Y-94400000D01*
X61850000Y-94050000D02*
X62200000Y-94400000D01*
X60550000Y-94050000D02*
X61850000Y-94050000D01*
X74768762Y-107500000D02*
X73918762Y-108350000D01*
X73918762Y-108350000D02*
X73587500Y-108350000D01*
X76225000Y-107500000D02*
X74768762Y-107500000D01*
X76375000Y-107350000D02*
X76225000Y-107500000D01*
X69437500Y-107950000D02*
X69950000Y-107950000D01*
X69950000Y-107950000D02*
X70100000Y-107950000D01*
X70100000Y-107950000D02*
X70150000Y-107950000D01*
X70150000Y-107950000D02*
X70500000Y-108300000D01*
X76850000Y-104250000D02*
X77150000Y-104550000D01*
X75850000Y-104250000D02*
X76850000Y-104250000D01*
X71662500Y-108300000D02*
X71712500Y-108350000D01*
X70500000Y-108300000D02*
X71662500Y-108300000D01*
X65562500Y-106450000D02*
X64687500Y-106450000D01*
X64687500Y-106450000D02*
X64087500Y-107050000D01*
X70200000Y-106950000D02*
X69437500Y-106950000D01*
X70750000Y-104950000D02*
X70750000Y-106400000D01*
X70750000Y-106400000D02*
X70200000Y-106950000D01*
X71400000Y-104300000D02*
X70750000Y-104950000D01*
X71712500Y-104300000D02*
X71400000Y-104300000D01*
X70562500Y-107450000D02*
X71712500Y-106300000D01*
X69437500Y-107450000D02*
X70562500Y-107450000D01*
X67250000Y-104273002D02*
X66750000Y-103773002D01*
X67250000Y-104762500D02*
X67250000Y-104273002D01*
X66750000Y-103773002D02*
X66750000Y-103600000D01*
X64500000Y-100650000D02*
X65850000Y-100650000D01*
X67750000Y-103700000D02*
X67950000Y-103500000D01*
X67750000Y-104762500D02*
X67750000Y-103700000D01*
X62600000Y-100150000D02*
X63300000Y-99450000D01*
X62600000Y-100650000D02*
X62600000Y-100150000D01*
X75800000Y-102300000D02*
X75850000Y-102350000D01*
X73587500Y-102300000D02*
X75800000Y-102300000D01*
X60400000Y-102850000D02*
X59300000Y-102850000D01*
X59300000Y-102850000D02*
X58900000Y-102450000D01*
X58900000Y-102450000D02*
X58200000Y-102450000D01*
X57774999Y-102875001D02*
X57774999Y-104224999D01*
X58200000Y-102450000D02*
X57774999Y-102875001D01*
X57774999Y-104224999D02*
X58200000Y-104650000D01*
X58200000Y-107537500D02*
X58662500Y-108000000D01*
X58200000Y-104650000D02*
X58200000Y-107537500D01*
X58662500Y-108000000D02*
X58662500Y-108800000D01*
X57150000Y-104500000D02*
X57550000Y-104900000D01*
X57150000Y-101975000D02*
X57150000Y-104500000D01*
X57550000Y-104900000D02*
X57550000Y-108237500D01*
X59275000Y-99850000D02*
X57150000Y-101975000D01*
X60400000Y-99850000D02*
X59275000Y-99850000D01*
X56987500Y-108800000D02*
X57550000Y-108237500D01*
X59375000Y-101850000D02*
X60425000Y-101850000D01*
X59250000Y-101725000D02*
X59375000Y-101850000D01*
X59250000Y-101025000D02*
X59250000Y-101725000D01*
X59425000Y-100850000D02*
X59250000Y-101025000D01*
X60425000Y-100850000D02*
X59425000Y-100850000D01*
X62600000Y-102850000D02*
X62600000Y-102800000D01*
X62600000Y-102800000D02*
X62450000Y-102800000D01*
X61500000Y-101850000D02*
X60425000Y-101850000D01*
X62450000Y-102800000D02*
X61500000Y-101850000D01*
X62100000Y-101700000D02*
X61750000Y-101350000D01*
X64130000Y-101700000D02*
X62100000Y-101700000D01*
X64500000Y-102070000D02*
X64130000Y-101700000D01*
X61475000Y-101350000D02*
X60425000Y-101350000D01*
X61750000Y-101100000D02*
X61725000Y-101100000D01*
X61750000Y-101350000D02*
X61475000Y-101350000D01*
X61725000Y-101100000D02*
X61475000Y-101350000D01*
X61750000Y-101100000D02*
X61750000Y-101350000D01*
X61750000Y-100675000D02*
X61750000Y-101100000D01*
X61425000Y-100350000D02*
X61750000Y-100675000D01*
X60425000Y-100350000D02*
X61425000Y-100350000D01*
X64500000Y-102850000D02*
X64500000Y-102070000D01*
D26*
G36*
X79993380Y-93173368D02*
G01*
X80179387Y-93229527D01*
X80350953Y-93320751D01*
X80501527Y-93443556D01*
X80625385Y-93593275D01*
X80717800Y-93764192D01*
X80775258Y-93949809D01*
X80798001Y-94166197D01*
X80798000Y-109125451D01*
X80776632Y-109343378D01*
X80720473Y-109529388D01*
X80629249Y-109700953D01*
X80506443Y-109851529D01*
X80356726Y-109975385D01*
X80185810Y-110067799D01*
X80000191Y-110125258D01*
X79783813Y-110148000D01*
X54824549Y-110148000D01*
X54606622Y-110126632D01*
X54420612Y-110070473D01*
X54249047Y-109979249D01*
X54098471Y-109856443D01*
X53974615Y-109706726D01*
X53882201Y-109535810D01*
X53871116Y-109500000D01*
X54145692Y-109500000D01*
X54154902Y-109593508D01*
X54182177Y-109683423D01*
X54226470Y-109766289D01*
X54286078Y-109838922D01*
X54358711Y-109898530D01*
X54441577Y-109942823D01*
X54531492Y-109970098D01*
X54625000Y-109979308D01*
X54866250Y-109977000D01*
X54985500Y-109857750D01*
X54985500Y-108927000D01*
X54267250Y-108927000D01*
X54148000Y-109046250D01*
X54145692Y-109500000D01*
X53871116Y-109500000D01*
X53824742Y-109350191D01*
X53802000Y-109133813D01*
X53802000Y-108100000D01*
X54145692Y-108100000D01*
X54148000Y-108553750D01*
X54267250Y-108673000D01*
X54985500Y-108673000D01*
X54985500Y-108653000D01*
X55239500Y-108653000D01*
X55239500Y-108673000D01*
X55259500Y-108673000D01*
X55259500Y-108927000D01*
X55239500Y-108927000D01*
X55239500Y-109857750D01*
X55358750Y-109977000D01*
X55600000Y-109979308D01*
X55693508Y-109970098D01*
X55783423Y-109942823D01*
X55866289Y-109898530D01*
X55938922Y-109838922D01*
X55998530Y-109766289D01*
X56042823Y-109683423D01*
X56070098Y-109593508D01*
X56076011Y-109533474D01*
X56142550Y-109657959D01*
X56232471Y-109767529D01*
X56342041Y-109857450D01*
X56467048Y-109924268D01*
X56602689Y-109965414D01*
X56743750Y-109979307D01*
X57231250Y-109979307D01*
X57372311Y-109965414D01*
X57507952Y-109924268D01*
X57632959Y-109857450D01*
X57742529Y-109767529D01*
X57825000Y-109667037D01*
X57907471Y-109767529D01*
X58017041Y-109857450D01*
X58142048Y-109924268D01*
X58277689Y-109965414D01*
X58418750Y-109979307D01*
X58906250Y-109979307D01*
X59047311Y-109965414D01*
X59182952Y-109924268D01*
X59307959Y-109857450D01*
X59417529Y-109767529D01*
X59507450Y-109657959D01*
X59573989Y-109533474D01*
X59579902Y-109593508D01*
X59607177Y-109683423D01*
X59651470Y-109766289D01*
X59711078Y-109838922D01*
X59783711Y-109898530D01*
X59866577Y-109942823D01*
X59956492Y-109970098D01*
X60050000Y-109979308D01*
X60291250Y-109977000D01*
X60410500Y-109857750D01*
X60410500Y-108927000D01*
X60664500Y-108927000D01*
X60664500Y-109857750D01*
X60783750Y-109977000D01*
X61025000Y-109979308D01*
X61118508Y-109970098D01*
X61208423Y-109942823D01*
X61291289Y-109898530D01*
X61363922Y-109838922D01*
X61375000Y-109825423D01*
X61386078Y-109838922D01*
X61458711Y-109898530D01*
X61541577Y-109942823D01*
X61631492Y-109970098D01*
X61725000Y-109979308D01*
X61966250Y-109977000D01*
X62085500Y-109857750D01*
X62085500Y-108927000D01*
X60664500Y-108927000D01*
X60410500Y-108927000D01*
X60390500Y-108927000D01*
X60390500Y-108673000D01*
X60410500Y-108673000D01*
X60410500Y-108653000D01*
X60664500Y-108653000D01*
X60664500Y-108673000D01*
X62085500Y-108673000D01*
X62085500Y-108653000D01*
X62339500Y-108653000D01*
X62339500Y-108673000D01*
X62359500Y-108673000D01*
X62359500Y-108927000D01*
X62339500Y-108927000D01*
X62339500Y-109857750D01*
X62458750Y-109977000D01*
X62700000Y-109979308D01*
X62793508Y-109970098D01*
X62883423Y-109942823D01*
X62966289Y-109898530D01*
X63038922Y-109838922D01*
X63098530Y-109766289D01*
X63142823Y-109683423D01*
X63170098Y-109593508D01*
X63176011Y-109533474D01*
X63242550Y-109657959D01*
X63332471Y-109767529D01*
X63442041Y-109857450D01*
X63567048Y-109924268D01*
X63702689Y-109965414D01*
X63843750Y-109979307D01*
X64331250Y-109979307D01*
X64472311Y-109965414D01*
X64607952Y-109924268D01*
X64732959Y-109857450D01*
X64842529Y-109767529D01*
X64920799Y-109672156D01*
X65078420Y-109829777D01*
X65097263Y-109852737D01*
X65120223Y-109871580D01*
X65120227Y-109871584D01*
X65153061Y-109898530D01*
X65188929Y-109927966D01*
X65293510Y-109983866D01*
X65406988Y-110018289D01*
X65495434Y-110027000D01*
X65495443Y-110027000D01*
X65524999Y-110029911D01*
X65554556Y-110027000D01*
X72270444Y-110027000D01*
X72300000Y-110029911D01*
X72329556Y-110027000D01*
X72329566Y-110027000D01*
X72418012Y-110018289D01*
X72531490Y-109983866D01*
X72636071Y-109927966D01*
X72727737Y-109852737D01*
X72746588Y-109829767D01*
X73029772Y-109546584D01*
X73052737Y-109527737D01*
X73090724Y-109481450D01*
X73202689Y-109515414D01*
X73343750Y-109529307D01*
X73831250Y-109529307D01*
X73972311Y-109515414D01*
X74107952Y-109474268D01*
X74232959Y-109407450D01*
X74342529Y-109317529D01*
X74432450Y-109207959D01*
X74494694Y-109091510D01*
X74533711Y-109123530D01*
X74616577Y-109167823D01*
X74706492Y-109195098D01*
X74800000Y-109204308D01*
X75053750Y-109202000D01*
X75173000Y-109082750D01*
X75173000Y-108502000D01*
X75427000Y-108502000D01*
X75427000Y-109082750D01*
X75546250Y-109202000D01*
X75800000Y-109204308D01*
X75893508Y-109195098D01*
X75983423Y-109167823D01*
X76066289Y-109123530D01*
X76138922Y-109063922D01*
X76198530Y-108991289D01*
X76242823Y-108908423D01*
X76270098Y-108818508D01*
X76279308Y-108725000D01*
X78820692Y-108725000D01*
X78829902Y-108818508D01*
X78857177Y-108908423D01*
X78901470Y-108991289D01*
X78961078Y-109063922D01*
X79033711Y-109123530D01*
X79116577Y-109167823D01*
X79206492Y-109195098D01*
X79300000Y-109204308D01*
X79553750Y-109202000D01*
X79673000Y-109082750D01*
X79673000Y-108502000D01*
X79927000Y-108502000D01*
X79927000Y-109082750D01*
X80046250Y-109202000D01*
X80300000Y-109204308D01*
X80393508Y-109195098D01*
X80483423Y-109167823D01*
X80566289Y-109123530D01*
X80638922Y-109063922D01*
X80698530Y-108991289D01*
X80742823Y-108908423D01*
X80770098Y-108818508D01*
X80779308Y-108725000D01*
X80777000Y-108621250D01*
X80657750Y-108502000D01*
X79927000Y-108502000D01*
X79673000Y-108502000D01*
X78942250Y-108502000D01*
X78823000Y-108621250D01*
X78820692Y-108725000D01*
X76279308Y-108725000D01*
X76277000Y-108621250D01*
X76157750Y-108502000D01*
X75427000Y-108502000D01*
X75173000Y-108502000D01*
X75153000Y-108502000D01*
X75153000Y-108248000D01*
X75173000Y-108248000D01*
X75173000Y-108228000D01*
X75427000Y-108228000D01*
X75427000Y-108248000D01*
X76157750Y-108248000D01*
X76196979Y-108208771D01*
X76288623Y-108227000D01*
X76461377Y-108227000D01*
X76630811Y-108193297D01*
X76790415Y-108127187D01*
X76934055Y-108031210D01*
X76940265Y-108025000D01*
X78820692Y-108025000D01*
X78823000Y-108128750D01*
X78942250Y-108248000D01*
X79673000Y-108248000D01*
X79673000Y-107667250D01*
X79927000Y-107667250D01*
X79927000Y-108248000D01*
X80657750Y-108248000D01*
X80777000Y-108128750D01*
X80779308Y-108025000D01*
X80770098Y-107931492D01*
X80742823Y-107841577D01*
X80698530Y-107758711D01*
X80638922Y-107686078D01*
X80566289Y-107626470D01*
X80483423Y-107582177D01*
X80393508Y-107554902D01*
X80300000Y-107545692D01*
X80046250Y-107548000D01*
X79927000Y-107667250D01*
X79673000Y-107667250D01*
X79553750Y-107548000D01*
X79300000Y-107545692D01*
X79206492Y-107554902D01*
X79116577Y-107582177D01*
X79033711Y-107626470D01*
X78961078Y-107686078D01*
X78901470Y-107758711D01*
X78857177Y-107841577D01*
X78829902Y-107931492D01*
X78820692Y-108025000D01*
X76940265Y-108025000D01*
X77056210Y-107909055D01*
X77152187Y-107765415D01*
X77218297Y-107605811D01*
X77252000Y-107436377D01*
X77252000Y-107263623D01*
X77218297Y-107094189D01*
X77176986Y-106994455D01*
X77309055Y-106906210D01*
X77388265Y-106827000D01*
X78893833Y-106827000D01*
X78901471Y-106841289D01*
X78961079Y-106913921D01*
X79033711Y-106973529D01*
X79116577Y-107017822D01*
X79206492Y-107045097D01*
X79300000Y-107054307D01*
X80300000Y-107054307D01*
X80393508Y-107045097D01*
X80483423Y-107017822D01*
X80566289Y-106973529D01*
X80638921Y-106913921D01*
X80698529Y-106841289D01*
X80742822Y-106758423D01*
X80770097Y-106668508D01*
X80779307Y-106575000D01*
X80779307Y-105875000D01*
X80770097Y-105781492D01*
X80742822Y-105691577D01*
X80698529Y-105608711D01*
X80638921Y-105536079D01*
X80566289Y-105476471D01*
X80483423Y-105432178D01*
X80393508Y-105404903D01*
X80300000Y-105395693D01*
X79300000Y-105395693D01*
X79206492Y-105404903D01*
X79116577Y-105432178D01*
X79033711Y-105476471D01*
X78961079Y-105536079D01*
X78901471Y-105608711D01*
X78893833Y-105623000D01*
X77388265Y-105623000D01*
X77309055Y-105543790D01*
X77165415Y-105447813D01*
X77115168Y-105427000D01*
X77236377Y-105427000D01*
X77405811Y-105393297D01*
X77565415Y-105327187D01*
X77709055Y-105231210D01*
X77831210Y-105109055D01*
X77927187Y-104965415D01*
X77993297Y-104805811D01*
X78009371Y-104725000D01*
X78420692Y-104725000D01*
X78429902Y-104818508D01*
X78457177Y-104908423D01*
X78501470Y-104991289D01*
X78561078Y-105063922D01*
X78633711Y-105123530D01*
X78716577Y-105167823D01*
X78806492Y-105195098D01*
X78900000Y-105204308D01*
X79353750Y-105202000D01*
X79473000Y-105082750D01*
X79473000Y-104364500D01*
X79727000Y-104364500D01*
X79727000Y-105082750D01*
X79846250Y-105202000D01*
X80300000Y-105204308D01*
X80393508Y-105195098D01*
X80483423Y-105167823D01*
X80566289Y-105123530D01*
X80638922Y-105063922D01*
X80698530Y-104991289D01*
X80742823Y-104908423D01*
X80770098Y-104818508D01*
X80779308Y-104725000D01*
X80777000Y-104483750D01*
X80657750Y-104364500D01*
X79727000Y-104364500D01*
X79473000Y-104364500D01*
X78542250Y-104364500D01*
X78423000Y-104483750D01*
X78420692Y-104725000D01*
X78009371Y-104725000D01*
X78027000Y-104636377D01*
X78027000Y-104463623D01*
X77993297Y-104294189D01*
X77945711Y-104179307D01*
X78300000Y-104179307D01*
X78393508Y-104170097D01*
X78483423Y-104142822D01*
X78543893Y-104110500D01*
X79473000Y-104110500D01*
X79473000Y-104090500D01*
X79727000Y-104090500D01*
X79727000Y-104110500D01*
X80657750Y-104110500D01*
X80777000Y-103991250D01*
X80779308Y-103750000D01*
X80770098Y-103656492D01*
X80742823Y-103566577D01*
X80698530Y-103483711D01*
X80638922Y-103411078D01*
X80566289Y-103351470D01*
X80483423Y-103307177D01*
X80393508Y-103279902D01*
X80333474Y-103273989D01*
X80457959Y-103207450D01*
X80567529Y-103117529D01*
X80657450Y-103007959D01*
X80724268Y-102882952D01*
X80765414Y-102747311D01*
X80779307Y-102606250D01*
X80779307Y-102118750D01*
X80765414Y-101977689D01*
X80724268Y-101842048D01*
X80657450Y-101717041D01*
X80567529Y-101607471D01*
X80457959Y-101517550D01*
X80332952Y-101450732D01*
X80202000Y-101411008D01*
X80202000Y-101204307D01*
X80300000Y-101204307D01*
X80393508Y-101195097D01*
X80483423Y-101167822D01*
X80566289Y-101123529D01*
X80638921Y-101063921D01*
X80698529Y-100991289D01*
X80742822Y-100908423D01*
X80770097Y-100818508D01*
X80779307Y-100725000D01*
X80779307Y-100025000D01*
X80770097Y-99931492D01*
X80742822Y-99841577D01*
X80698529Y-99758711D01*
X80638921Y-99686079D01*
X80566289Y-99626471D01*
X80483423Y-99582178D01*
X80393508Y-99554903D01*
X80300000Y-99545693D01*
X79672050Y-99545693D01*
X79156198Y-99029842D01*
X79206492Y-99045098D01*
X79300000Y-99054308D01*
X79553750Y-99052000D01*
X79673000Y-98932750D01*
X79673000Y-98352000D01*
X79927000Y-98352000D01*
X79927000Y-98932750D01*
X80046250Y-99052000D01*
X80300000Y-99054308D01*
X80393508Y-99045098D01*
X80483423Y-99017823D01*
X80566289Y-98973530D01*
X80638922Y-98913922D01*
X80698530Y-98841289D01*
X80742823Y-98758423D01*
X80770098Y-98668508D01*
X80779308Y-98575000D01*
X80777000Y-98471250D01*
X80657750Y-98352000D01*
X79927000Y-98352000D01*
X79673000Y-98352000D01*
X78942250Y-98352000D01*
X78823000Y-98471250D01*
X78820692Y-98575000D01*
X78829902Y-98668508D01*
X78845158Y-98718802D01*
X78001356Y-97875000D01*
X78820692Y-97875000D01*
X78823000Y-97978750D01*
X78942250Y-98098000D01*
X79673000Y-98098000D01*
X79673000Y-97517250D01*
X79927000Y-97517250D01*
X79927000Y-98098000D01*
X80657750Y-98098000D01*
X80777000Y-97978750D01*
X80779308Y-97875000D01*
X80770098Y-97781492D01*
X80742823Y-97691577D01*
X80698530Y-97608711D01*
X80638922Y-97536078D01*
X80566289Y-97476470D01*
X80483423Y-97432177D01*
X80393508Y-97404902D01*
X80300000Y-97395692D01*
X80046250Y-97398000D01*
X79927000Y-97517250D01*
X79673000Y-97517250D01*
X79553750Y-97398000D01*
X79300000Y-97395692D01*
X79206492Y-97404902D01*
X79116577Y-97432177D01*
X79033711Y-97476470D01*
X78961078Y-97536078D01*
X78901470Y-97608711D01*
X78857177Y-97691577D01*
X78829902Y-97781492D01*
X78820692Y-97875000D01*
X78001356Y-97875000D01*
X76821589Y-96695234D01*
X76802737Y-96672263D01*
X76738238Y-96619329D01*
X76783000Y-96601054D01*
X76783000Y-95527000D01*
X76763000Y-95527000D01*
X76763000Y-95273000D01*
X76783000Y-95273000D01*
X76783000Y-94198946D01*
X77037000Y-94198946D01*
X77037000Y-95273000D01*
X77057000Y-95273000D01*
X77057000Y-95527000D01*
X77037000Y-95527000D01*
X77037000Y-96601054D01*
X77242072Y-96684779D01*
X77347679Y-96652748D01*
X77583668Y-96543290D01*
X77793769Y-96389896D01*
X77969907Y-96198461D01*
X78105313Y-95976341D01*
X78120693Y-95934352D01*
X78120693Y-96250000D01*
X78129903Y-96343508D01*
X78157178Y-96433423D01*
X78201471Y-96516289D01*
X78261079Y-96588921D01*
X78333711Y-96648529D01*
X78416577Y-96692822D01*
X78506492Y-96720097D01*
X78600000Y-96729307D01*
X80300000Y-96729307D01*
X80393508Y-96720097D01*
X80483423Y-96692822D01*
X80566289Y-96648529D01*
X80638921Y-96588921D01*
X80698529Y-96516289D01*
X80742822Y-96433423D01*
X80770097Y-96343508D01*
X80779307Y-96250000D01*
X80779307Y-94550000D01*
X80770097Y-94456492D01*
X80742822Y-94366577D01*
X80698529Y-94283711D01*
X80638921Y-94211079D01*
X80566289Y-94151471D01*
X80483423Y-94107178D01*
X80393508Y-94079903D01*
X80300000Y-94070693D01*
X78600000Y-94070693D01*
X78506492Y-94079903D01*
X78416577Y-94107178D01*
X78333711Y-94151471D01*
X78261079Y-94211079D01*
X78201471Y-94283711D01*
X78157178Y-94366577D01*
X78129903Y-94456492D01*
X78120693Y-94550000D01*
X78120693Y-94865648D01*
X78105313Y-94823659D01*
X77969907Y-94601539D01*
X77793769Y-94410104D01*
X77583668Y-94256710D01*
X77347679Y-94147252D01*
X77242072Y-94115221D01*
X77037000Y-94198946D01*
X76783000Y-94198946D01*
X76577928Y-94115221D01*
X76472321Y-94147252D01*
X76236332Y-94256710D01*
X76026231Y-94410104D01*
X75850093Y-94601539D01*
X75714687Y-94823659D01*
X75642042Y-95021989D01*
X75601919Y-94889722D01*
X75478698Y-94659192D01*
X75312870Y-94457130D01*
X75110808Y-94291302D01*
X74880278Y-94168081D01*
X74630137Y-94092201D01*
X74435184Y-94073000D01*
X74304816Y-94073000D01*
X74109863Y-94092201D01*
X73959246Y-94137890D01*
X73466589Y-93645234D01*
X73447737Y-93622263D01*
X73356071Y-93547034D01*
X73251490Y-93491134D01*
X73138012Y-93456711D01*
X73049566Y-93448000D01*
X73049556Y-93448000D01*
X73020000Y-93445089D01*
X72990444Y-93448000D01*
X65529559Y-93448000D01*
X65500000Y-93445089D01*
X65470441Y-93448000D01*
X65470434Y-93448000D01*
X65393182Y-93455609D01*
X65381987Y-93456711D01*
X65268510Y-93491134D01*
X65163928Y-93547034D01*
X65110193Y-93591134D01*
X65072263Y-93622263D01*
X65053416Y-93645228D01*
X64227952Y-94470693D01*
X63750000Y-94470693D01*
X63656492Y-94479903D01*
X63566577Y-94507178D01*
X63483711Y-94551471D01*
X63411079Y-94611079D01*
X63351471Y-94683711D01*
X63307178Y-94766577D01*
X63279903Y-94856492D01*
X63270693Y-94950000D01*
X63270693Y-95750000D01*
X63279903Y-95843508D01*
X63307178Y-95933423D01*
X63351471Y-96016289D01*
X63411079Y-96088921D01*
X63483711Y-96148529D01*
X63566577Y-96192822D01*
X63592755Y-96200763D01*
X63490945Y-96268790D01*
X63411735Y-96348000D01*
X63399356Y-96348000D01*
X63129307Y-96077952D01*
X63129307Y-95900000D01*
X63120097Y-95806492D01*
X63092822Y-95716577D01*
X63048529Y-95633711D01*
X62988921Y-95561079D01*
X62916289Y-95501471D01*
X62833423Y-95457178D01*
X62743508Y-95429903D01*
X62650000Y-95420693D01*
X61750000Y-95420693D01*
X61656492Y-95429903D01*
X61566577Y-95457178D01*
X61483711Y-95501471D01*
X61411079Y-95561079D01*
X61351471Y-95633711D01*
X61327177Y-95679162D01*
X61328968Y-95024190D01*
X61351471Y-95066289D01*
X61411079Y-95138921D01*
X61483711Y-95198529D01*
X61566577Y-95242822D01*
X61656492Y-95270097D01*
X61750000Y-95279307D01*
X62650000Y-95279307D01*
X62743508Y-95270097D01*
X62833423Y-95242822D01*
X62916289Y-95198529D01*
X62988921Y-95138921D01*
X63048529Y-95066289D01*
X63092822Y-94983423D01*
X63120097Y-94893508D01*
X63129307Y-94800000D01*
X63129307Y-94000000D01*
X63120097Y-93906492D01*
X63092822Y-93816577D01*
X63048529Y-93733711D01*
X62988921Y-93661079D01*
X62916289Y-93601471D01*
X62833423Y-93557178D01*
X62743508Y-93529903D01*
X62650000Y-93520693D01*
X62136791Y-93520693D01*
X62081490Y-93491134D01*
X61968012Y-93456711D01*
X61879566Y-93448000D01*
X61879556Y-93448000D01*
X61850000Y-93445089D01*
X61820444Y-93448000D01*
X61188265Y-93448000D01*
X61109055Y-93368790D01*
X60965415Y-93272813D01*
X60805811Y-93206703D01*
X60636377Y-93173000D01*
X60463623Y-93173000D01*
X60294189Y-93206703D01*
X60134585Y-93272813D01*
X59990945Y-93368790D01*
X59868790Y-93490945D01*
X59772813Y-93634585D01*
X59706703Y-93794189D01*
X59673000Y-93963623D01*
X59673000Y-94136377D01*
X59706703Y-94305811D01*
X59755244Y-94423000D01*
X59722998Y-94423000D01*
X59722998Y-94542248D01*
X59603750Y-94423000D01*
X58850000Y-94420692D01*
X58756492Y-94429902D01*
X58666577Y-94457177D01*
X58583711Y-94501470D01*
X58511078Y-94561078D01*
X58451470Y-94633711D01*
X58407177Y-94716577D01*
X58379902Y-94806492D01*
X58370692Y-94900000D01*
X58373000Y-95743750D01*
X58492250Y-95863000D01*
X59723000Y-95863000D01*
X59723000Y-95843000D01*
X59977000Y-95843000D01*
X59977000Y-95863000D01*
X59997000Y-95863000D01*
X59997000Y-96117000D01*
X59977000Y-96117000D01*
X59977000Y-96137000D01*
X59723000Y-96137000D01*
X59723000Y-96117000D01*
X58492250Y-96117000D01*
X58373000Y-96236250D01*
X58370692Y-97080000D01*
X58379902Y-97173508D01*
X58407177Y-97263423D01*
X58451470Y-97346289D01*
X58511078Y-97418922D01*
X58583711Y-97478530D01*
X58666577Y-97522823D01*
X58756492Y-97550098D01*
X58850000Y-97559308D01*
X58944701Y-97559018D01*
X58902755Y-97587046D01*
X58791046Y-97698755D01*
X58703276Y-97830110D01*
X58642820Y-97976065D01*
X58612000Y-98131010D01*
X58612000Y-98288990D01*
X58642820Y-98443935D01*
X58690236Y-98558408D01*
X55495234Y-101753411D01*
X55472263Y-101772263D01*
X55397034Y-101863930D01*
X55341134Y-101968511D01*
X55306711Y-102081989D01*
X55298000Y-102170435D01*
X55298000Y-102170444D01*
X55295089Y-102200000D01*
X55298000Y-102229557D01*
X55298000Y-102711735D01*
X55218790Y-102790945D01*
X55122813Y-102934585D01*
X55056703Y-103094189D01*
X55023000Y-103263623D01*
X55023000Y-103436377D01*
X55056703Y-103605811D01*
X55122813Y-103765415D01*
X55218790Y-103909055D01*
X55340945Y-104031210D01*
X55484585Y-104127187D01*
X55644189Y-104193297D01*
X55813623Y-104227000D01*
X55986377Y-104227000D01*
X56155811Y-104193297D01*
X56315415Y-104127187D01*
X56459055Y-104031210D01*
X56548001Y-103942264D01*
X56548001Y-104470434D01*
X56545089Y-104500000D01*
X56556712Y-104618012D01*
X56563922Y-104641782D01*
X56166250Y-104643000D01*
X56047000Y-104762250D01*
X56047000Y-106083000D01*
X56067000Y-106083000D01*
X56067000Y-106337000D01*
X56047000Y-106337000D01*
X56047000Y-106357000D01*
X55793000Y-106357000D01*
X55793000Y-106337000D01*
X54562250Y-106337000D01*
X54443000Y-106456250D01*
X54440692Y-107300000D01*
X54449902Y-107393508D01*
X54477177Y-107483423D01*
X54521470Y-107566289D01*
X54570521Y-107626058D01*
X54531492Y-107629902D01*
X54441577Y-107657177D01*
X54358711Y-107701470D01*
X54286078Y-107761078D01*
X54226470Y-107833711D01*
X54182177Y-107916577D01*
X54154902Y-108006492D01*
X54145692Y-108100000D01*
X53802000Y-108100000D01*
X53802000Y-105120000D01*
X54440692Y-105120000D01*
X54443000Y-105963750D01*
X54562250Y-106083000D01*
X55793000Y-106083000D01*
X55793000Y-104762250D01*
X55673750Y-104643000D01*
X54920000Y-104640692D01*
X54826492Y-104649902D01*
X54736577Y-104677177D01*
X54653711Y-104721470D01*
X54581078Y-104781078D01*
X54521470Y-104853711D01*
X54477177Y-104936577D01*
X54449902Y-105026492D01*
X54440692Y-105120000D01*
X53802000Y-105120000D01*
X53802000Y-97080000D01*
X54440692Y-97080000D01*
X54449902Y-97173508D01*
X54477177Y-97263423D01*
X54521470Y-97346289D01*
X54581078Y-97418922D01*
X54653711Y-97478530D01*
X54736577Y-97522823D01*
X54826492Y-97550098D01*
X54920000Y-97559308D01*
X55673750Y-97557000D01*
X55793000Y-97437750D01*
X55793000Y-96117000D01*
X56047000Y-96117000D01*
X56047000Y-97437750D01*
X56166250Y-97557000D01*
X56920000Y-97559308D01*
X57013508Y-97550098D01*
X57103423Y-97522823D01*
X57186289Y-97478530D01*
X57258922Y-97418922D01*
X57318530Y-97346289D01*
X57362823Y-97263423D01*
X57390098Y-97173508D01*
X57399308Y-97080000D01*
X57397000Y-96236250D01*
X57277750Y-96117000D01*
X56047000Y-96117000D01*
X55793000Y-96117000D01*
X54562250Y-96117000D01*
X54443000Y-96236250D01*
X54440692Y-97080000D01*
X53802000Y-97080000D01*
X53802000Y-94900000D01*
X54440692Y-94900000D01*
X54443000Y-95743750D01*
X54562250Y-95863000D01*
X55793000Y-95863000D01*
X55793000Y-94542250D01*
X56047000Y-94542250D01*
X56047000Y-95863000D01*
X57277750Y-95863000D01*
X57397000Y-95743750D01*
X57399308Y-94900000D01*
X57390098Y-94806492D01*
X57362823Y-94716577D01*
X57318530Y-94633711D01*
X57258922Y-94561078D01*
X57186289Y-94501470D01*
X57103423Y-94457177D01*
X57013508Y-94429902D01*
X56920000Y-94420692D01*
X56166250Y-94423000D01*
X56047000Y-94542250D01*
X55793000Y-94542250D01*
X55673750Y-94423000D01*
X54920000Y-94420692D01*
X54826492Y-94429902D01*
X54736577Y-94457177D01*
X54653711Y-94501470D01*
X54581078Y-94561078D01*
X54521470Y-94633711D01*
X54477177Y-94716577D01*
X54449902Y-94806492D01*
X54440692Y-94900000D01*
X53802000Y-94900000D01*
X53802000Y-94174549D01*
X53823368Y-93956620D01*
X53879527Y-93770613D01*
X53970751Y-93599047D01*
X54093556Y-93448473D01*
X54243275Y-93324615D01*
X54414192Y-93232200D01*
X54599809Y-93174742D01*
X54816188Y-93152000D01*
X79775451Y-93152000D01*
X79993380Y-93173368D01*
X79993380Y-93173368D01*
G37*
X79993380Y-93173368D02*
X80179387Y-93229527D01*
X80350953Y-93320751D01*
X80501527Y-93443556D01*
X80625385Y-93593275D01*
X80717800Y-93764192D01*
X80775258Y-93949809D01*
X80798001Y-94166197D01*
X80798000Y-109125451D01*
X80776632Y-109343378D01*
X80720473Y-109529388D01*
X80629249Y-109700953D01*
X80506443Y-109851529D01*
X80356726Y-109975385D01*
X80185810Y-110067799D01*
X80000191Y-110125258D01*
X79783813Y-110148000D01*
X54824549Y-110148000D01*
X54606622Y-110126632D01*
X54420612Y-110070473D01*
X54249047Y-109979249D01*
X54098471Y-109856443D01*
X53974615Y-109706726D01*
X53882201Y-109535810D01*
X53871116Y-109500000D01*
X54145692Y-109500000D01*
X54154902Y-109593508D01*
X54182177Y-109683423D01*
X54226470Y-109766289D01*
X54286078Y-109838922D01*
X54358711Y-109898530D01*
X54441577Y-109942823D01*
X54531492Y-109970098D01*
X54625000Y-109979308D01*
X54866250Y-109977000D01*
X54985500Y-109857750D01*
X54985500Y-108927000D01*
X54267250Y-108927000D01*
X54148000Y-109046250D01*
X54145692Y-109500000D01*
X53871116Y-109500000D01*
X53824742Y-109350191D01*
X53802000Y-109133813D01*
X53802000Y-108100000D01*
X54145692Y-108100000D01*
X54148000Y-108553750D01*
X54267250Y-108673000D01*
X54985500Y-108673000D01*
X54985500Y-108653000D01*
X55239500Y-108653000D01*
X55239500Y-108673000D01*
X55259500Y-108673000D01*
X55259500Y-108927000D01*
X55239500Y-108927000D01*
X55239500Y-109857750D01*
X55358750Y-109977000D01*
X55600000Y-109979308D01*
X55693508Y-109970098D01*
X55783423Y-109942823D01*
X55866289Y-109898530D01*
X55938922Y-109838922D01*
X55998530Y-109766289D01*
X56042823Y-109683423D01*
X56070098Y-109593508D01*
X56076011Y-109533474D01*
X56142550Y-109657959D01*
X56232471Y-109767529D01*
X56342041Y-109857450D01*
X56467048Y-109924268D01*
X56602689Y-109965414D01*
X56743750Y-109979307D01*
X57231250Y-109979307D01*
X57372311Y-109965414D01*
X57507952Y-109924268D01*
X57632959Y-109857450D01*
X57742529Y-109767529D01*
X57825000Y-109667037D01*
X57907471Y-109767529D01*
X58017041Y-109857450D01*
X58142048Y-109924268D01*
X58277689Y-109965414D01*
X58418750Y-109979307D01*
X58906250Y-109979307D01*
X59047311Y-109965414D01*
X59182952Y-109924268D01*
X59307959Y-109857450D01*
X59417529Y-109767529D01*
X59507450Y-109657959D01*
X59573989Y-109533474D01*
X59579902Y-109593508D01*
X59607177Y-109683423D01*
X59651470Y-109766289D01*
X59711078Y-109838922D01*
X59783711Y-109898530D01*
X59866577Y-109942823D01*
X59956492Y-109970098D01*
X60050000Y-109979308D01*
X60291250Y-109977000D01*
X60410500Y-109857750D01*
X60410500Y-108927000D01*
X60664500Y-108927000D01*
X60664500Y-109857750D01*
X60783750Y-109977000D01*
X61025000Y-109979308D01*
X61118508Y-109970098D01*
X61208423Y-109942823D01*
X61291289Y-109898530D01*
X61363922Y-109838922D01*
X61375000Y-109825423D01*
X61386078Y-109838922D01*
X61458711Y-109898530D01*
X61541577Y-109942823D01*
X61631492Y-109970098D01*
X61725000Y-109979308D01*
X61966250Y-109977000D01*
X62085500Y-109857750D01*
X62085500Y-108927000D01*
X60664500Y-108927000D01*
X60410500Y-108927000D01*
X60390500Y-108927000D01*
X60390500Y-108673000D01*
X60410500Y-108673000D01*
X60410500Y-108653000D01*
X60664500Y-108653000D01*
X60664500Y-108673000D01*
X62085500Y-108673000D01*
X62085500Y-108653000D01*
X62339500Y-108653000D01*
X62339500Y-108673000D01*
X62359500Y-108673000D01*
X62359500Y-108927000D01*
X62339500Y-108927000D01*
X62339500Y-109857750D01*
X62458750Y-109977000D01*
X62700000Y-109979308D01*
X62793508Y-109970098D01*
X62883423Y-109942823D01*
X62966289Y-109898530D01*
X63038922Y-109838922D01*
X63098530Y-109766289D01*
X63142823Y-109683423D01*
X63170098Y-109593508D01*
X63176011Y-109533474D01*
X63242550Y-109657959D01*
X63332471Y-109767529D01*
X63442041Y-109857450D01*
X63567048Y-109924268D01*
X63702689Y-109965414D01*
X63843750Y-109979307D01*
X64331250Y-109979307D01*
X64472311Y-109965414D01*
X64607952Y-109924268D01*
X64732959Y-109857450D01*
X64842529Y-109767529D01*
X64920799Y-109672156D01*
X65078420Y-109829777D01*
X65097263Y-109852737D01*
X65120223Y-109871580D01*
X65120227Y-109871584D01*
X65153061Y-109898530D01*
X65188929Y-109927966D01*
X65293510Y-109983866D01*
X65406988Y-110018289D01*
X65495434Y-110027000D01*
X65495443Y-110027000D01*
X65524999Y-110029911D01*
X65554556Y-110027000D01*
X72270444Y-110027000D01*
X72300000Y-110029911D01*
X72329556Y-110027000D01*
X72329566Y-110027000D01*
X72418012Y-110018289D01*
X72531490Y-109983866D01*
X72636071Y-109927966D01*
X72727737Y-109852737D01*
X72746588Y-109829767D01*
X73029772Y-109546584D01*
X73052737Y-109527737D01*
X73090724Y-109481450D01*
X73202689Y-109515414D01*
X73343750Y-109529307D01*
X73831250Y-109529307D01*
X73972311Y-109515414D01*
X74107952Y-109474268D01*
X74232959Y-109407450D01*
X74342529Y-109317529D01*
X74432450Y-109207959D01*
X74494694Y-109091510D01*
X74533711Y-109123530D01*
X74616577Y-109167823D01*
X74706492Y-109195098D01*
X74800000Y-109204308D01*
X75053750Y-109202000D01*
X75173000Y-109082750D01*
X75173000Y-108502000D01*
X75427000Y-108502000D01*
X75427000Y-109082750D01*
X75546250Y-109202000D01*
X75800000Y-109204308D01*
X75893508Y-109195098D01*
X75983423Y-109167823D01*
X76066289Y-109123530D01*
X76138922Y-109063922D01*
X76198530Y-108991289D01*
X76242823Y-108908423D01*
X76270098Y-108818508D01*
X76279308Y-108725000D01*
X78820692Y-108725000D01*
X78829902Y-108818508D01*
X78857177Y-108908423D01*
X78901470Y-108991289D01*
X78961078Y-109063922D01*
X79033711Y-109123530D01*
X79116577Y-109167823D01*
X79206492Y-109195098D01*
X79300000Y-109204308D01*
X79553750Y-109202000D01*
X79673000Y-109082750D01*
X79673000Y-108502000D01*
X79927000Y-108502000D01*
X79927000Y-109082750D01*
X80046250Y-109202000D01*
X80300000Y-109204308D01*
X80393508Y-109195098D01*
X80483423Y-109167823D01*
X80566289Y-109123530D01*
X80638922Y-109063922D01*
X80698530Y-108991289D01*
X80742823Y-108908423D01*
X80770098Y-108818508D01*
X80779308Y-108725000D01*
X80777000Y-108621250D01*
X80657750Y-108502000D01*
X79927000Y-108502000D01*
X79673000Y-108502000D01*
X78942250Y-108502000D01*
X78823000Y-108621250D01*
X78820692Y-108725000D01*
X76279308Y-108725000D01*
X76277000Y-108621250D01*
X76157750Y-108502000D01*
X75427000Y-108502000D01*
X75173000Y-108502000D01*
X75153000Y-108502000D01*
X75153000Y-108248000D01*
X75173000Y-108248000D01*
X75173000Y-108228000D01*
X75427000Y-108228000D01*
X75427000Y-108248000D01*
X76157750Y-108248000D01*
X76196979Y-108208771D01*
X76288623Y-108227000D01*
X76461377Y-108227000D01*
X76630811Y-108193297D01*
X76790415Y-108127187D01*
X76934055Y-108031210D01*
X76940265Y-108025000D01*
X78820692Y-108025000D01*
X78823000Y-108128750D01*
X78942250Y-108248000D01*
X79673000Y-108248000D01*
X79673000Y-107667250D01*
X79927000Y-107667250D01*
X79927000Y-108248000D01*
X80657750Y-108248000D01*
X80777000Y-108128750D01*
X80779308Y-108025000D01*
X80770098Y-107931492D01*
X80742823Y-107841577D01*
X80698530Y-107758711D01*
X80638922Y-107686078D01*
X80566289Y-107626470D01*
X80483423Y-107582177D01*
X80393508Y-107554902D01*
X80300000Y-107545692D01*
X80046250Y-107548000D01*
X79927000Y-107667250D01*
X79673000Y-107667250D01*
X79553750Y-107548000D01*
X79300000Y-107545692D01*
X79206492Y-107554902D01*
X79116577Y-107582177D01*
X79033711Y-107626470D01*
X78961078Y-107686078D01*
X78901470Y-107758711D01*
X78857177Y-107841577D01*
X78829902Y-107931492D01*
X78820692Y-108025000D01*
X76940265Y-108025000D01*
X77056210Y-107909055D01*
X77152187Y-107765415D01*
X77218297Y-107605811D01*
X77252000Y-107436377D01*
X77252000Y-107263623D01*
X77218297Y-107094189D01*
X77176986Y-106994455D01*
X77309055Y-106906210D01*
X77388265Y-106827000D01*
X78893833Y-106827000D01*
X78901471Y-106841289D01*
X78961079Y-106913921D01*
X79033711Y-106973529D01*
X79116577Y-107017822D01*
X79206492Y-107045097D01*
X79300000Y-107054307D01*
X80300000Y-107054307D01*
X80393508Y-107045097D01*
X80483423Y-107017822D01*
X80566289Y-106973529D01*
X80638921Y-106913921D01*
X80698529Y-106841289D01*
X80742822Y-106758423D01*
X80770097Y-106668508D01*
X80779307Y-106575000D01*
X80779307Y-105875000D01*
X80770097Y-105781492D01*
X80742822Y-105691577D01*
X80698529Y-105608711D01*
X80638921Y-105536079D01*
X80566289Y-105476471D01*
X80483423Y-105432178D01*
X80393508Y-105404903D01*
X80300000Y-105395693D01*
X79300000Y-105395693D01*
X79206492Y-105404903D01*
X79116577Y-105432178D01*
X79033711Y-105476471D01*
X78961079Y-105536079D01*
X78901471Y-105608711D01*
X78893833Y-105623000D01*
X77388265Y-105623000D01*
X77309055Y-105543790D01*
X77165415Y-105447813D01*
X77115168Y-105427000D01*
X77236377Y-105427000D01*
X77405811Y-105393297D01*
X77565415Y-105327187D01*
X77709055Y-105231210D01*
X77831210Y-105109055D01*
X77927187Y-104965415D01*
X77993297Y-104805811D01*
X78009371Y-104725000D01*
X78420692Y-104725000D01*
X78429902Y-104818508D01*
X78457177Y-104908423D01*
X78501470Y-104991289D01*
X78561078Y-105063922D01*
X78633711Y-105123530D01*
X78716577Y-105167823D01*
X78806492Y-105195098D01*
X78900000Y-105204308D01*
X79353750Y-105202000D01*
X79473000Y-105082750D01*
X79473000Y-104364500D01*
X79727000Y-104364500D01*
X79727000Y-105082750D01*
X79846250Y-105202000D01*
X80300000Y-105204308D01*
X80393508Y-105195098D01*
X80483423Y-105167823D01*
X80566289Y-105123530D01*
X80638922Y-105063922D01*
X80698530Y-104991289D01*
X80742823Y-104908423D01*
X80770098Y-104818508D01*
X80779308Y-104725000D01*
X80777000Y-104483750D01*
X80657750Y-104364500D01*
X79727000Y-104364500D01*
X79473000Y-104364500D01*
X78542250Y-104364500D01*
X78423000Y-104483750D01*
X78420692Y-104725000D01*
X78009371Y-104725000D01*
X78027000Y-104636377D01*
X78027000Y-104463623D01*
X77993297Y-104294189D01*
X77945711Y-104179307D01*
X78300000Y-104179307D01*
X78393508Y-104170097D01*
X78483423Y-104142822D01*
X78543893Y-104110500D01*
X79473000Y-104110500D01*
X79473000Y-104090500D01*
X79727000Y-104090500D01*
X79727000Y-104110500D01*
X80657750Y-104110500D01*
X80777000Y-103991250D01*
X80779308Y-103750000D01*
X80770098Y-103656492D01*
X80742823Y-103566577D01*
X80698530Y-103483711D01*
X80638922Y-103411078D01*
X80566289Y-103351470D01*
X80483423Y-103307177D01*
X80393508Y-103279902D01*
X80333474Y-103273989D01*
X80457959Y-103207450D01*
X80567529Y-103117529D01*
X80657450Y-103007959D01*
X80724268Y-102882952D01*
X80765414Y-102747311D01*
X80779307Y-102606250D01*
X80779307Y-102118750D01*
X80765414Y-101977689D01*
X80724268Y-101842048D01*
X80657450Y-101717041D01*
X80567529Y-101607471D01*
X80457959Y-101517550D01*
X80332952Y-101450732D01*
X80202000Y-101411008D01*
X80202000Y-101204307D01*
X80300000Y-101204307D01*
X80393508Y-101195097D01*
X80483423Y-101167822D01*
X80566289Y-101123529D01*
X80638921Y-101063921D01*
X80698529Y-100991289D01*
X80742822Y-100908423D01*
X80770097Y-100818508D01*
X80779307Y-100725000D01*
X80779307Y-100025000D01*
X80770097Y-99931492D01*
X80742822Y-99841577D01*
X80698529Y-99758711D01*
X80638921Y-99686079D01*
X80566289Y-99626471D01*
X80483423Y-99582178D01*
X80393508Y-99554903D01*
X80300000Y-99545693D01*
X79672050Y-99545693D01*
X79156198Y-99029842D01*
X79206492Y-99045098D01*
X79300000Y-99054308D01*
X79553750Y-99052000D01*
X79673000Y-98932750D01*
X79673000Y-98352000D01*
X79927000Y-98352000D01*
X79927000Y-98932750D01*
X80046250Y-99052000D01*
X80300000Y-99054308D01*
X80393508Y-99045098D01*
X80483423Y-99017823D01*
X80566289Y-98973530D01*
X80638922Y-98913922D01*
X80698530Y-98841289D01*
X80742823Y-98758423D01*
X80770098Y-98668508D01*
X80779308Y-98575000D01*
X80777000Y-98471250D01*
X80657750Y-98352000D01*
X79927000Y-98352000D01*
X79673000Y-98352000D01*
X78942250Y-98352000D01*
X78823000Y-98471250D01*
X78820692Y-98575000D01*
X78829902Y-98668508D01*
X78845158Y-98718802D01*
X78001356Y-97875000D01*
X78820692Y-97875000D01*
X78823000Y-97978750D01*
X78942250Y-98098000D01*
X79673000Y-98098000D01*
X79673000Y-97517250D01*
X79927000Y-97517250D01*
X79927000Y-98098000D01*
X80657750Y-98098000D01*
X80777000Y-97978750D01*
X80779308Y-97875000D01*
X80770098Y-97781492D01*
X80742823Y-97691577D01*
X80698530Y-97608711D01*
X80638922Y-97536078D01*
X80566289Y-97476470D01*
X80483423Y-97432177D01*
X80393508Y-97404902D01*
X80300000Y-97395692D01*
X80046250Y-97398000D01*
X79927000Y-97517250D01*
X79673000Y-97517250D01*
X79553750Y-97398000D01*
X79300000Y-97395692D01*
X79206492Y-97404902D01*
X79116577Y-97432177D01*
X79033711Y-97476470D01*
X78961078Y-97536078D01*
X78901470Y-97608711D01*
X78857177Y-97691577D01*
X78829902Y-97781492D01*
X78820692Y-97875000D01*
X78001356Y-97875000D01*
X76821589Y-96695234D01*
X76802737Y-96672263D01*
X76738238Y-96619329D01*
X76783000Y-96601054D01*
X76783000Y-95527000D01*
X76763000Y-95527000D01*
X76763000Y-95273000D01*
X76783000Y-95273000D01*
X76783000Y-94198946D01*
X77037000Y-94198946D01*
X77037000Y-95273000D01*
X77057000Y-95273000D01*
X77057000Y-95527000D01*
X77037000Y-95527000D01*
X77037000Y-96601054D01*
X77242072Y-96684779D01*
X77347679Y-96652748D01*
X77583668Y-96543290D01*
X77793769Y-96389896D01*
X77969907Y-96198461D01*
X78105313Y-95976341D01*
X78120693Y-95934352D01*
X78120693Y-96250000D01*
X78129903Y-96343508D01*
X78157178Y-96433423D01*
X78201471Y-96516289D01*
X78261079Y-96588921D01*
X78333711Y-96648529D01*
X78416577Y-96692822D01*
X78506492Y-96720097D01*
X78600000Y-96729307D01*
X80300000Y-96729307D01*
X80393508Y-96720097D01*
X80483423Y-96692822D01*
X80566289Y-96648529D01*
X80638921Y-96588921D01*
X80698529Y-96516289D01*
X80742822Y-96433423D01*
X80770097Y-96343508D01*
X80779307Y-96250000D01*
X80779307Y-94550000D01*
X80770097Y-94456492D01*
X80742822Y-94366577D01*
X80698529Y-94283711D01*
X80638921Y-94211079D01*
X80566289Y-94151471D01*
X80483423Y-94107178D01*
X80393508Y-94079903D01*
X80300000Y-94070693D01*
X78600000Y-94070693D01*
X78506492Y-94079903D01*
X78416577Y-94107178D01*
X78333711Y-94151471D01*
X78261079Y-94211079D01*
X78201471Y-94283711D01*
X78157178Y-94366577D01*
X78129903Y-94456492D01*
X78120693Y-94550000D01*
X78120693Y-94865648D01*
X78105313Y-94823659D01*
X77969907Y-94601539D01*
X77793769Y-94410104D01*
X77583668Y-94256710D01*
X77347679Y-94147252D01*
X77242072Y-94115221D01*
X77037000Y-94198946D01*
X76783000Y-94198946D01*
X76577928Y-94115221D01*
X76472321Y-94147252D01*
X76236332Y-94256710D01*
X76026231Y-94410104D01*
X75850093Y-94601539D01*
X75714687Y-94823659D01*
X75642042Y-95021989D01*
X75601919Y-94889722D01*
X75478698Y-94659192D01*
X75312870Y-94457130D01*
X75110808Y-94291302D01*
X74880278Y-94168081D01*
X74630137Y-94092201D01*
X74435184Y-94073000D01*
X74304816Y-94073000D01*
X74109863Y-94092201D01*
X73959246Y-94137890D01*
X73466589Y-93645234D01*
X73447737Y-93622263D01*
X73356071Y-93547034D01*
X73251490Y-93491134D01*
X73138012Y-93456711D01*
X73049566Y-93448000D01*
X73049556Y-93448000D01*
X73020000Y-93445089D01*
X72990444Y-93448000D01*
X65529559Y-93448000D01*
X65500000Y-93445089D01*
X65470441Y-93448000D01*
X65470434Y-93448000D01*
X65393182Y-93455609D01*
X65381987Y-93456711D01*
X65268510Y-93491134D01*
X65163928Y-93547034D01*
X65110193Y-93591134D01*
X65072263Y-93622263D01*
X65053416Y-93645228D01*
X64227952Y-94470693D01*
X63750000Y-94470693D01*
X63656492Y-94479903D01*
X63566577Y-94507178D01*
X63483711Y-94551471D01*
X63411079Y-94611079D01*
X63351471Y-94683711D01*
X63307178Y-94766577D01*
X63279903Y-94856492D01*
X63270693Y-94950000D01*
X63270693Y-95750000D01*
X63279903Y-95843508D01*
X63307178Y-95933423D01*
X63351471Y-96016289D01*
X63411079Y-96088921D01*
X63483711Y-96148529D01*
X63566577Y-96192822D01*
X63592755Y-96200763D01*
X63490945Y-96268790D01*
X63411735Y-96348000D01*
X63399356Y-96348000D01*
X63129307Y-96077952D01*
X63129307Y-95900000D01*
X63120097Y-95806492D01*
X63092822Y-95716577D01*
X63048529Y-95633711D01*
X62988921Y-95561079D01*
X62916289Y-95501471D01*
X62833423Y-95457178D01*
X62743508Y-95429903D01*
X62650000Y-95420693D01*
X61750000Y-95420693D01*
X61656492Y-95429903D01*
X61566577Y-95457178D01*
X61483711Y-95501471D01*
X61411079Y-95561079D01*
X61351471Y-95633711D01*
X61327177Y-95679162D01*
X61328968Y-95024190D01*
X61351471Y-95066289D01*
X61411079Y-95138921D01*
X61483711Y-95198529D01*
X61566577Y-95242822D01*
X61656492Y-95270097D01*
X61750000Y-95279307D01*
X62650000Y-95279307D01*
X62743508Y-95270097D01*
X62833423Y-95242822D01*
X62916289Y-95198529D01*
X62988921Y-95138921D01*
X63048529Y-95066289D01*
X63092822Y-94983423D01*
X63120097Y-94893508D01*
X63129307Y-94800000D01*
X63129307Y-94000000D01*
X63120097Y-93906492D01*
X63092822Y-93816577D01*
X63048529Y-93733711D01*
X62988921Y-93661079D01*
X62916289Y-93601471D01*
X62833423Y-93557178D01*
X62743508Y-93529903D01*
X62650000Y-93520693D01*
X62136791Y-93520693D01*
X62081490Y-93491134D01*
X61968012Y-93456711D01*
X61879566Y-93448000D01*
X61879556Y-93448000D01*
X61850000Y-93445089D01*
X61820444Y-93448000D01*
X61188265Y-93448000D01*
X61109055Y-93368790D01*
X60965415Y-93272813D01*
X60805811Y-93206703D01*
X60636377Y-93173000D01*
X60463623Y-93173000D01*
X60294189Y-93206703D01*
X60134585Y-93272813D01*
X59990945Y-93368790D01*
X59868790Y-93490945D01*
X59772813Y-93634585D01*
X59706703Y-93794189D01*
X59673000Y-93963623D01*
X59673000Y-94136377D01*
X59706703Y-94305811D01*
X59755244Y-94423000D01*
X59722998Y-94423000D01*
X59722998Y-94542248D01*
X59603750Y-94423000D01*
X58850000Y-94420692D01*
X58756492Y-94429902D01*
X58666577Y-94457177D01*
X58583711Y-94501470D01*
X58511078Y-94561078D01*
X58451470Y-94633711D01*
X58407177Y-94716577D01*
X58379902Y-94806492D01*
X58370692Y-94900000D01*
X58373000Y-95743750D01*
X58492250Y-95863000D01*
X59723000Y-95863000D01*
X59723000Y-95843000D01*
X59977000Y-95843000D01*
X59977000Y-95863000D01*
X59997000Y-95863000D01*
X59997000Y-96117000D01*
X59977000Y-96117000D01*
X59977000Y-96137000D01*
X59723000Y-96137000D01*
X59723000Y-96117000D01*
X58492250Y-96117000D01*
X58373000Y-96236250D01*
X58370692Y-97080000D01*
X58379902Y-97173508D01*
X58407177Y-97263423D01*
X58451470Y-97346289D01*
X58511078Y-97418922D01*
X58583711Y-97478530D01*
X58666577Y-97522823D01*
X58756492Y-97550098D01*
X58850000Y-97559308D01*
X58944701Y-97559018D01*
X58902755Y-97587046D01*
X58791046Y-97698755D01*
X58703276Y-97830110D01*
X58642820Y-97976065D01*
X58612000Y-98131010D01*
X58612000Y-98288990D01*
X58642820Y-98443935D01*
X58690236Y-98558408D01*
X55495234Y-101753411D01*
X55472263Y-101772263D01*
X55397034Y-101863930D01*
X55341134Y-101968511D01*
X55306711Y-102081989D01*
X55298000Y-102170435D01*
X55298000Y-102170444D01*
X55295089Y-102200000D01*
X55298000Y-102229557D01*
X55298000Y-102711735D01*
X55218790Y-102790945D01*
X55122813Y-102934585D01*
X55056703Y-103094189D01*
X55023000Y-103263623D01*
X55023000Y-103436377D01*
X55056703Y-103605811D01*
X55122813Y-103765415D01*
X55218790Y-103909055D01*
X55340945Y-104031210D01*
X55484585Y-104127187D01*
X55644189Y-104193297D01*
X55813623Y-104227000D01*
X55986377Y-104227000D01*
X56155811Y-104193297D01*
X56315415Y-104127187D01*
X56459055Y-104031210D01*
X56548001Y-103942264D01*
X56548001Y-104470434D01*
X56545089Y-104500000D01*
X56556712Y-104618012D01*
X56563922Y-104641782D01*
X56166250Y-104643000D01*
X56047000Y-104762250D01*
X56047000Y-106083000D01*
X56067000Y-106083000D01*
X56067000Y-106337000D01*
X56047000Y-106337000D01*
X56047000Y-106357000D01*
X55793000Y-106357000D01*
X55793000Y-106337000D01*
X54562250Y-106337000D01*
X54443000Y-106456250D01*
X54440692Y-107300000D01*
X54449902Y-107393508D01*
X54477177Y-107483423D01*
X54521470Y-107566289D01*
X54570521Y-107626058D01*
X54531492Y-107629902D01*
X54441577Y-107657177D01*
X54358711Y-107701470D01*
X54286078Y-107761078D01*
X54226470Y-107833711D01*
X54182177Y-107916577D01*
X54154902Y-108006492D01*
X54145692Y-108100000D01*
X53802000Y-108100000D01*
X53802000Y-105120000D01*
X54440692Y-105120000D01*
X54443000Y-105963750D01*
X54562250Y-106083000D01*
X55793000Y-106083000D01*
X55793000Y-104762250D01*
X55673750Y-104643000D01*
X54920000Y-104640692D01*
X54826492Y-104649902D01*
X54736577Y-104677177D01*
X54653711Y-104721470D01*
X54581078Y-104781078D01*
X54521470Y-104853711D01*
X54477177Y-104936577D01*
X54449902Y-105026492D01*
X54440692Y-105120000D01*
X53802000Y-105120000D01*
X53802000Y-97080000D01*
X54440692Y-97080000D01*
X54449902Y-97173508D01*
X54477177Y-97263423D01*
X54521470Y-97346289D01*
X54581078Y-97418922D01*
X54653711Y-97478530D01*
X54736577Y-97522823D01*
X54826492Y-97550098D01*
X54920000Y-97559308D01*
X55673750Y-97557000D01*
X55793000Y-97437750D01*
X55793000Y-96117000D01*
X56047000Y-96117000D01*
X56047000Y-97437750D01*
X56166250Y-97557000D01*
X56920000Y-97559308D01*
X57013508Y-97550098D01*
X57103423Y-97522823D01*
X57186289Y-97478530D01*
X57258922Y-97418922D01*
X57318530Y-97346289D01*
X57362823Y-97263423D01*
X57390098Y-97173508D01*
X57399308Y-97080000D01*
X57397000Y-96236250D01*
X57277750Y-96117000D01*
X56047000Y-96117000D01*
X55793000Y-96117000D01*
X54562250Y-96117000D01*
X54443000Y-96236250D01*
X54440692Y-97080000D01*
X53802000Y-97080000D01*
X53802000Y-94900000D01*
X54440692Y-94900000D01*
X54443000Y-95743750D01*
X54562250Y-95863000D01*
X55793000Y-95863000D01*
X55793000Y-94542250D01*
X56047000Y-94542250D01*
X56047000Y-95863000D01*
X57277750Y-95863000D01*
X57397000Y-95743750D01*
X57399308Y-94900000D01*
X57390098Y-94806492D01*
X57362823Y-94716577D01*
X57318530Y-94633711D01*
X57258922Y-94561078D01*
X57186289Y-94501470D01*
X57103423Y-94457177D01*
X57013508Y-94429902D01*
X56920000Y-94420692D01*
X56166250Y-94423000D01*
X56047000Y-94542250D01*
X55793000Y-94542250D01*
X55673750Y-94423000D01*
X54920000Y-94420692D01*
X54826492Y-94429902D01*
X54736577Y-94457177D01*
X54653711Y-94501470D01*
X54581078Y-94561078D01*
X54521470Y-94633711D01*
X54477177Y-94716577D01*
X54449902Y-94806492D01*
X54440692Y-94900000D01*
X53802000Y-94900000D01*
X53802000Y-94174549D01*
X53823368Y-93956620D01*
X53879527Y-93770613D01*
X53970751Y-93599047D01*
X54093556Y-93448473D01*
X54243275Y-93324615D01*
X54414192Y-93232200D01*
X54599809Y-93174742D01*
X54816188Y-93152000D01*
X79775451Y-93152000D01*
X79993380Y-93173368D01*
G36*
X67627000Y-106573000D02*
G01*
X67647000Y-106573000D01*
X67647000Y-106827000D01*
X67627000Y-106827000D01*
X67627000Y-106847000D01*
X67373000Y-106847000D01*
X67373000Y-106827000D01*
X67353000Y-106827000D01*
X67353000Y-106573000D01*
X67373000Y-106573000D01*
X67373000Y-106553000D01*
X67627000Y-106553000D01*
X67627000Y-106573000D01*
X67627000Y-106573000D01*
G37*
X67627000Y-106573000D02*
X67647000Y-106573000D01*
X67647000Y-106827000D01*
X67627000Y-106827000D01*
X67627000Y-106847000D01*
X67373000Y-106847000D01*
X67373000Y-106827000D01*
X67353000Y-106827000D01*
X67353000Y-106573000D01*
X67373000Y-106573000D01*
X67373000Y-106553000D01*
X67627000Y-106553000D01*
X67627000Y-106573000D01*
G36*
X59977000Y-106083000D02*
G01*
X59997000Y-106083000D01*
X59997000Y-106337000D01*
X59977000Y-106337000D01*
X59977000Y-106357000D01*
X59723000Y-106357000D01*
X59723000Y-106337000D01*
X59703000Y-106337000D01*
X59703000Y-106083000D01*
X59723000Y-106083000D01*
X59723000Y-106063000D01*
X59977000Y-106063000D01*
X59977000Y-106083000D01*
X59977000Y-106083000D01*
G37*
X59977000Y-106083000D02*
X59997000Y-106083000D01*
X59997000Y-106337000D01*
X59977000Y-106337000D01*
X59977000Y-106357000D01*
X59723000Y-106357000D01*
X59723000Y-106337000D01*
X59703000Y-106337000D01*
X59703000Y-106083000D01*
X59723000Y-106083000D01*
X59723000Y-106063000D01*
X59977000Y-106063000D01*
X59977000Y-106083000D01*
G36*
X62339500Y-104623000D02*
G01*
X62359500Y-104623000D01*
X62359500Y-104877000D01*
X62339500Y-104877000D01*
X62339500Y-104897000D01*
X62085500Y-104897000D01*
X62085500Y-104877000D01*
X62065500Y-104877000D01*
X62065500Y-104623000D01*
X62085500Y-104623000D01*
X62085500Y-104603000D01*
X62339500Y-104603000D01*
X62339500Y-104623000D01*
X62339500Y-104623000D01*
G37*
X62339500Y-104623000D02*
X62359500Y-104623000D01*
X62359500Y-104877000D01*
X62339500Y-104877000D01*
X62339500Y-104897000D01*
X62085500Y-104897000D01*
X62085500Y-104877000D01*
X62065500Y-104877000D01*
X62065500Y-104623000D01*
X62085500Y-104623000D01*
X62085500Y-104603000D01*
X62339500Y-104603000D01*
X62339500Y-104623000D01*
G36*
X69176492Y-102745097D02*
G01*
X69270000Y-102754307D01*
X70330000Y-102754307D01*
X70415233Y-102745912D01*
X70288145Y-102873000D01*
X70213623Y-102873000D01*
X70044189Y-102906703D01*
X69884585Y-102972813D01*
X69740945Y-103068790D01*
X69618790Y-103190945D01*
X69522813Y-103334585D01*
X69456703Y-103494189D01*
X69423000Y-103663623D01*
X69423000Y-103836377D01*
X69456703Y-104005811D01*
X69522813Y-104165415D01*
X69618790Y-104309055D01*
X69698001Y-104388266D01*
X69698000Y-104845693D01*
X69354307Y-104845693D01*
X69354307Y-104412500D01*
X69343896Y-104306799D01*
X69313064Y-104205159D01*
X69262996Y-104111488D01*
X69195615Y-104029385D01*
X69113512Y-103962004D01*
X69019841Y-103911936D01*
X68918201Y-103881104D01*
X68812500Y-103870693D01*
X68745711Y-103870693D01*
X68793297Y-103755811D01*
X68827000Y-103586377D01*
X68827000Y-103413623D01*
X68793297Y-103244189D01*
X68738781Y-103112574D01*
X68854766Y-102996589D01*
X68877737Y-102977737D01*
X68896588Y-102954767D01*
X69104771Y-102746585D01*
X69125450Y-102729614D01*
X69176492Y-102745097D01*
X69176492Y-102745097D01*
G37*
X69176492Y-102745097D02*
X69270000Y-102754307D01*
X70330000Y-102754307D01*
X70415233Y-102745912D01*
X70288145Y-102873000D01*
X70213623Y-102873000D01*
X70044189Y-102906703D01*
X69884585Y-102972813D01*
X69740945Y-103068790D01*
X69618790Y-103190945D01*
X69522813Y-103334585D01*
X69456703Y-103494189D01*
X69423000Y-103663623D01*
X69423000Y-103836377D01*
X69456703Y-104005811D01*
X69522813Y-104165415D01*
X69618790Y-104309055D01*
X69698001Y-104388266D01*
X69698000Y-104845693D01*
X69354307Y-104845693D01*
X69354307Y-104412500D01*
X69343896Y-104306799D01*
X69313064Y-104205159D01*
X69262996Y-104111488D01*
X69195615Y-104029385D01*
X69113512Y-103962004D01*
X69019841Y-103911936D01*
X68918201Y-103881104D01*
X68812500Y-103870693D01*
X68745711Y-103870693D01*
X68793297Y-103755811D01*
X68827000Y-103586377D01*
X68827000Y-103413623D01*
X68793297Y-103244189D01*
X68738781Y-103112574D01*
X68854766Y-102996589D01*
X68877737Y-102977737D01*
X68896588Y-102954767D01*
X69104771Y-102746585D01*
X69125450Y-102729614D01*
X69176492Y-102745097D01*
G36*
X60572000Y-104427000D02*
G01*
X60552000Y-104427000D01*
X60552000Y-104447000D01*
X60298000Y-104447000D01*
X60298000Y-104427000D01*
X60278000Y-104427000D01*
X60278000Y-104279307D01*
X60572000Y-104279307D01*
X60572000Y-104427000D01*
X60572000Y-104427000D01*
G37*
X60572000Y-104427000D02*
X60552000Y-104427000D01*
X60552000Y-104447000D01*
X60298000Y-104447000D01*
X60298000Y-104427000D01*
X60278000Y-104427000D01*
X60278000Y-104279307D01*
X60572000Y-104279307D01*
X60572000Y-104427000D01*
G36*
X63677000Y-102723000D02*
G01*
X63695693Y-102723000D01*
X63695693Y-102977000D01*
X63677000Y-102977000D01*
X63677000Y-102997000D01*
X63423000Y-102997000D01*
X63423000Y-102977000D01*
X63404307Y-102977000D01*
X63404307Y-102723000D01*
X63423000Y-102723000D01*
X63423000Y-102703000D01*
X63677000Y-102703000D01*
X63677000Y-102723000D01*
X63677000Y-102723000D01*
G37*
X63677000Y-102723000D02*
X63695693Y-102723000D01*
X63695693Y-102977000D01*
X63677000Y-102977000D01*
X63677000Y-102997000D01*
X63423000Y-102997000D01*
X63423000Y-102977000D01*
X63404307Y-102977000D01*
X63404307Y-102723000D01*
X63423000Y-102723000D01*
X63423000Y-102703000D01*
X63677000Y-102703000D01*
X63677000Y-102723000D01*
G36*
X78820693Y-100397050D02*
G01*
X78820693Y-100725000D01*
X78829903Y-100818508D01*
X78857178Y-100908423D01*
X78901471Y-100991289D01*
X78961079Y-101063921D01*
X78998001Y-101094222D01*
X78998001Y-101411008D01*
X78867048Y-101450732D01*
X78742041Y-101517550D01*
X78632471Y-101607471D01*
X78542550Y-101717041D01*
X78475732Y-101842048D01*
X78434586Y-101977689D01*
X78420693Y-102118750D01*
X78420693Y-102382499D01*
X78408866Y-102343510D01*
X78352966Y-102238929D01*
X78277737Y-102147263D01*
X78254772Y-102128416D01*
X76279307Y-100152952D01*
X76279307Y-100025000D01*
X76270097Y-99931492D01*
X76242822Y-99841577D01*
X76198529Y-99758711D01*
X76138921Y-99686079D01*
X76066289Y-99626471D01*
X75983423Y-99582178D01*
X75893508Y-99554903D01*
X75800000Y-99545693D01*
X74800000Y-99545693D01*
X74706492Y-99554903D01*
X74616577Y-99582178D01*
X74554229Y-99615504D01*
X74554308Y-99600000D01*
X74545098Y-99506492D01*
X74517823Y-99416577D01*
X74473530Y-99333711D01*
X74466381Y-99325000D01*
X74473530Y-99316289D01*
X74517823Y-99233423D01*
X74545098Y-99143508D01*
X74554308Y-99050000D01*
X74553974Y-98984361D01*
X74616577Y-99017823D01*
X74706492Y-99045098D01*
X74800000Y-99054308D01*
X75053750Y-99052000D01*
X75173000Y-98932750D01*
X75173000Y-98352000D01*
X75427000Y-98352000D01*
X75427000Y-98932750D01*
X75546250Y-99052000D01*
X75800000Y-99054308D01*
X75893508Y-99045098D01*
X75983423Y-99017823D01*
X76066289Y-98973530D01*
X76138922Y-98913922D01*
X76198530Y-98841289D01*
X76242823Y-98758423D01*
X76270098Y-98668508D01*
X76279308Y-98575000D01*
X76277000Y-98471250D01*
X76157750Y-98352000D01*
X75427000Y-98352000D01*
X75173000Y-98352000D01*
X74442250Y-98352000D01*
X74323000Y-98471250D01*
X74322872Y-98477000D01*
X73714500Y-98477000D01*
X73714500Y-100173000D01*
X73734500Y-100173000D01*
X73734500Y-100427000D01*
X73714500Y-100427000D01*
X73714500Y-100447000D01*
X73460500Y-100447000D01*
X73460500Y-100427000D01*
X73440500Y-100427000D01*
X73440500Y-100173000D01*
X73460500Y-100173000D01*
X73460500Y-98477000D01*
X73440500Y-98477000D01*
X73440500Y-98223000D01*
X73460500Y-98223000D01*
X73460500Y-98203000D01*
X73714500Y-98203000D01*
X73714500Y-98223000D01*
X74432750Y-98223000D01*
X74552000Y-98103750D01*
X74552029Y-98098000D01*
X75173000Y-98098000D01*
X75173000Y-98078000D01*
X75427000Y-98078000D01*
X75427000Y-98098000D01*
X76157750Y-98098000D01*
X76277000Y-97978750D01*
X76279308Y-97875000D01*
X76277195Y-97853551D01*
X78820693Y-100397050D01*
X78820693Y-100397050D01*
G37*
X78820693Y-100397050D02*
X78820693Y-100725000D01*
X78829903Y-100818508D01*
X78857178Y-100908423D01*
X78901471Y-100991289D01*
X78961079Y-101063921D01*
X78998001Y-101094222D01*
X78998001Y-101411008D01*
X78867048Y-101450732D01*
X78742041Y-101517550D01*
X78632471Y-101607471D01*
X78542550Y-101717041D01*
X78475732Y-101842048D01*
X78434586Y-101977689D01*
X78420693Y-102118750D01*
X78420693Y-102382499D01*
X78408866Y-102343510D01*
X78352966Y-102238929D01*
X78277737Y-102147263D01*
X78254772Y-102128416D01*
X76279307Y-100152952D01*
X76279307Y-100025000D01*
X76270097Y-99931492D01*
X76242822Y-99841577D01*
X76198529Y-99758711D01*
X76138921Y-99686079D01*
X76066289Y-99626471D01*
X75983423Y-99582178D01*
X75893508Y-99554903D01*
X75800000Y-99545693D01*
X74800000Y-99545693D01*
X74706492Y-99554903D01*
X74616577Y-99582178D01*
X74554229Y-99615504D01*
X74554308Y-99600000D01*
X74545098Y-99506492D01*
X74517823Y-99416577D01*
X74473530Y-99333711D01*
X74466381Y-99325000D01*
X74473530Y-99316289D01*
X74517823Y-99233423D01*
X74545098Y-99143508D01*
X74554308Y-99050000D01*
X74553974Y-98984361D01*
X74616577Y-99017823D01*
X74706492Y-99045098D01*
X74800000Y-99054308D01*
X75053750Y-99052000D01*
X75173000Y-98932750D01*
X75173000Y-98352000D01*
X75427000Y-98352000D01*
X75427000Y-98932750D01*
X75546250Y-99052000D01*
X75800000Y-99054308D01*
X75893508Y-99045098D01*
X75983423Y-99017823D01*
X76066289Y-98973530D01*
X76138922Y-98913922D01*
X76198530Y-98841289D01*
X76242823Y-98758423D01*
X76270098Y-98668508D01*
X76279308Y-98575000D01*
X76277000Y-98471250D01*
X76157750Y-98352000D01*
X75427000Y-98352000D01*
X75173000Y-98352000D01*
X74442250Y-98352000D01*
X74323000Y-98471250D01*
X74322872Y-98477000D01*
X73714500Y-98477000D01*
X73714500Y-100173000D01*
X73734500Y-100173000D01*
X73734500Y-100427000D01*
X73714500Y-100427000D01*
X73714500Y-100447000D01*
X73460500Y-100447000D01*
X73460500Y-100427000D01*
X73440500Y-100427000D01*
X73440500Y-100173000D01*
X73460500Y-100173000D01*
X73460500Y-98477000D01*
X73440500Y-98477000D01*
X73440500Y-98223000D01*
X73460500Y-98223000D01*
X73460500Y-98203000D01*
X73714500Y-98203000D01*
X73714500Y-98223000D01*
X74432750Y-98223000D01*
X74552000Y-98103750D01*
X74552029Y-98098000D01*
X75173000Y-98098000D01*
X75173000Y-98078000D01*
X75427000Y-98078000D01*
X75427000Y-98098000D01*
X76157750Y-98098000D01*
X76277000Y-97978750D01*
X76279308Y-97875000D01*
X76277195Y-97853551D01*
X78820693Y-100397050D01*
G36*
X67727000Y-100873000D02*
G01*
X67747000Y-100873000D01*
X67747000Y-101127000D01*
X67727000Y-101127000D01*
X67727000Y-101145693D01*
X67473000Y-101145693D01*
X67473000Y-101127000D01*
X67453000Y-101127000D01*
X67453000Y-100873000D01*
X67473000Y-100873000D01*
X67473000Y-100854307D01*
X67727000Y-100854307D01*
X67727000Y-100873000D01*
X67727000Y-100873000D01*
G37*
X67727000Y-100873000D02*
X67747000Y-100873000D01*
X67747000Y-101127000D01*
X67727000Y-101127000D01*
X67727000Y-101145693D01*
X67473000Y-101145693D01*
X67473000Y-101127000D01*
X67453000Y-101127000D01*
X67453000Y-100873000D01*
X67473000Y-100873000D01*
X67473000Y-100854307D01*
X67727000Y-100854307D01*
X67727000Y-100873000D01*
G36*
X68729902Y-98993508D02*
G01*
X68757177Y-99083423D01*
X68801470Y-99166289D01*
X68861078Y-99238922D01*
X68933711Y-99298530D01*
X68996719Y-99332209D01*
X68931079Y-99386079D01*
X68871471Y-99458711D01*
X68827178Y-99541577D01*
X68799903Y-99631492D01*
X68790693Y-99725000D01*
X68790693Y-100375000D01*
X68799903Y-100468508D01*
X68806940Y-100491705D01*
X68608875Y-100689770D01*
X68609308Y-100675000D01*
X68600098Y-100581492D01*
X68582961Y-100524998D01*
X68600097Y-100468508D01*
X68609307Y-100375000D01*
X68609307Y-99725000D01*
X68600097Y-99631492D01*
X68572822Y-99541577D01*
X68528529Y-99458711D01*
X68468921Y-99386079D01*
X68396289Y-99326471D01*
X68362560Y-99308442D01*
X68457959Y-99257450D01*
X68567529Y-99167529D01*
X68657450Y-99057959D01*
X68723989Y-98933474D01*
X68729902Y-98993508D01*
X68729902Y-98993508D01*
G37*
X68729902Y-98993508D02*
X68757177Y-99083423D01*
X68801470Y-99166289D01*
X68861078Y-99238922D01*
X68933711Y-99298530D01*
X68996719Y-99332209D01*
X68931079Y-99386079D01*
X68871471Y-99458711D01*
X68827178Y-99541577D01*
X68799903Y-99631492D01*
X68790693Y-99725000D01*
X68790693Y-100375000D01*
X68799903Y-100468508D01*
X68806940Y-100491705D01*
X68608875Y-100689770D01*
X68609308Y-100675000D01*
X68600098Y-100581492D01*
X68582961Y-100524998D01*
X68600097Y-100468508D01*
X68609307Y-100375000D01*
X68609307Y-99725000D01*
X68600097Y-99631492D01*
X68572822Y-99541577D01*
X68528529Y-99458711D01*
X68468921Y-99386079D01*
X68396289Y-99326471D01*
X68362560Y-99308442D01*
X68457959Y-99257450D01*
X68567529Y-99167529D01*
X68657450Y-99057959D01*
X68723989Y-98933474D01*
X68729902Y-98993508D01*
G36*
X65518081Y-94889722D02*
G01*
X65442201Y-95139863D01*
X65416580Y-95400000D01*
X65442201Y-95660137D01*
X65518081Y-95910278D01*
X65641302Y-96140808D01*
X65807130Y-96342870D01*
X66009192Y-96508698D01*
X66239722Y-96631919D01*
X66489863Y-96707799D01*
X66684816Y-96727000D01*
X66815184Y-96727000D01*
X67010137Y-96707799D01*
X67260278Y-96631919D01*
X67490808Y-96508698D01*
X67692870Y-96342870D01*
X67858698Y-96140808D01*
X67981919Y-95910278D01*
X68020000Y-95784743D01*
X68058081Y-95910278D01*
X68181302Y-96140808D01*
X68347130Y-96342870D01*
X68549192Y-96508698D01*
X68779722Y-96631919D01*
X69029863Y-96707799D01*
X69224816Y-96727000D01*
X69355184Y-96727000D01*
X69550137Y-96707799D01*
X69800278Y-96631919D01*
X70030808Y-96508698D01*
X70232870Y-96342870D01*
X70398698Y-96140808D01*
X70521919Y-95910278D01*
X70560000Y-95784743D01*
X70598081Y-95910278D01*
X70721302Y-96140808D01*
X70887130Y-96342870D01*
X71089192Y-96508698D01*
X71319722Y-96631919D01*
X71569863Y-96707799D01*
X71764816Y-96727000D01*
X71895184Y-96727000D01*
X72090137Y-96707799D01*
X72240754Y-96662110D01*
X72831735Y-97253092D01*
X72761078Y-97311078D01*
X72701470Y-97383711D01*
X72657177Y-97466577D01*
X72629902Y-97556492D01*
X72623989Y-97616526D01*
X72557450Y-97492041D01*
X72467529Y-97382471D01*
X72357959Y-97292550D01*
X72232952Y-97225732D01*
X72097311Y-97184586D01*
X71956250Y-97170693D01*
X71468750Y-97170693D01*
X71327689Y-97184586D01*
X71192048Y-97225732D01*
X71067041Y-97292550D01*
X70957471Y-97382471D01*
X70867550Y-97492041D01*
X70800732Y-97617048D01*
X70759586Y-97752689D01*
X70745693Y-97893750D01*
X70745693Y-98806250D01*
X70759586Y-98947311D01*
X70800732Y-99082952D01*
X70867550Y-99207959D01*
X70957471Y-99317529D01*
X70966575Y-99325000D01*
X70957471Y-99332471D01*
X70867550Y-99442041D01*
X70864365Y-99448000D01*
X70719739Y-99448000D01*
X70668921Y-99386079D01*
X70596289Y-99326471D01*
X70513423Y-99282178D01*
X70475304Y-99270615D01*
X70513922Y-99238922D01*
X70573530Y-99166289D01*
X70617823Y-99083423D01*
X70645098Y-98993508D01*
X70654308Y-98900000D01*
X70652000Y-98446250D01*
X70532750Y-98327000D01*
X69814500Y-98327000D01*
X69814500Y-98347000D01*
X69560500Y-98347000D01*
X69560500Y-98327000D01*
X69540500Y-98327000D01*
X69540500Y-98073000D01*
X69560500Y-98073000D01*
X69560500Y-97142250D01*
X69814500Y-97142250D01*
X69814500Y-98073000D01*
X70532750Y-98073000D01*
X70652000Y-97953750D01*
X70654308Y-97500000D01*
X70645098Y-97406492D01*
X70617823Y-97316577D01*
X70573530Y-97233711D01*
X70513922Y-97161078D01*
X70441289Y-97101470D01*
X70358423Y-97057177D01*
X70268508Y-97029902D01*
X70175000Y-97020692D01*
X69933750Y-97023000D01*
X69814500Y-97142250D01*
X69560500Y-97142250D01*
X69441250Y-97023000D01*
X69200000Y-97020692D01*
X69106492Y-97029902D01*
X69016577Y-97057177D01*
X68933711Y-97101470D01*
X68861078Y-97161078D01*
X68801470Y-97233711D01*
X68757177Y-97316577D01*
X68729902Y-97406492D01*
X68723989Y-97466526D01*
X68657450Y-97342041D01*
X68567529Y-97232471D01*
X68457959Y-97142550D01*
X68332952Y-97075732D01*
X68197311Y-97034586D01*
X68056250Y-97020693D01*
X67568750Y-97020693D01*
X67427689Y-97034586D01*
X67292048Y-97075732D01*
X67167041Y-97142550D01*
X67057471Y-97232471D01*
X66967550Y-97342041D01*
X66900732Y-97467048D01*
X66859586Y-97602689D01*
X66845693Y-97743750D01*
X66845693Y-98048000D01*
X66429110Y-98048000D01*
X66420097Y-97956492D01*
X66392822Y-97866577D01*
X66348529Y-97783711D01*
X66288921Y-97711079D01*
X66216289Y-97651471D01*
X66133423Y-97607178D01*
X66043508Y-97579903D01*
X65950000Y-97570693D01*
X65050000Y-97570693D01*
X64956492Y-97579903D01*
X64866577Y-97607178D01*
X64783711Y-97651471D01*
X64711079Y-97711079D01*
X64651471Y-97783711D01*
X64607178Y-97866577D01*
X64579903Y-97956492D01*
X64570693Y-98050000D01*
X64570693Y-98469337D01*
X64346588Y-98245233D01*
X64327737Y-98222263D01*
X64236071Y-98147034D01*
X64131490Y-98091134D01*
X64018012Y-98056711D01*
X63929566Y-98048000D01*
X63929556Y-98048000D01*
X63900000Y-98045089D01*
X63870444Y-98048000D01*
X63129110Y-98048000D01*
X63120097Y-97956492D01*
X63092822Y-97866577D01*
X63048529Y-97783711D01*
X62988921Y-97711079D01*
X62916289Y-97651471D01*
X62833423Y-97607178D01*
X62743508Y-97579903D01*
X62650000Y-97570693D01*
X61750000Y-97570693D01*
X61656492Y-97579903D01*
X61566577Y-97607178D01*
X61483711Y-97651471D01*
X61458995Y-97671755D01*
X61477000Y-97653750D01*
X61479308Y-97600000D01*
X61470098Y-97506492D01*
X61442823Y-97416577D01*
X61398530Y-97333711D01*
X61338922Y-97261078D01*
X61302581Y-97231254D01*
X61320098Y-97173508D01*
X61329308Y-97080000D01*
X61328881Y-96924027D01*
X61351471Y-96966289D01*
X61411079Y-97038921D01*
X61483711Y-97098529D01*
X61566577Y-97142822D01*
X61656492Y-97170097D01*
X61750000Y-97179307D01*
X62527951Y-97179307D01*
X62703415Y-97354771D01*
X62722263Y-97377737D01*
X62813929Y-97452966D01*
X62918510Y-97508866D01*
X63031988Y-97543289D01*
X63120434Y-97552000D01*
X63120443Y-97552000D01*
X63150000Y-97554911D01*
X63179556Y-97552000D01*
X63411735Y-97552000D01*
X63490945Y-97631210D01*
X63634585Y-97727187D01*
X63794189Y-97793297D01*
X63963623Y-97827000D01*
X64136377Y-97827000D01*
X64305811Y-97793297D01*
X64465415Y-97727187D01*
X64609055Y-97631210D01*
X64731210Y-97509055D01*
X64827187Y-97365415D01*
X64893297Y-97205811D01*
X64927000Y-97036377D01*
X64927000Y-96863623D01*
X64893297Y-96694189D01*
X64827187Y-96534585D01*
X64731210Y-96390945D01*
X64609055Y-96268790D01*
X64549964Y-96229307D01*
X64650000Y-96229307D01*
X64743508Y-96220097D01*
X64833423Y-96192822D01*
X64916289Y-96148529D01*
X64988921Y-96088921D01*
X65048529Y-96016289D01*
X65092822Y-95933423D01*
X65120097Y-95843508D01*
X65129307Y-95750000D01*
X65129307Y-95272048D01*
X65525484Y-94875871D01*
X65518081Y-94889722D01*
X65518081Y-94889722D01*
G37*
X65518081Y-94889722D02*
X65442201Y-95139863D01*
X65416580Y-95400000D01*
X65442201Y-95660137D01*
X65518081Y-95910278D01*
X65641302Y-96140808D01*
X65807130Y-96342870D01*
X66009192Y-96508698D01*
X66239722Y-96631919D01*
X66489863Y-96707799D01*
X66684816Y-96727000D01*
X66815184Y-96727000D01*
X67010137Y-96707799D01*
X67260278Y-96631919D01*
X67490808Y-96508698D01*
X67692870Y-96342870D01*
X67858698Y-96140808D01*
X67981919Y-95910278D01*
X68020000Y-95784743D01*
X68058081Y-95910278D01*
X68181302Y-96140808D01*
X68347130Y-96342870D01*
X68549192Y-96508698D01*
X68779722Y-96631919D01*
X69029863Y-96707799D01*
X69224816Y-96727000D01*
X69355184Y-96727000D01*
X69550137Y-96707799D01*
X69800278Y-96631919D01*
X70030808Y-96508698D01*
X70232870Y-96342870D01*
X70398698Y-96140808D01*
X70521919Y-95910278D01*
X70560000Y-95784743D01*
X70598081Y-95910278D01*
X70721302Y-96140808D01*
X70887130Y-96342870D01*
X71089192Y-96508698D01*
X71319722Y-96631919D01*
X71569863Y-96707799D01*
X71764816Y-96727000D01*
X71895184Y-96727000D01*
X72090137Y-96707799D01*
X72240754Y-96662110D01*
X72831735Y-97253092D01*
X72761078Y-97311078D01*
X72701470Y-97383711D01*
X72657177Y-97466577D01*
X72629902Y-97556492D01*
X72623989Y-97616526D01*
X72557450Y-97492041D01*
X72467529Y-97382471D01*
X72357959Y-97292550D01*
X72232952Y-97225732D01*
X72097311Y-97184586D01*
X71956250Y-97170693D01*
X71468750Y-97170693D01*
X71327689Y-97184586D01*
X71192048Y-97225732D01*
X71067041Y-97292550D01*
X70957471Y-97382471D01*
X70867550Y-97492041D01*
X70800732Y-97617048D01*
X70759586Y-97752689D01*
X70745693Y-97893750D01*
X70745693Y-98806250D01*
X70759586Y-98947311D01*
X70800732Y-99082952D01*
X70867550Y-99207959D01*
X70957471Y-99317529D01*
X70966575Y-99325000D01*
X70957471Y-99332471D01*
X70867550Y-99442041D01*
X70864365Y-99448000D01*
X70719739Y-99448000D01*
X70668921Y-99386079D01*
X70596289Y-99326471D01*
X70513423Y-99282178D01*
X70475304Y-99270615D01*
X70513922Y-99238922D01*
X70573530Y-99166289D01*
X70617823Y-99083423D01*
X70645098Y-98993508D01*
X70654308Y-98900000D01*
X70652000Y-98446250D01*
X70532750Y-98327000D01*
X69814500Y-98327000D01*
X69814500Y-98347000D01*
X69560500Y-98347000D01*
X69560500Y-98327000D01*
X69540500Y-98327000D01*
X69540500Y-98073000D01*
X69560500Y-98073000D01*
X69560500Y-97142250D01*
X69814500Y-97142250D01*
X69814500Y-98073000D01*
X70532750Y-98073000D01*
X70652000Y-97953750D01*
X70654308Y-97500000D01*
X70645098Y-97406492D01*
X70617823Y-97316577D01*
X70573530Y-97233711D01*
X70513922Y-97161078D01*
X70441289Y-97101470D01*
X70358423Y-97057177D01*
X70268508Y-97029902D01*
X70175000Y-97020692D01*
X69933750Y-97023000D01*
X69814500Y-97142250D01*
X69560500Y-97142250D01*
X69441250Y-97023000D01*
X69200000Y-97020692D01*
X69106492Y-97029902D01*
X69016577Y-97057177D01*
X68933711Y-97101470D01*
X68861078Y-97161078D01*
X68801470Y-97233711D01*
X68757177Y-97316577D01*
X68729902Y-97406492D01*
X68723989Y-97466526D01*
X68657450Y-97342041D01*
X68567529Y-97232471D01*
X68457959Y-97142550D01*
X68332952Y-97075732D01*
X68197311Y-97034586D01*
X68056250Y-97020693D01*
X67568750Y-97020693D01*
X67427689Y-97034586D01*
X67292048Y-97075732D01*
X67167041Y-97142550D01*
X67057471Y-97232471D01*
X66967550Y-97342041D01*
X66900732Y-97467048D01*
X66859586Y-97602689D01*
X66845693Y-97743750D01*
X66845693Y-98048000D01*
X66429110Y-98048000D01*
X66420097Y-97956492D01*
X66392822Y-97866577D01*
X66348529Y-97783711D01*
X66288921Y-97711079D01*
X66216289Y-97651471D01*
X66133423Y-97607178D01*
X66043508Y-97579903D01*
X65950000Y-97570693D01*
X65050000Y-97570693D01*
X64956492Y-97579903D01*
X64866577Y-97607178D01*
X64783711Y-97651471D01*
X64711079Y-97711079D01*
X64651471Y-97783711D01*
X64607178Y-97866577D01*
X64579903Y-97956492D01*
X64570693Y-98050000D01*
X64570693Y-98469337D01*
X64346588Y-98245233D01*
X64327737Y-98222263D01*
X64236071Y-98147034D01*
X64131490Y-98091134D01*
X64018012Y-98056711D01*
X63929566Y-98048000D01*
X63929556Y-98048000D01*
X63900000Y-98045089D01*
X63870444Y-98048000D01*
X63129110Y-98048000D01*
X63120097Y-97956492D01*
X63092822Y-97866577D01*
X63048529Y-97783711D01*
X62988921Y-97711079D01*
X62916289Y-97651471D01*
X62833423Y-97607178D01*
X62743508Y-97579903D01*
X62650000Y-97570693D01*
X61750000Y-97570693D01*
X61656492Y-97579903D01*
X61566577Y-97607178D01*
X61483711Y-97651471D01*
X61458995Y-97671755D01*
X61477000Y-97653750D01*
X61479308Y-97600000D01*
X61470098Y-97506492D01*
X61442823Y-97416577D01*
X61398530Y-97333711D01*
X61338922Y-97261078D01*
X61302581Y-97231254D01*
X61320098Y-97173508D01*
X61329308Y-97080000D01*
X61328881Y-96924027D01*
X61351471Y-96966289D01*
X61411079Y-97038921D01*
X61483711Y-97098529D01*
X61566577Y-97142822D01*
X61656492Y-97170097D01*
X61750000Y-97179307D01*
X62527951Y-97179307D01*
X62703415Y-97354771D01*
X62722263Y-97377737D01*
X62813929Y-97452966D01*
X62918510Y-97508866D01*
X63031988Y-97543289D01*
X63120434Y-97552000D01*
X63120443Y-97552000D01*
X63150000Y-97554911D01*
X63179556Y-97552000D01*
X63411735Y-97552000D01*
X63490945Y-97631210D01*
X63634585Y-97727187D01*
X63794189Y-97793297D01*
X63963623Y-97827000D01*
X64136377Y-97827000D01*
X64305811Y-97793297D01*
X64465415Y-97727187D01*
X64609055Y-97631210D01*
X64731210Y-97509055D01*
X64827187Y-97365415D01*
X64893297Y-97205811D01*
X64927000Y-97036377D01*
X64927000Y-96863623D01*
X64893297Y-96694189D01*
X64827187Y-96534585D01*
X64731210Y-96390945D01*
X64609055Y-96268790D01*
X64549964Y-96229307D01*
X64650000Y-96229307D01*
X64743508Y-96220097D01*
X64833423Y-96192822D01*
X64916289Y-96148529D01*
X64988921Y-96088921D01*
X65048529Y-96016289D01*
X65092822Y-95933423D01*
X65120097Y-95843508D01*
X65129307Y-95750000D01*
X65129307Y-95272048D01*
X65525484Y-94875871D01*
X65518081Y-94889722D01*
G36*
X60552000Y-97773000D02*
G01*
X60572000Y-97773000D01*
X60572000Y-97920693D01*
X60278000Y-97920693D01*
X60278000Y-97773000D01*
X60298000Y-97773000D01*
X60298000Y-97753000D01*
X60552000Y-97753000D01*
X60552000Y-97773000D01*
X60552000Y-97773000D01*
G37*
X60552000Y-97773000D02*
X60572000Y-97773000D01*
X60572000Y-97920693D01*
X60278000Y-97920693D01*
X60278000Y-97773000D01*
X60298000Y-97773000D01*
X60298000Y-97753000D01*
X60552000Y-97753000D01*
X60552000Y-97773000D01*
G36*
X61360263Y-97772998D02*
G01*
X61357752Y-97772998D01*
X61371755Y-97758995D01*
X61360263Y-97772998D01*
X61360263Y-97772998D01*
G37*
X61360263Y-97772998D02*
X61357752Y-97772998D01*
X61371755Y-97758995D01*
X61360263Y-97772998D01*
M02*
