M48
; DRILL file {KiCad (5.1.4-0-10_14)} date 2020 April 01, Wednesday 19:03:23
; FORMAT={-:-/ absolute / metric / decimal}
; #@! TF.CreationDate,2020-04-01T19:03:23+03:00
; #@! TF.GenerationSoftware,Kicad,Pcbnew,(5.1.4-0-10_14)
FMAT,2
METRIC
T1C0.400
T2C1.000
T3C0.650
%
G90
G05
T1
X55.9Y-103.35
X58.5Y-103.35
X60.55Y-94.05
X63.025Y-107.625
X63.3Y-99.45
X64.05Y-96.95
X65.55Y-104.3
X65.85Y-100.65
X66.75Y-103.6
X67.95Y-103.5
X69.2Y-103.3
X70.3Y-103.75
X70.5Y-108.3
X74.7Y-103.45
X74.7Y-105.15
X76.375Y-107.35
X76.75Y-106.225
X77.15Y-104.55
T2
X66.75Y-95.4
X69.29Y-95.4
X71.83Y-95.4
X74.37Y-95.4
X76.91Y-95.4
X79.45Y-95.4
T3
X59.414Y-98.21
X59.414Y-103.99
T0
M30
